{
date = "2013-02-20 18:51:23 +0000";
designer = Rizzles;
familyName = "test";
fontMaster = (
{
ascender = 1536;
capHeight = 0;
customParameters = (
{
name = TypoAscender;
value = 1536;
},
{
name = TypoDescender;
value = "-256";
},
{
name = postscriptUnderlinePosition;
value = "-134";
}
);
descender = "-256";
id = "4350166A-1D95-43E0-8855-54890F69E6B2";
weightValue = 400;
widthValue = 5;
xHeight = 0;
}
);
glyphs = (
{
glyphname = h_sign;
layers = (
{
layerId = "4350166A-1D95-43E0-8855-54890F69E6B2";
name = Regular;
paths = (
{
closed = 1;
nodes = (
"1280 1088 LINE SMOOTH",
"1280 1123 OFFCURVE",
"1251 1152 OFFCURVE",
"1216 1152 CURVE SMOOTH",
"1088 1152 LINE SMOOTH",
"1053 1152 OFFCURVE",
"1024 1123 OFFCURVE",
"1024 1088 CURVE SMOOTH",
"1024 768 LINE",
"512 768 LINE",
"512 1088 LINE SMOOTH",
"512 1123 OFFCURVE",
"483 1152 OFFCURVE",
"448 1152 CURVE SMOOTH",
"320 1152 LINE SMOOTH",
"285 1152 OFFCURVE",
"256 1123 OFFCURVE",
"256 1088 CURVE SMOOTH",
"256 192 LINE SMOOTH",
"256 157 OFFCURVE",
"285 128 OFFCURVE",
"320 128 CURVE SMOOTH",
"448 128 LINE SMOOTH",
"483 128 OFFCURVE",
"512 157 OFFCURVE",
"512 192 CURVE SMOOTH",
"512 512 LINE",
"1024 512 LINE",
"1024 192 LINE SMOOTH",
"1024 157 OFFCURVE",
"1053 128 OFFCURVE",
"1088 128 CURVE SMOOTH",
"1216 128 LINE SMOOTH",
"1251 128 OFFCURVE",
"1280 157 OFFCURVE",
"1280 192 CURVE SMOOTH"
);
},
{
closed = 1;
nodes = (
"1536 160 LINE SMOOTH",
"1536 1 OFFCURVE",
"1407 -128 OFFCURVE",
"1248 -128 CURVE SMOOTH",
"288 -128 LINE SMOOTH",
"129 -128 OFFCURVE",
"0 1 OFFCURVE",
"0 160 CURVE SMOOTH",
"0 1120 LINE SMOOTH",
"0 1279 OFFCURVE",
"129 1408 OFFCURVE",
"288 1408 CURVE SMOOTH",
"1248 1408 LINE SMOOTH",
"1407 1408 OFFCURVE",
"1536 1279 OFFCURVE",
"1536 1120 CURVE SMOOTH"
);
}
);
width = 1536;
}
);
unicode = F0FD;
},
{
glyphname = asterisk;
layers = (
{
layerId = "4350166A-1D95-43E0-8855-54890F69E6B2";
name = Regular;
paths = (
{
closed = 1;
nodes = (
"1482 486 LINE SMOOTH",
"1543 451 OFFCURVE",
"1564 372 OFFCURVE",
"1529 311 CURVE SMOOTH",
"1465 201 LINE SMOOTH",
"1430 140 OFFCURVE",
"1351 119 OFFCURVE",
"1290 154 CURVE SMOOTH",
"1024 307 LINE",
"1024 0 LINE SMOOTH",
"1024 -69 OFFCURVE",
"965 -128 OFFCURVE",
"896 -128 CURVE SMOOTH",
"768 -128 LINE SMOOTH",
"699 -128 OFFCURVE",
"640 -69 OFFCURVE",
"640 0 CURVE SMOOTH",
"640 307 LINE",
"374 154 LINE SMOOTH",
"313 119 OFFCURVE",
"234 140 OFFCURVE",
"199 201 CURVE SMOOTH",
"135 311 LINE SMOOTH",
"100 372 OFFCURVE",
"121 451 OFFCURVE",
"182 486 CURVE SMOOTH",
"448 640 LINE",
"182 794 LINE SMOOTH",
"121 829 OFFCURVE",
"100 908 OFFCURVE",
"135 969 CURVE SMOOTH",
"199 1079 LINE SMOOTH",
"234 1140 OFFCURVE",
"313 1161 OFFCURVE",
"374 1126 CURVE SMOOTH",
"640 973 LINE",
"640 1280 LINE SMOOTH",
"640 1349 OFFCURVE",
"699 1408 OFFCURVE",
"768 1408 CURVE SMOOTH",
"896 1408 LINE SMOOTH",
"965 1408 OFFCURVE",
"1024 1349 OFFCURVE",
"1024 1280 CURVE SMOOTH",
"1024 973 LINE",
"1290 1126 LINE SMOOTH",
"1351 1161 OFFCURVE",
"1430 1140 OFFCURVE",
"1465 1079 CURVE SMOOTH",
"1529 969 LINE SMOOTH",
"1564 908 OFFCURVE",
"1543 829 OFFCURVE",
"1482 794 CURVE SMOOTH",
"1216 640 LINE"
);
}
);
width = 1664;
}
);
unicode = 002A;
},
{
glyphname = question_sign;
layers = (
{
layerId = "4350166A-1D95-43E0-8855-54890F69E6B2";
name = Regular;
paths = (
{
closed = 1;
nodes = (
"896 352 LINE SMOOTH",
"896 369 OFFCURVE",
"881 384 OFFCURVE",
"864 384 CURVE SMOOTH",
"672 384 LINE SMOOTH",
"655 384 OFFCURVE",
"640 369 OFFCURVE",
"640 352 CURVE SMOOTH",
"640 160 LINE SMOOTH",
"640 143 OFFCURVE",
"655 128 OFFCURVE",
"672 128 CURVE SMOOTH",
"864 128 LINE SMOOTH",
"881 128 OFFCURVE",
"896 143 OFFCURVE",
"896 160 CURVE SMOOTH"
);
},
{
closed = 1;
nodes = (
"1152 961 OFFCURVE",
"1064 1067 OFFCURVE",
"949 1116 CURVE SMOOTH",
"892 1140 OFFCURVE",
"831 1152 OFFCURVE",
"768 1152 CURVE SMOOTH",
"641 1152 OFFCURVE",
"521 1104 OFFCURVE",
"443 1004 CURVE SMOOTH",
"404 954 OFFCURVE",
"384 897 OFFCURVE",
"384 832 CURVE SMOOTH",
"384 831 OFFCURVE",
"384 828 OFFCURVE",
"384 821 CURVE SMOOTH",
"384 814 OFFCURVE",
"384 810 OFFCURVE",
"384 808 CURVE SMOOTH",
"384 804 OFFCURVE",
"385 789 OFFCURVE",
"388 785 CURVE SMOOTH",
"391 781 OFFCURVE",
"395 773 OFFCURVE",
"403 770 CURVE",
"406 769 OFFCURVE",
"411 768 OFFCURVE",
"416 768 CURVE SMOOTH",
"608 768 LINE SMOOTH",
"627 768 OFFCURVE",
"640 781 OFFCURVE",
"640 800 CURVE SMOOTH",
"640 808 OFFCURVE",
"644 817 OFFCURVE",
"651 827 CURVE",
"676 868 OFFCURVE",
"721 896 OFFCURVE",
"768 896 CURVE SMOOTH",
"820 896 OFFCURVE",
"895 865 OFFCURVE",
"895 817 CURVE SMOOTH",
"895 773 OFFCURVE",
"854 740 OFFCURVE",
"805 715 CURVE SMOOTH",
"756 690 OFFCURVE",
"702 665 OFFCURVE",
"667 610 CURVE SMOOTH",
"649 583 OFFCURVE",
"640 550 OFFCURVE",
"640 512 CURVE SMOOTH",
"640 511 OFFCURVE",
"640 508 OFFCURVE",
"640 501 CURVE SMOOTH",
"640 494 OFFCURVE",
"640 490 OFFCURVE",
"640 488 CURVE SMOOTH",
"640 484 OFFCURVE",
"641 469 OFFCURVE",
"644 465 CURVE SMOOTH",
"647 461 OFFCURVE",
"651 453 OFFCURVE",
"659 450 CURVE",
"662 449 OFFCURVE",
"667 448 OFFCURVE",
"672 448 CURVE SMOOTH",
"864 448 LINE SMOOTH",
"887 448 OFFCURVE",
"895 464 OFFCURVE",
"896 483 CURVE SMOOTH",
"897 502 OFFCURVE",
"914 531 OFFCURVE",
"947 548 CURVE SMOOTH",
"987 570 OFFCURVE",
"1010 583 OFFCURVE",
"1017 587 CURVE",
"1100 646 OFFCURVE",
"1152 735 OFFCURVE",
"1152 832 CURVE SMOOTH"
);
},
{
closed = 1;
nodes = (
"1502 908 OFFCURVE",
"1536 779 OFFCURVE",
"1536 640 CURVE SMOOTH",
"1536 361 OFFCURVE",
"1389 112 OFFCURVE",
"1154 -25 CURVE SMOOTH",
"1036 -94 OFFCURVE",
"907 -128 OFFCURVE",
"768 -128 CURVE SMOOTH",
"489 -128 OFFCURVE",
"240 19 OFFCURVE",
"103 255 CURVE SMOOTH",
"34 372 OFFCURVE",
"0 501 OFFCURVE",
"0 640 CURVE SMOOTH",
"0 919 OFFCURVE",
"147 1168 OFFCURVE",
"383 1305 CURVE SMOOTH",
"500 1374 OFFCURVE",
"629 1408 OFFCURVE",
"768 1408 CURVE SMOOTH",
"1047 1408 OFFCURVE",
"1296 1261 OFFCURVE",
"1433 1026 CURVE SMOOTH"
);
}
);
width = 1536;
}
);
unicode = F059;
},
{
glyphname = .notdef;
layers = (
{
layerId = "4350166A-1D95-43E0-8855-54890F69E6B2";
name = Regular;
paths = (
{
closed = 1;
nodes = (
"224 112 LINE",
"672 112 LINE",
"672 1424 LINE",
"224 1424 LINE"
);
},
{
closed = 1;
nodes = (
"112 0 LINE",
"112 1536 LINE",
"784 1536 LINE",
"784 0 LINE"
);
}
);
width = 896;
}
);
},
{
glyphname = minus;
layers = (
{
layerId = "4350166A-1D95-43E0-8855-54890F69E6B2";
name = Regular;
paths = (
{
closed = 1;
nodes = (
"1408 608 LINE SMOOTH",
"1408 555 OFFCURVE",
"1365 512 OFFCURVE",
"1312 512 CURVE SMOOTH",
"96 512 LINE SMOOTH",
"43 512 OFFCURVE",
"0 555 OFFCURVE",
"0 608 CURVE SMOOTH",
"0 800 LINE SMOOTH",
"0 853 OFFCURVE",
"43 896 OFFCURVE",
"96 896 CURVE SMOOTH",
"1312 896 LINE SMOOTH",
"1365 896 OFFCURVE",
"1408 853 OFFCURVE",
"1408 800 CURVE SMOOTH"
);
}
);
width = 1408;
}
);
unicode = 2212;
},
{
glyphname = plus;
layers = (
{
layerId = "4350166A-1D95-43E0-8855-54890F69E6B2";
name = Regular;
paths = (
{
closed = 1;
nodes = (
"1408 608 LINE SMOOTH",
"1408 555 OFFCURVE",
"1365 512 OFFCURVE",
"1312 512 CURVE SMOOTH",
"896 512 LINE",
"896 96 LINE SMOOTH",
"896 43 OFFCURVE",
"853 0 OFFCURVE",
"800 0 CURVE SMOOTH",
"608 0 LINE SMOOTH",
"555 0 OFFCURVE",
"512 43 OFFCURVE",
"512 96 CURVE SMOOTH",
"512 512 LINE",
"96 512 LINE SMOOTH",
"43 512 OFFCURVE",
"0 555 OFFCURVE",
"0 608 CURVE SMOOTH",
"0 800 LINE SMOOTH",
"0 853 OFFCURVE",
"43 896 OFFCURVE",
"96 896 CURVE SMOOTH",
"512 896 LINE",
"512 1312 LINE SMOOTH",
"512 1365 OFFCURVE",
"555 1408 OFFCURVE",
"608 1408 CURVE SMOOTH",
"800 1408 LINE SMOOTH",
"853 1408 OFFCURVE",
"896 1365 OFFCURVE",
"896 1312 CURVE SMOOTH",
"896 896 LINE",
"1312 896 LINE SMOOTH",
"1365 896 OFFCURVE",
"1408 853 OFFCURVE",
"1408 800 CURVE SMOOTH"
);
}
);
width = 1408;
}
);
unicode = 002B;
},
{
glyphname = ambulance;
layers = (
{
layerId = "4350166A-1D95-43E0-8855-54890F69E6B2";
name = Regular;
paths = (
{
closed = 1;
nodes = (
"628 63 OFFCURVE",
"640 93 OFFCURVE",
"640 128 CURVE SMOOTH",
"640 199 OFFCURVE",
"583 256 OFFCURVE",
"512 256 CURVE SMOOTH",
"441 256 OFFCURVE",
"384 199 OFFCURVE",
"384 128 CURVE SMOOTH",
"384 57 OFFCURVE",
"441 0 OFFCURVE",
"512 0 CURVE SMOOTH",
"547 0 OFFCURVE",
"578 13 OFFCURVE",
"603 38 CURVE SMOOTH"
);
},
{
closed = 1;
nodes = (
"256 640 LINE",
"640 640 LINE",
"640 896 LINE",
"482 896 LINE",
"473 895 OFFCURVE",
"465 892 OFFCURVE",
"460 887 CURVE SMOOTH",
"265 692 LINE",
"260 684 OFFCURVE",
"257 677 OFFCURVE",
"256 670 CURVE"
);
},
{
closed = 1;
nodes = (
"1524 63 OFFCURVE",
"1536 93 OFFCURVE",
"1536 128 CURVE SMOOTH",
"1536 199 OFFCURVE",
"1479 256 OFFCURVE",
"1408 256 CURVE SMOOTH",
"1337 256 OFFCURVE",
"1280 199 OFFCURVE",
"1280 128 CURVE SMOOTH",
"1280 57 OFFCURVE",
"1337 0 OFFCURVE",
"1408 0 CURVE SMOOTH",
"1443 0 OFFCURVE",
"1474 13 OFFCURVE",
"1499 38 CURVE SMOOTH"
);
},
{
closed = 1;
nodes = (
"1664 992 LINE SMOOTH",
"1664 1011 OFFCURVE",
"1651 1024 OFFCURVE",
"1632 1024 CURVE SMOOTH",
"1408 1024 LINE",
"1408 1248 LINE SMOOTH",
"1408 1267 OFFCURVE",
"1395 1280 OFFCURVE",
"1376 1280 CURVE SMOOTH",
"1184 1280 LINE SMOOTH",
"1165 1280 OFFCURVE",
"1152 1267 OFFCURVE",
"1152 1248 CURVE SMOOTH",
"1152 1024 LINE",
"928 1024 LINE SMOOTH",
"909 1024 OFFCURVE",
"896 1011 OFFCURVE",
"896 992 CURVE SMOOTH",
"896 800 LINE SMOOTH",
"896 781 OFFCURVE",
"909 768 OFFCURVE",
"928 768 CURVE SMOOTH",
"1152 768 LINE",
"1152 544 LINE SMOOTH",
"1152 525 OFFCURVE",
"1165 512 OFFCURVE",
"1184 512 CURVE SMOOTH",
"1376 512 LINE SMOOTH",
"1395 512 OFFCURVE",
"1408 525 OFFCURVE",
"1408 544 CURVE SMOOTH",
"1408 768 LINE",
"1632 768 LINE SMOOTH",
"1651 768 OFFCURVE",
"1664 781 OFFCURVE",
"1664 800 CURVE SMOOTH"
);
},
{
closed = 1;
nodes = (
"1920 192 LINE SMOOTH",
"1920 157 OFFCURVE",
"1891 128 OFFCURVE",
"1856 128 CURVE SMOOTH",
"1664 128 LINE",
"1664 -13 OFFCURVE",
"1549 -128 OFFCURVE",
"1408 -128 CURVE SMOOTH",
"1267 -128 OFFCURVE",
"1152 -13 OFFCURVE",
"1152 128 CURVE",
"768 128 LINE",
"768 -13 OFFCURVE",
"653 -128 OFFCURVE",
"512 -128 CURVE SMOOTH",
"371 -128 OFFCURVE",
"256 -13 OFFCURVE",
"256 128 CURVE",
"128 128 LINE SMOOTH",
"93 128 OFFCURVE",
"64 157 OFFCURVE",
"64 192 CURVE SMOOTH",
"64 227 OFFCURVE",
"93 256 OFFCURVE",
"128 256 CURVE",
"128 672 LINE SMOOTH",
"128 707 OFFCURVE",
"148 756 OFFCURVE",
"173 781 CURVE SMOOTH",
"371 979 LINE SMOOTH",
"396 1004 OFFCURVE",
"445 1024 OFFCURVE",
"480 1024 CURVE SMOOTH",
"640 1024 LINE",
"640 1344 LINE SMOOTH",
"640 1379 OFFCURVE",
"669 1408 OFFCURVE",
"704 1408 CURVE SMOOTH",
"1856 1408 LINE SMOOTH",
"1891 1408 OFFCURVE",
"1920 1379 OFFCURVE",
"1920 1344 CURVE SMOOTH"
);
}
);
width = 1920;
}
);
unicode = 1F691;
},
{
glyphname = bell;
layers = (
{
layerId = "4350166A-1D95-43E0-8855-54890F69E6B2";
name = Regular;
paths = (
{
closed = 1;
nodes = (
"843 -176 OFFCURVE",
"848 -171 OFFCURVE",
"848 -160 CURVE SMOOTH",
"848 -149 OFFCURVE",
"843 -144 OFFCURVE",
"832 -144 CURVE SMOOTH",
"753 -144 OFFCURVE",
"688 -79 OFFCURVE",
"688 0 CURVE SMOOTH",
"688 11 OFFCURVE",
"683 16 OFFCURVE",
"672 16 CURVE SMOOTH",
"661 16 OFFCURVE",
"656 11 OFFCURVE",
"656 0 CURVE SMOOTH",
"656 -97 OFFCURVE",
"735 -176 OFFCURVE",
"832 -176 CURVE SMOOTH"
);
},
{
closed = 1;
nodes = (
"1481 128 LINE",
"1262 369 OFFCURVE",
"1152 685 OFFCURVE",
"1152 1024 CURVE SMOOTH",
"1152 1195 OFFCURVE",
"1045 1280 OFFCURVE",
"832 1280 CURVE SMOOTH",
"619 1280 OFFCURVE",
"512 1195 OFFCURVE",
"512 1024 CURVE SMOOTH",
"512 685 OFFCURVE",
"402 369 OFFCURVE",
"183 128 CURVE"
);
},
{
closed = 1;
nodes = (
"1664 59 OFFCURVE",
"1605 0 OFFCURVE",
"1536 0 CURVE SMOOTH",
"1088 0 LINE",
"1088 -141 OFFCURVE",
"973 -256 OFFCURVE",
"832 -256 CURVE SMOOTH",
"691 -256 OFFCURVE",
"576 -141 OFFCURVE",
"576 0 CURVE",
"128 0 LINE SMOOTH",
"59 0 OFFCURVE",
"0 59 OFFCURVE",
"0 128 CURVE",
"253 343 OFFCURVE",
"384 675 OFFCURVE",
"384 1024 CURVE SMOOTH",
"384 1244 OFFCURVE",
"520 1376 OFFCURVE",
"744 1403 CURVE",
"739 1415 OFFCURVE",
"736 1427 OFFCURVE",
"736 1440 CURVE SMOOTH",
"736 1493 OFFCURVE",
"779 1536 OFFCURVE",
"832 1536 CURVE SMOOTH",
"885 1536 OFFCURVE",
"928 1493 OFFCURVE",
"928 1440 CURVE SMOOTH",
"928 1427 OFFCURVE",
"925 1415 OFFCURVE",
"920 1403 CURVE",
"1144 1376 OFFCURVE",
"1280 1244 OFFCURVE",
"1280 1024 CURVE SMOOTH",
"1280 675 OFFCURVE",
"1411 343 OFFCURVE",
"1664 128 CURVE"
);
}
);
width = 1664;
}
);
unicode = 1F514;
},
{
glyphname = bookmark;
layers = (
{
layerId = "4350166A-1D95-43E0-8855-54890F69E6B2";
name = Regular;
paths = (
{
closed = 1;
nodes = (
"1164 1408 LINE SMOOTH",
"1195 1408 OFFCURVE",
"1235 1395 OFFCURVE",
"1261 1358 CURVE SMOOTH",
"1274 1339 OFFCURVE",
"1280 1319 OFFCURVE",
"1280 1296 CURVE SMOOTH",
"1280 7 LINE SMOOTH",
"1280 -38 OFFCURVE",
"1252 -79 OFFCURVE",
"1208 -96 CURVE SMOOTH",
"1195 -101 OFFCURVE",
"1181 -104 OFFCURVE",
"1164 -104 CURVE SMOOTH",
"1132 -104 OFFCURVE",
"1104 -93 OFFCURVE",
"1081 -72 CURVE SMOOTH",
"640 352 LINE",
"199 -72 LINE SMOOTH",
"175 -94 OFFCURVE",
"147 -105 OFFCURVE",
"116 -105 CURVE SMOOTH",
"85 -105 OFFCURVE",
"46 -92 OFFCURVE",
"20 -55 CURVE SMOOTH",
"7 -36 OFFCURVE",
"0 -16 OFFCURVE",
"0 7 CURVE SMOOTH",
"0 1296 LINE SMOOTH",
"0 1341 OFFCURVE",
"28 1382 OFFCURVE",
"72 1399 CURVE",
"86 1405 OFFCURVE",
"101 1408 OFFCURVE",
"116 1408 CURVE SMOOTH"
);
}
);
width = 1280;
}
);
unicode = 1F516;
},
{
glyphname = briefcase;
layers = (
{
layerId = "4350166A-1D95-43E0-8855-54890F69E6B2";
name = Regular;
paths = (
{
closed = 1;
nodes = (
"640 1152 LINE",
"1152 1152 LINE",
"1152 1280 LINE",
"640 1280 LINE"
);
},
{
closed = 1;
nodes = (
"1792 512 LINE",
"1792 32 LINE SMOOTH",
"1792 -56 OFFCURVE",
"1720 -128 OFFCURVE",
"1632 -128 CURVE SMOOTH",
"160 -128 LINE SMOOTH",
"72 -128 OFFCURVE",
"0 -56 OFFCURVE",
"0 32 CURVE SMOOTH",
"0 512 LINE",
"672 512 LINE",
"672 352 LINE SMOOTH",
"672 317 OFFCURVE",
"701 288 OFFCURVE",
"736 288 CURVE SMOOTH",
"1056 288 LINE SMOOTH",
"1091 288 OFFCURVE",
"1120 317 OFFCURVE",
"1120 352 CURVE SMOOTH",
"1120 512 LINE"
);
},
{
closed = 1;
nodes = (
"1024 512 LINE",
"1024 384 LINE",
"768 384 LINE",
"768 512 LINE"
);
},
{
closed = 1;
nodes = (
"1792 608 LINE",
"0 608 LINE",
"0 992 LINE SMOOTH",
"0 1080 OFFCURVE",
"72 1152 OFFCURVE",
"160 1152 CURVE SMOOTH",
"512 1152 LINE",
"512 1312 LINE SMOOTH",
"512 1365 OFFCURVE",
"555 1408 OFFCURVE",
"608 1408 CURVE SMOOTH",
"1184 1408 LINE SMOOTH",
"1237 1408 OFFCURVE",
"1280 1365 OFFCURVE",
"1280 1312 CURVE SMOOTH",
"1280 1152 LINE",
"1632 1152 LINE SMOOTH",
"1720 1152 OFFCURVE",
"1792 1080 OFFCURVE",
"1792 992 CURVE SMOOTH"
);
}
);
width = 1792;
}
);
unicode = 1F4BC;
},
{
glyphname = calendar;
layers = (
{
layerId = "4350166A-1D95-43E0-8855-54890F69E6B2";
name = Regular;
paths = (
{
closed = 1;
nodes = (
"128 -128 LINE",
"416 -128 LINE",
"416 160 LINE",
"128 160 LINE"
);
},
{
closed = 1;
nodes = (
"480 -128 LINE",
"800 -128 LINE",
"800 160 LINE",
"480 160 LINE"
);
},
{
closed = 1;
nodes = (
"128 224 LINE",
"416 224 LINE",
"416 544 LINE",
"128 544 LINE"
);
},
{
closed = 1;
nodes = (
"480 224 LINE",
"800 224 LINE",
"800 544 LINE",
"480 544 LINE"
);
},
{
closed = 1;
nodes = (
"128 608 LINE",
"416 608 LINE",
"416 896 LINE",
"128 896 LINE"
);
},
{
closed = 1;
nodes = (
"864 -128 LINE",
"1184 -128 LINE",
"1184 160 LINE",
"864 160 LINE"
);
},
{
closed = 1;
nodes = (
"480 608 LINE",
"800 608 LINE",
"800 896 LINE",
"480 896 LINE"
);
},
{
closed = 1;
nodes = (
"1248 -128 LINE",
"1536 -128 LINE",
"1536 160 LINE",
"1248 160 LINE"
);
},
{
closed = 1;
nodes = (
"864 224 LINE",
"1184 224 LINE",
"1184 544 LINE",
"864 544 LINE"
);
},
{
closed = 1;
nodes = (
"512 1376 LINE SMOOTH",
"512 1393 OFFCURVE",
"497 1408 OFFCURVE",
"480 1408 CURVE SMOOTH",
"416 1408 LINE SMOOTH",
"399 1408 OFFCURVE",
"384 1393 OFFCURVE",
"384 1376 CURVE SMOOTH",
"384 1088 LINE SMOOTH",
"384 1071 OFFCURVE",
"399 1056 OFFCURVE",
"416 1056 CURVE SMOOTH",
"480 1056 LINE SMOOTH",
"497 1056 OFFCURVE",
"512 1071 OFFCURVE",
"512 1088 CURVE SMOOTH"
);
},
{
closed = 1;
nodes = (
"1248 224 LINE",
"1536 224 LINE",
"1536 544 LINE",
"1248 544 LINE"
);
},
{
closed = 1;
nodes = (
"864 608 LINE",
"1184 608 LINE",
"1184 896 LINE",
"864 896 LINE"
);
},
{
closed = 1;
nodes = (
"1248 608 LINE",
"1536 608 LINE",
"1536 896 LINE",
"1248 896 LINE"
);
},
{
closed = 1;
nodes = (
"1280 1376 LINE SMOOTH",
"1280 1393 OFFCURVE",
"1265 1408 OFFCURVE",
"1248 1408 CURVE SMOOTH",
"1184 1408 LINE SMOOTH",
"1167 1408 OFFCURVE",
"1152 1393 OFFCURVE",
"1152 1376 CURVE SMOOTH",
"1152 1088 LINE SMOOTH",
"1152 1071 OFFCURVE",
"1167 1056 OFFCURVE",
"1184 1056 CURVE SMOOTH",
"1248 1056 LINE SMOOTH",
"1265 1056 OFFCURVE",
"1280 1071 OFFCURVE",
"1280 1088 CURVE SMOOTH"
);
},
{
closed = 1;
nodes = (
"1664 -128 LINE SMOOTH",
"1664 -197 OFFCURVE",
"1605 -256 OFFCURVE",
"1536 -256 CURVE SMOOTH",
"128 -256 LINE SMOOTH",
"59 -256 OFFCURVE",
"0 -197 OFFCURVE",
"0 -128 CURVE SMOOTH",
"0 1152 LINE SMOOTH",
"0 1221 OFFCURVE",
"59 1280 OFFCURVE",
"128 1280 CURVE SMOOTH",
"256 1280 LINE",
"256 1376 LINE SMOOTH",
"256 1464 OFFCURVE",
"328 1536 OFFCURVE",
"416 1536 CURVE SMOOTH",
"480 1536 LINE SMOOTH",
"568 1536 OFFCURVE",
"640 1464 OFFCURVE",
"640 1376 CURVE SMOOTH",
"640 1280 LINE",
"1024 1280 LINE",
"1024 1376 LINE SMOOTH",
"1024 1464 OFFCURVE",
"1096 1536 OFFCURVE",
"1184 1536 CURVE SMOOTH",
"1248 1536 LINE SMOOTH",
"1336 1536 OFFCURVE",
"1408 1464 OFFCURVE",
"1408 1376 CURVE SMOOTH",
"1408 1280 LINE",
"1536 1280 LINE SMOOTH",
"1605 1280 OFFCURVE",
"1664 1221 OFFCURVE",
"1664 1152 CURVE SMOOTH"
);
}
);
width = 1664;
}
);
unicode = 1F4C5;
},
{
glyphname = camera;
lastChange = "2013-02-20 12:58:45 -0600";
layers = (
{
layerId = "4350166A-1D95-43E0-8855-54890F69E6B2";
name = Regular;
paths = (
{
closed = 1;
nodes = (
"813 836 OFFCURVE",
"881 864 OFFCURVE",
"960 864 CURVE SMOOTH",
"1119 864 OFFCURVE",
"1248 735 OFFCURVE",
"1248 576 CURVE SMOOTH",
"1248 417 OFFCURVE",
"1119 288 OFFCURVE",
"960 288 CURVE SMOOTH",
"801 288 OFFCURVE",
"672 417 OFFCURVE",
"672 576 CURVE SMOOTH",
"672 655 OFFCURVE",
"700 723 OFFCURVE",
"757 780 CURVE SMOOTH"
);
},
{
closed = 1;
nodes = (
"1664 1280 LINE SMOOTH",
"1790 1349 OFFCURVE",
"1920 1536 OFFCURVE",
"1920 1024 CURVE SMOOTH",
"1920 128 LINE SMOOTH",
"1920 -13 OFFCURVE",
"1805 -128 OFFCURVE",
"1664 -128 CURVE SMOOTH",
"256 -128 LINE SMOOTH",
"115 -128 OFFCURVE",
"0 -13 OFFCURVE",
"0 128 CURVE SMOOTH",
"0 1024 LINE SMOOTH",
"0 1165 OFFCURVE",
"83 1356 OFFCURVE",
"256 1280 CURVE SMOOTH",
"577 1139 LINE",
"531 1416 LINE SMOOTH",
"520 1484 OFFCURVE",
"633 1536 OFFCURVE",
"704 1536 CURVE SMOOTH",
"1216 1536 LINE SMOOTH",
"1287 1536 OFFCURVE",
"1403 1514 OFFCURVE",
"1389 1416 CURVE SMOOTH",
"1345 1104 LINE"
);
},
{
closed = 1;
nodes = (
"731 172 OFFCURVE",
"837 128 OFFCURVE",
"960 128 CURVE SMOOTH",
"1207 128 OFFCURVE",
"1408 329 OFFCURVE",
"1408 576 CURVE SMOOTH",
"1408 823 OFFCURVE",
"1207 1024 OFFCURVE",
"960 1024 CURVE SMOOTH",
"713 1024 OFFCURVE",
"512 823 OFFCURVE",
"512 576 CURVE SMOOTH",
"512 453 OFFCURVE",
"556 347 OFFCURVE",
"644 260 CURVE SMOOTH"
);
}
);
width = 1920;
}
);
unicode = 1F4F7;
},
{
glyphname = cloud;
layers = (
{
layerId = "4350166A-1D95-43E0-8855-54890F69E6B2";
name = Regular;
paths = (
{
closed = 1;
nodes = (
"1920 172 OFFCURVE",
"1748 0 OFFCURVE",
"1536 0 CURVE SMOOTH",
"448 0 LINE SMOOTH",
"201 0 OFFCURVE",
"0 201 OFFCURVE",
"0 448 CURVE SMOOTH",
"0 624 OFFCURVE",
"103 781 OFFCURVE",
"258 853 CURVE",
"257 872 OFFCURVE",
"256 886 OFFCURVE",
"256 896 CURVE SMOOTH",
"256 1179 OFFCURVE",
"485 1408 OFFCURVE",
"768 1408 CURVE SMOOTH",
"979 1408 OFFCURVE",
"1163 1279 OFFCURVE",
"1242 1090 CURVE",
"1289 1131 OFFCURVE",
"1344 1152 OFFCURVE",
"1408 1152 CURVE SMOOTH",
"1549 1152 OFFCURVE",
"1664 1037 OFFCURVE",
"1664 896 CURVE SMOOTH",
"1664 846 OFFCURVE",
"1650 800 OFFCURVE",
"1623 758 CURVE",
"1795 718 OFFCURVE",
"1920 564 OFFCURVE",
"1920 384 CURVE SMOOTH"
);
}
);
width = 1920;
}
);
unicode = 2601;
},
{
glyphname = envelope;
layers = (
{
layerId = "4350166A-1D95-43E0-8855-54890F69E6B2";
name = Regular;
paths = (
{
closed = 1;
nodes = (
"1664 800 LINE",
"1643 776 OFFCURVE",
"1620 754 OFFCURVE",
"1595 734 CURVE SMOOTH",
"1416 597 OFFCURVE",
"1274 484 OFFCURVE",
"1169 396 CURVE SMOOTH",
"1101 339 OFFCURVE",
"1072 313 OFFCURVE",
"1000 281 CURVE SMOOTH",
"963 264 OFFCURVE",
"929 256 OFFCURVE",
"897 256 CURVE SMOOTH",
"896 256 LINE",
"895 256 LINE SMOOTH",
"831 256 OFFCURVE",
"749 297 OFFCURVE",
"706 329 CURVE SMOOTH",
"685 345 OFFCURVE",
"657 367 OFFCURVE",
"623 396 CURVE SMOOTH",
"518 484 OFFCURVE",
"376 597 OFFCURVE",
"197 734 CURVE SMOOTH",
"172 754 OFFCURVE",
"149 776 OFFCURVE",
"128 800 CURVE",
"128 32 LINE SMOOTH",
"128 15 OFFCURVE",
"143 0 OFFCURVE",
"160 0 CURVE SMOOTH",
"1632 0 LINE SMOOTH",
"1649 0 OFFCURVE",
"1664 15 OFFCURVE",
"1664 32 CURVE SMOOTH"
);
},
{
closed = 1;
nodes = (
"1664 1084 OFFCURVE",
"1664 1088 OFFCURVE",
"1664 1094 CURVE SMOOTH",
"1664 1100 OFFCURVE",
"1664 1105 OFFCURVE",
"1664 1108 CURVE SMOOTH",
"1664 1114 OFFCURVE",
"1664 1128 OFFCURVE",
"1661 1133 CURVE",
"1659 1136 OFFCURVE",
"1657 1139 OFFCURVE",
"1655 1142 CURVE",
"1651 1149 OFFCURVE",
"1643 1152 OFFCURVE",
"1632 1152 CURVE SMOOTH",
"160 1152 LINE SMOOTH",
"143 1152 OFFCURVE",
"128 1137 OFFCURVE",
"128 1120 CURVE SMOOTH",
"128 1008 OFFCURVE",
"177 913 OFFCURVE",
"275 836 CURVE SMOOTH",
"404 735 OFFCURVE",
"537 629 OFFCURVE",
"676 519 CURVE SMOOTH",
"680 516 OFFCURVE",
"692 506 OFFCURVE",
"711 490 CURVE SMOOTH",
"750 457 OFFCURVE",
"765 445 OFFCURVE",
"802 421 CURVE SMOOTH",
"838 396 OFFCURVE",
"868 384 OFFCURVE",
"895 384 CURVE SMOOTH",
"896 384 LINE",
"897 384 LINE SMOOTH",
"924 384 OFFCURVE",
"954 396 OFFCURVE",
"991 421 CURVE SMOOTH",
"1027 445 OFFCURVE",
"1042 457 OFFCURVE",
"1081 490 CURVE SMOOTH",
"1100 506 OFFCURVE",
"1112 516 OFFCURVE",
"1116 519 CURVE SMOOTH",
"1255 629 OFFCURVE",
"1388 735 OFFCURVE",
"1517 836 CURVE SMOOTH",
"1589 893 OFFCURVE",
"1664 1004 OFFCURVE",
"1664 1083 CURVE SMOOTH"
);
},
{
closed = 1;
nodes = (
"1792 32 LINE SMOOTH",
"1792 -56 OFFCURVE",
"1720 -128 OFFCURVE",
"1632 -128 CURVE SMOOTH",
"160 -128 LINE SMOOTH",
"72 -128 OFFCURVE",
"0 -56 OFFCURVE",
"0 32 CURVE SMOOTH",
"0 1120 LINE SMOOTH",
"0 1208 OFFCURVE",
"72 1280 OFFCURVE",
"160 1280 CURVE SMOOTH",
"1632 1280 LINE SMOOTH",
"1720 1280 OFFCURVE",
"1792 1208 OFFCURVE",
"1792 1120 CURVE SMOOTH"
);
}
);
width = 1792;
}
);
unicode = 2709;
},
{
glyphname = fire;
layers = (
{
layerId = "4350166A-1D95-43E0-8855-54890F69E6B2";
name = Regular;
paths = (
{
closed = 1;
nodes = (
"1408 -224 LINE SMOOTH",
"1408 -241 OFFCURVE",
"1393 -256 OFFCURVE",
"1376 -256 CURVE SMOOTH",
"32 -256 LINE SMOOTH",
"15 -256 OFFCURVE",
"0 -241 OFFCURVE",
"0 -224 CURVE SMOOTH",
"0 -160 LINE SMOOTH",
"0 -143 OFFCURVE",
"15 -128 OFFCURVE",
"32 -128 CURVE SMOOTH",
"1376 -128 LINE SMOOTH",
"1393 -128 OFFCURVE",
"1408 -143 OFFCURVE",
"1408 -160 CURVE SMOOTH"
);
},
{
closed = 1;
nodes = (
"1152 792 OFFCURVE",
"1116 702 OFFCURVE",
"1064 640 CURVE SMOOTH",
"1011 578 OFFCURVE",
"944 522 OFFCURVE",
"880 474 CURVE SMOOTH",
"816 426 OFFCURVE",
"761 381 OFFCURVE",
"729 321 CURVE SMOOTH",
"712 290 OFFCURVE",
"704 258 OFFCURVE",
"704 224 CURVE SMOOTH",
"704 160 OFFCURVE",
"726 85 OFFCURVE",
"771 0 CURVE",
"767 1 LINE",
"768 0 LINE",
"648 55 OFFCURVE",
"561 106 OFFCURVE",
"470 183 CURVE SMOOTH",
"378 260 OFFCURVE",
"320 341 OFFCURVE",
"284 456 CURVE SMOOTH",
"265 513 OFFCURVE",
"256 575 OFFCURVE",
"256 640 CURVE SMOOTH",
"256 744 OFFCURVE",
"292 835 OFFCURVE",
"345 897 CURVE SMOOTH",
"397 959 OFFCURVE",
"464 1014 OFFCURVE",
"528 1062 CURVE SMOOTH",
"592 1110 OFFCURVE",
"647 1155 OFFCURVE",
"680 1216 CURVE SMOOTH",
"696 1246 OFFCURVE",
"704 1278 OFFCURVE",
"704 1312 CURVE SMOOTH",
"704 1375 OFFCURVE",
"682 1449 OFFCURVE",
"638 1536 CURVE",
"641 1535 LINE",
"640 1536 LINE",
"760 1481 OFFCURVE",
"847 1430 OFFCURVE",
"939 1353 CURVE SMOOTH",
"1030 1276 OFFCURVE",
"1088 1195 OFFCURVE",
"1125 1080 CURVE SMOOTH",
"1143 1023 OFFCURVE",
"1152 961 OFFCURVE",
"1152 896 CURVE SMOOTH"
);
}
);
width = 1408;
}
);
unicode = 1F525;
},
{
glyphname = hospital;
layers = (
{
layerId = "4350166A-1D95-43E0-8855-54890F69E6B2";
name = Regular;
paths = (
{
closed = 1;
nodes = (
"384 160 LINE SMOOTH",
"384 143 OFFCURVE",
"369 128 OFFCURVE",
"352 128 CURVE SMOOTH",
"288 128 LINE SMOOTH",
"271 128 OFFCURVE",
"256 143 OFFCURVE",
"256 160 CURVE SMOOTH",
"256 224 LINE SMOOTH",
"256 241 OFFCURVE",
"271 256 OFFCURVE",
"288 256 CURVE SMOOTH",
"352 256 LINE SMOOTH",
"369 256 OFFCURVE",
"384 241 OFFCURVE",
"384 224 CURVE SMOOTH"
);
},
{
closed = 1;
nodes = (
"384 416 LINE SMOOTH",
"384 399 OFFCURVE",
"369 384 OFFCURVE",
"352 384 CURVE SMOOTH",
"288 384 LINE SMOOTH",
"271 384 OFFCURVE",
"256 399 OFFCURVE",
"256 416 CURVE SMOOTH",
"256 480 LINE SMOOTH",
"256 497 OFFCURVE",
"271 512 OFFCURVE",
"288 512 CURVE SMOOTH",
"352 512 LINE SMOOTH",
"369 512 OFFCURVE",
"384 497 OFFCURVE",
"384 480 CURVE SMOOTH"
);
},
{
closed = 1;
nodes = (
"640 416 LINE SMOOTH",
"640 399 OFFCURVE",
"625 384 OFFCURVE",
"608 384 CURVE SMOOTH",
"544 384 LINE SMOOTH",
"527 384 OFFCURVE",
"512 399 OFFCURVE",
"512 416 CURVE SMOOTH",
"512 480 LINE SMOOTH",
"512 497 OFFCURVE",
"527 512 OFFCURVE",
"544 512 CURVE SMOOTH",
"608 512 LINE SMOOTH",
"625 512 OFFCURVE",
"640 497 OFFCURVE",
"640 480 CURVE SMOOTH"
);
},
{
closed = 1;
nodes = (
"384 672 LINE SMOOTH",
"384 655 OFFCURVE",
"369 640 OFFCURVE",
"352 640 CURVE SMOOTH",
"288 640 LINE SMOOTH",
"271 640 OFFCURVE",
"256 655 OFFCURVE",
"256 672 CURVE SMOOTH",
"256 736 LINE SMOOTH",
"256 753 OFFCURVE",
"271 768 OFFCURVE",
"288 768 CURVE SMOOTH",
"352 768 LINE SMOOTH",
"369 768 OFFCURVE",
"384 753 OFFCURVE",
"384 736 CURVE SMOOTH"
);
},
{
closed = 1;
nodes = (
"1152 160 LINE SMOOTH",
"1152 143 OFFCURVE",
"1137 128 OFFCURVE",
"1120 128 CURVE SMOOTH",
"1056 128 LINE SMOOTH",
"1039 128 OFFCURVE",
"1024 143 OFFCURVE",
"1024 160 CURVE SMOOTH",
"1024 224 LINE SMOOTH",
"1024 241 OFFCURVE",
"1039 256 OFFCURVE",
"1056 256 CURVE SMOOTH",
"1120 256 LINE SMOOTH",
"1137 256 OFFCURVE",
"1152 241 OFFCURVE",
"1152 224 CURVE SMOOTH"
);
},
{
closed = 1;
nodes = (
"896 416 LINE SMOOTH",
"896 399 OFFCURVE",
"881 384 OFFCURVE",
"864 384 CURVE SMOOTH",
"800 384 LINE SMOOTH",
"783 384 OFFCURVE",
"768 399 OFFCURVE",
"768 416 CURVE SMOOTH",
"768 480 LINE SMOOTH",
"768 497 OFFCURVE",
"783 512 OFFCURVE",
"800 512 CURVE SMOOTH",
"864 512 LINE SMOOTH",
"881 512 OFFCURVE",
"896 497 OFFCURVE",
"896 480 CURVE SMOOTH"
);
},
{
closed = 1;
nodes = (
"640 672 LINE SMOOTH",
"640 655 OFFCURVE",
"625 640 OFFCURVE",
"608 640 CURVE SMOOTH",
"544 640 LINE SMOOTH",
"527 640 OFFCURVE",
"512 655 OFFCURVE",
"512 672 CURVE SMOOTH",
"512 736 LINE SMOOTH",
"512 753 OFFCURVE",
"527 768 OFFCURVE",
"544 768 CURVE SMOOTH",
"608 768 LINE SMOOTH",
"625 768 OFFCURVE",
"640 753 OFFCURVE",
"640 736 CURVE SMOOTH"
);
},
{
closed = 1;
nodes = (
"1152 416 LINE SMOOTH",
"1152 399 OFFCURVE",
"1137 384 OFFCURVE",
"1120 384 CURVE SMOOTH",
"1056 384 LINE SMOOTH",
"1039 384 OFFCURVE",
"1024 399 OFFCURVE",
"1024 416 CURVE SMOOTH",
"1024 480 LINE SMOOTH",
"1024 497 OFFCURVE",
"1039 512 OFFCURVE",
"1056 512 CURVE SMOOTH",
"1120 512 LINE SMOOTH",
"1137 512 OFFCURVE",
"1152 497 OFFCURVE",
"1152 480 CURVE SMOOTH"
);
},
{
closed = 1;
nodes = (
"896 672 LINE SMOOTH",
"896 655 OFFCURVE",
"881 640 OFFCURVE",
"864 640 CURVE SMOOTH",
"800 640 LINE SMOOTH",
"783 640 OFFCURVE",
"768 655 OFFCURVE",
"768 672 CURVE SMOOTH",
"768 736 LINE SMOOTH",
"768 753 OFFCURVE",
"783 768 OFFCURVE",
"800 768 CURVE SMOOTH",
"864 768 LINE SMOOTH",
"881 768 OFFCURVE",
"896 753 OFFCURVE",
"896 736 CURVE SMOOTH"
);
},
{
closed = 1;
nodes = (
"1152 672 LINE SMOOTH",
"1152 655 OFFCURVE",
"1137 640 OFFCURVE",
"1120 640 CURVE SMOOTH",
"1056 640 LINE SMOOTH",
"1039 640 OFFCURVE",
"1024 655 OFFCURVE",
"1024 672 CURVE SMOOTH",
"1024 736 LINE SMOOTH",
"1024 753 OFFCURVE",
"1039 768 OFFCURVE",
"1056 768 CURVE SMOOTH",
"1120 768 LINE SMOOTH",
"1137 768 OFFCURVE",
"1152 753 OFFCURVE",
"1152 736 CURVE SMOOTH"
);
},
{
closed = 1;
nodes = (
"896 -128 LINE",
"1280 -128 LINE",
"1280 1024 LINE",
"1024 1024 LINE",
"1024 992 LINE SMOOTH",
"1024 939 OFFCURVE",
"981 896 OFFCURVE",
"928 896 CURVE SMOOTH",
"480 896 LINE SMOOTH",
"427 896 OFFCURVE",
"384 939 OFFCURVE",
"384 992 CURVE SMOOTH",
"384 1024 LINE",
"128 1024 LINE",
"128 -128 LINE",
"512 -128 LINE",
"512 96 LINE SMOOTH",
"512 113 OFFCURVE",
"527 128 OFFCURVE",
"544 128 CURVE SMOOTH",
"864 128 LINE SMOOTH",
"881 128 OFFCURVE",
"896 113 OFFCURVE",
"896 96 CURVE SMOOTH"
);
},
{
closed = 1;
nodes = (
"896 1376 LINE SMOOTH",
"896 1393 OFFCURVE",
"881 1408 OFFCURVE",
"864 1408 CURVE SMOOTH",
"800 1408 LINE SMOOTH",
"783 1408 OFFCURVE",
"768 1393 OFFCURVE",
"768 1376 CURVE SMOOTH",
"768 1280 LINE",
"640 1280 LINE",
"640 1376 LINE SMOOTH",
"640 1393 OFFCURVE",
"625 1408 OFFCURVE",
"608 1408 CURVE SMOOTH",
"544 1408 LINE SMOOTH",
"527 1408 OFFCURVE",
"512 1393 OFFCURVE",
"512 1376 CURVE SMOOTH",
"512 1056 LINE SMOOTH",
"512 1039 OFFCURVE",
"527 1024 OFFCURVE",
"544 1024 CURVE SMOOTH",
"608 1024 LINE SMOOTH",
"625 1024 OFFCURVE",
"640 1039 OFFCURVE",
"640 1056 CURVE SMOOTH",
"640 1152 LINE",
"768 1152 LINE",
"768 1056 LINE SMOOTH",
"768 1039 OFFCURVE",
"783 1024 OFFCURVE",
"800 1024 CURVE SMOOTH",
"864 1024 LINE SMOOTH",
"881 1024 OFFCURVE",
"896 1039 OFFCURVE",
"896 1056 CURVE SMOOTH"
);
},
{
closed = 1;
nodes = (
"1408 -192 LINE SMOOTH",
"1408 -227 OFFCURVE",
"1379 -256 OFFCURVE",
"1344 -256 CURVE SMOOTH",
"64 -256 LINE SMOOTH",
"29 -256 OFFCURVE",
"0 -227 OFFCURVE",
"0 -192 CURVE SMOOTH",
"0 1088 LINE SMOOTH",
"0 1123 OFFCURVE",
"29 1152 OFFCURVE",
"64 1152 CURVE SMOOTH",
"384 1152 LINE",
"384 1440 LINE SMOOTH",
"384 1493 OFFCURVE",
"427 1536 OFFCURVE",
"480 1536 CURVE SMOOTH",
"928 1536 LINE SMOOTH",
"981 1536 OFFCURVE",
"1024 1493 OFFCURVE",
"1024 1440 CURVE SMOOTH",
"1024 1152 LINE",
"1344 1152 LINE SMOOTH",
"1379 1152 OFFCURVE",
"1408 1123 OFFCURVE",
"1408 1088 CURVE SMOOTH"
);
}
);
width = 1408;
}
);
unicode = 1F3E5;
},
{
glyphname = key;
layers = (
{
layerId = "4350166A-1D95-43E0-8855-54890F69E6B2";
name = Regular;
paths = (
{
closed = 1;
nodes = (
"813 925 OFFCURVE",
"832 971 OFFCURVE",
"832 1024 CURVE SMOOTH",
"832 1131 OFFCURVE",
"747 1216 OFFCURVE",
"640 1216 CURVE SMOOTH",
"533 1216 OFFCURVE",
"448 1131 OFFCURVE",
"448 1024 CURVE SMOOTH",
"448 996 OFFCURVE",
"454 968 OFFCURVE",
"467 941 CURVE",
"440 954 OFFCURVE",
"412 960 OFFCURVE",
"384 960 CURVE SMOOTH",
"277 960 OFFCURVE",
"192 875 OFFCURVE",
"192 768 CURVE SMOOTH",
"192 661 OFFCURVE",
"277 576 OFFCURVE",
"384 576 CURVE SMOOTH",
"491 576 OFFCURVE",
"576 661 OFFCURVE",
"576 768 CURVE SMOOTH",
"576 796 OFFCURVE",
"570 824 OFFCURVE",
"557 851 CURVE",
"584 838 OFFCURVE",
"612 832 OFFCURVE",
"640 832 CURVE SMOOTH",
"693 832 OFFCURVE",
"739 851 OFFCURVE",
"776 888 CURVE SMOOTH"
);
},
{
closed = 1;
nodes = (
"1683 297 OFFCURVE",
"1591 205 OFFCURVE",
"1568 205 CURVE SMOOTH",
"1556 205 OFFCURVE",
"1526 231 OFFCURVE",
"1503 254 CURVE SMOOTH",
"1492 265 OFFCURVE",
"1479 279 OFFCURVE",
"1465 294 CURVE SMOOTH",
"1450 309 OFFCURVE",
"1442 318 OFFCURVE",
"1440 320 CURVE",
"1344 224 LINE",
"1564 4 LINE SMOOTH",
"1583 -15 OFFCURVE",
"1592 -37 OFFCURVE",
"1592 -64 CURVE SMOOTH",
"1592 -120 OFFCURVE",
"1528 -184 OFFCURVE",
"1472 -184 CURVE SMOOTH",
"1445 -184 OFFCURVE",
"1423 -175 OFFCURVE",
"1404 -156 CURVE SMOOTH",
"733 515 LINE",
"616 428 OFFCURVE",
"494 384 OFFCURVE",
"368 384 CURVE SMOOTH",
"151 384 OFFCURVE",
"0 535 OFFCURVE",
"0 752 CURVE SMOOTH",
"0 965 OFFCURVE",
"139 1186 OFFCURVE",
"343 1313 CURVE SMOOTH",
"445 1376 OFFCURVE",
"549 1408 OFFCURVE",
"656 1408 CURVE SMOOTH",
"873 1408 OFFCURVE",
"1024 1257 OFFCURVE",
"1024 1040 CURVE SMOOTH",
"1024 914 OFFCURVE",
"980 792 OFFCURVE",
"893 675 CURVE",
"1248 320 LINE",
"1344 416 LINE",
"1342 418 OFFCURVE",
"1333 426 OFFCURVE",
"1318 441 CURVE",
"1287 469 OFFCURVE",
"1266 490 OFFCURVE",
"1245 516 CURVE SMOOTH",
"1234 529 OFFCURVE",
"1229 538 OFFCURVE",
"1229 544 CURVE SMOOTH",
"1229 567 OFFCURVE",
"1321 659 OFFCURVE",
"1344 659 CURVE SMOOTH",
"1353 659 OFFCURVE",
"1360 656 OFFCURVE",
"1367 649 CURVE SMOOTH",
"1371 645 OFFCURVE",
"1386 630 OFFCURVE",
"1413 605 CURVE SMOOTH",
"1466 553 OFFCURVE",
"1522 499 OFFCURVE",
"1582 439 CURVE SMOOTH",
"1611 409 OFFCURVE",
"1636 383 OFFCURVE",
"1655 361 CURVE SMOOTH",
"1674 339 OFFCURVE",
"1683 325 OFFCURVE",
"1683 320 CURVE SMOOTH"
);
}
);
width = 1792;
}
);
unicode = 1F511;
},
{
glyphname = lemon;
layers = (
{
layerId = "4350166A-1D95-43E0-8855-54890F69E6B2";
name = Regular;
paths = (
{
closed = 1;
nodes = (
"1407 769 OFFCURVE",
"1397 884 OFFCURVE",
"1382 920 CURVE SMOOTH",
"1366 960 OFFCURVE",
"1361 971 OFFCURVE",
"1356 1001 CURVE SMOOTH",
"1353 1016 OFFCURVE",
"1352 1032 OFFCURVE",
"1352 1049 CURVE SMOOTH",
"1352 1064 OFFCURVE",
"1354 1087 OFFCURVE",
"1357 1118 CURVE SMOOTH",
"1360 1148 OFFCURVE",
"1362 1170 OFFCURVE",
"1362 1185 CURVE SMOOTH",
"1362 1210 OFFCURVE",
"1359 1228 OFFCURVE",
"1352 1240 CURVE",
"1349 1241 OFFCURVE",
"1345 1241 OFFCURVE",
"1339 1241 CURVE SMOOTH",
"1326 1241 OFFCURVE",
"1307 1240 OFFCURVE",
"1281 1237 CURVE SMOOTH",
"1255 1234 OFFCURVE",
"1235 1232 OFFCURVE",
"1222 1232 CURVE SMOOTH",
"1182 1232 OFFCURVE",
"1123 1240 OFFCURVE",
"1046 1256 CURVE SMOOTH",
"969 1272 OFFCURVE",
"910 1280 OFFCURVE",
"871 1280 CURVE SMOOTH",
"814 1280 OFFCURVE",
"736 1261 OFFCURVE",
"692 1245 CURVE SMOOTH",
"669 1237 OFFCURVE",
"639 1226 OFFCURVE",
"602 1211 CURVE SMOOTH",
"419 1139 OFFCURVE",
"325 1074 OFFCURVE",
"241 919 CURVE SMOOTH",
"156 763 OFFCURVE",
"128 606 OFFCURVE",
"128 434 CURVE SMOOTH",
"128 407 OFFCURVE",
"132 367 OFFCURVE",
"141 314 CURVE SMOOTH",
"149 261 OFFCURVE",
"153 220 OFFCURVE",
"153 193 CURVE SMOOTH",
"153 178 OFFCURVE",
"149 156 OFFCURVE",
"142 127 CURVE SMOOTH",
"135 98 OFFCURVE",
"131 76 OFFCURVE",
"131 61 CURVE SMOOTH",
"131 32 OFFCURVE",
"148 10 OFFCURVE",
"177 10 CURVE SMOOTH",
"193 10 OFFCURVE",
"217 14 OFFCURVE",
"250 21 CURVE SMOOTH",
"282 28 OFFCURVE",
"306 32 OFFCURVE",
"323 32 CURVE SMOOTH",
"361 32 OFFCURVE",
"418 27 OFFCURVE",
"493 17 CURVE SMOOTH",
"568 6 OFFCURVE",
"624 1 OFFCURVE",
"662 1 CURVE SMOOTH",
"903 1 OFFCURVE",
"1040 46 OFFCURVE",
"1182 190 CURVE SMOOTH",
"1324 333 OFFCURVE",
"1407 527 OFFCURVE",
"1407 710 CURVE SMOOTH"
);
},
{
closed = 1;
nodes = (
"1535 492 OFFCURVE",
"1437 264 OFFCURVE",
"1269 97 CURVE SMOOTH",
"1101 -71 OFFCURVE",
"931 -128 OFFCURVE",
"662 -128 CURVE SMOOTH",
"624 -128 OFFCURVE",
"567 -123 OFFCURVE",
"492 -113 CURVE SMOOTH",
"417 -104 OFFCURVE",
"360 -99 OFFCURVE",
"323 -99 CURVE SMOOTH",
"307 -99 OFFCURVE",
"283 -104 OFFCURVE",
"251 -113 CURVE SMOOTH",
"218 -123 OFFCURVE",
"194 -128 OFFCURVE",
"177 -128 CURVE SMOOTH",
"80 -128 OFFCURVE",
"3 -41 OFFCURVE",
"3 56 CURVE SMOOTH",
"3 72 OFFCURVE",
"7 95 OFFCURVE",
"14 124 CURVE SMOOTH",
"21 153 OFFCURVE",
"25 176 OFFCURVE",
"25 191 CURVE SMOOTH",
"25 218 OFFCURVE",
"21 258 OFFCURVE",
"13 312 CURVE SMOOTH",
"4 365 OFFCURVE",
"0 406 OFFCURVE",
"0 433 CURVE SMOOTH",
"0 581 OFFCURVE",
"24 723 OFFCURVE",
"73 860 CURVE SMOOTH",
"121 997 OFFCURVE",
"208 1123 OFFCURVE",
"323 1210 CURVE SMOOTH",
"427 1289 OFFCURVE",
"708 1408 OFFCURVE",
"871 1408 CURVE SMOOTH",
"911 1408 OFFCURVE",
"970 1400 OFFCURVE",
"1047 1384 CURVE SMOOTH",
"1124 1368 OFFCURVE",
"1181 1360 OFFCURVE",
"1220 1360 CURVE SMOOTH",
"1233 1360 OFFCURVE",
"1252 1362 OFFCURVE",
"1277 1365 CURVE SMOOTH",
"1302 1368 OFFCURVE",
"1322 1370 OFFCURVE",
"1335 1370 CURVE SMOOTH",
"1443 1370 OFFCURVE",
"1490 1297 OFFCURVE",
"1490 1185 CURVE SMOOTH",
"1490 1170 OFFCURVE",
"1488 1147 OFFCURVE",
"1485 1117 CURVE SMOOTH",
"1482 1087 OFFCURVE",
"1480 1064 OFFCURVE",
"1480 1049 CURVE SMOOTH",
"1480 1036 OFFCURVE",
"1481 1025 OFFCURVE",
"1484 1014 CURVE SMOOTH",
"1487 1002 OFFCURVE",
"1489 999 OFFCURVE",
"1495 984 CURVE SMOOTH",
"1498 977 OFFCURVE",
"1500 971 OFFCURVE",
"1501 967 CURVE",
"1522 914 OFFCURVE",
"1535 789 OFFCURVE",
"1535 712 CURVE SMOOTH"
);
}
);
width = 1536;
}
);
unicode = 1F34B;
},
{
glyphname = lock;
layers = (
{
layerId = "4350166A-1D95-43E0-8855-54890F69E6B2";
name = Regular;
paths = (
{
closed = 1;
nodes = (
"704 583 OFFCURVE",
"647 640 OFFCURVE",
"576 640 CURVE SMOOTH",
"505 640 OFFCURVE",
"448 583 OFFCURVE",
"448 512 CURVE SMOOTH",
"448 463 OFFCURVE",
"475 421 OFFCURVE",
"518 398 CURVE",
"449 169 LINE",
"442 149 OFFCURVE",
"459 128 OFFCURVE",
"480 128 CURVE SMOOTH",
"672 128 LINE SMOOTH",
"693 128 OFFCURVE",
"710 149 OFFCURVE",
"703 169 CURVE",
"634 398 LINE",
"677 421 OFFCURVE",
"704 463 OFFCURVE",
"704 512 CURVE SMOOTH"
);
},
{
closed = 1;
nodes = (
"320 768 LINE",
"832 768 LINE",
"832 960 LINE SMOOTH",
"832 1101 OFFCURVE",
"717 1216 OFFCURVE",
"576 1216 CURVE SMOOTH",
"435 1216 OFFCURVE",
"320 1101 OFFCURVE",
"320 960 CURVE SMOOTH"
);
},
{
closed = 1;
nodes = (
"1152 96 LINE SMOOTH",
"1152 43 OFFCURVE",
"1109 0 OFFCURVE",
"1056 0 CURVE SMOOTH",
"96 0 LINE SMOOTH",
"43 0 OFFCURVE",
"0 43 OFFCURVE",
"0 96 CURVE SMOOTH",
"0 672 LINE SMOOTH",
"0 725 OFFCURVE",
"43 768 OFFCURVE",
"96 768 CURVE SMOOTH",
"128 768 LINE",
"128 960 LINE SMOOTH",
"128 1205 OFFCURVE",
"331 1408 OFFCURVE",
"576 1408 CURVE SMOOTH",
"821 1408 OFFCURVE",
"1024 1205 OFFCURVE",
"1024 960 CURVE SMOOTH",
"1024 768 LINE",
"1056 768 LINE SMOOTH",
"1109 768 OFFCURVE",
"1152 725 OFFCURVE",
"1152 672 CURVE SMOOTH"
);
}
);
width = 1152;
}
);
unicode = 1F512;
},
{
glyphname = pencil;
layers = (
{
layerId = "4350166A-1D95-43E0-8855-54890F69E6B2";
name = Regular;
paths = (
{
closed = 1;
nodes = (
"363 0 LINE",
"454 91 LINE",
"219 326 LINE",
"128 235 LINE",
"128 128 LINE",
"256 128 LINE",
"256 0 LINE"
);
},
{
closed = 1;
nodes = (
"886 943 OFFCURVE",
"879 950 OFFCURVE",
"864 950 CURVE SMOOTH",
"857 950 OFFCURVE",
"852 948 OFFCURVE",
"847 943 CURVE SMOOTH",
"305 401 LINE SMOOTH",
"300 396 OFFCURVE",
"298 391 OFFCURVE",
"298 384 CURVE SMOOTH",
"298 369 OFFCURVE",
"305 362 OFFCURVE",
"320 362 CURVE SMOOTH",
"327 362 OFFCURVE",
"332 364 OFFCURVE",
"337 369 CURVE SMOOTH",
"879 911 LINE SMOOTH",
"884 916 OFFCURVE",
"886 921 OFFCURVE",
"886 928 CURVE SMOOTH"
);
},
{
closed = 1;
nodes = (
"832 1120 LINE",
"1248 704 LINE",
"416 -128 LINE",
"0 -128 LINE",
"0 288 LINE"
);
},
{
closed = 1;
nodes = (
"1515 989 OFFCURVE",
"1503 959 OFFCURVE",
"1478 934 CURVE SMOOTH",
"1312 768 LINE",
"896 1184 LINE",
"1062 1349 LINE SMOOTH",
"1086 1374 OFFCURVE",
"1116 1387 OFFCURVE",
"1152 1387 CURVE SMOOTH",
"1187 1387 OFFCURVE",
"1218 1374 OFFCURVE",
"1243 1349 CURVE SMOOTH",
"1478 1115 LINE SMOOTH",
"1503 1089 OFFCURVE",
"1515 1059 OFFCURVE",
"1515 1024 CURVE SMOOTH"
);
}
);
width = 1536;
}
);
unicode = 270F;
},
{
glyphname = pushpin;
layers = (
{
layerId = "4350166A-1D95-43E0-8855-54890F69E6B2";
name = Regular;
paths = (
{
closed = 1;
nodes = (
"480 1120 LINE SMOOTH",
"480 1139 OFFCURVE",
"467 1152 OFFCURVE",
"448 1152 CURVE SMOOTH",
"429 1152 OFFCURVE",
"416 1139 OFFCURVE",
"416 1120 CURVE SMOOTH",
"416 672 LINE SMOOTH",
"416 653 OFFCURVE",
"429 640 OFFCURVE",
"448 640 CURVE SMOOTH",
"467 640 OFFCURVE",
"480 653 OFFCURVE",
"480 672 CURVE SMOOTH"
);
},
{
closed = 1;
nodes = (
"1152 285 OFFCURVE",
"1123 256 OFFCURVE",
"1088 256 CURVE SMOOTH",
"659 256 LINE",
"608 -227 LINE",
"605 -243 OFFCURVE",
"593 -256 OFFCURVE",
"577 -256 CURVE SMOOTH",
"576 -256 LINE SMOOTH",
"558 -256 OFFCURVE",
"547 -247 OFFCURVE",
"544 -229 CURVE SMOOTH",
"468 256 LINE",
"64 256 LINE SMOOTH",
"29 256 OFFCURVE",
"0 285 OFFCURVE",
"0 320 CURVE SMOOTH",
"0 484 OFFCURVE",
"124 640 OFFCURVE",
"256 640 CURVE",
"256 1152 LINE",
"187 1152 OFFCURVE",
"128 1211 OFFCURVE",
"128 1280 CURVE SMOOTH",
"128 1349 OFFCURVE",
"187 1408 OFFCURVE",
"256 1408 CURVE SMOOTH",
"896 1408 LINE SMOOTH",
"965 1408 OFFCURVE",
"1024 1349 OFFCURVE",
"1024 1280 CURVE SMOOTH",
"1024 1211 OFFCURVE",
"965 1152 OFFCURVE",
"896 1152 CURVE",
"896 640 LINE",
"1028 640 OFFCURVE",
"1152 484 OFFCURVE",
"1152 320 CURVE SMOOTH"
);
}
);
width = 1152;
}
);
unicode = 1F4CC;
},
{
glyphname = trophy;
layers = (
{
layerId = "4350166A-1D95-43E0-8855-54890F69E6B2";
name = Regular;
paths = (
{
closed = 1;
nodes = (
"409 761 OFFCURVE",
"384 885 OFFCURVE",
"384 1024 CURVE",
"128 1024 LINE",
"128 928 LINE SMOOTH",
"128 824 OFFCURVE",
"270 692 OFFCURVE",
"458 653 CURVE"
);
},
{
closed = 1;
nodes = (
"1536 1024 LINE",
"1280 1024 LINE",
"1280 885 OFFCURVE",
"1255 761 OFFCURVE",
"1206 653 CURVE",
"1394 692 OFFCURVE",
"1536 824 OFFCURVE",
"1536 928 CURVE SMOOTH"
);
},
{
closed = 1;
nodes = (
"1664 928 LINE SMOOTH",
"1664 833 OFFCURVE",
"1605 732 OFFCURVE",
"1511 655 CURVE SMOOTH",
"1417 578 OFFCURVE",
"1273 520 OFFCURVE",
"1122 513 CURVE",
"1094 477 OFFCURVE",
"1062 445 OFFCURVE",
"1027 418 CURVE",
"976 373 OFFCURVE",
"960 324 OFFCURVE",
"960 256 CURVE SMOOTH",
"960 184 OFFCURVE",
"999 128 OFFCURVE",
"1088 128 CURVE SMOOTH",
"1188 128 OFFCURVE",
"1280 60 OFFCURVE",
"1280 -32 CURVE SMOOTH",
"1280 -96 LINE SMOOTH",
"1280 -115 OFFCURVE",
"1267 -128 OFFCURVE",
"1248 -128 CURVE SMOOTH",
"416 -128 LINE SMOOTH",
"397 -128 OFFCURVE",
"384 -115 OFFCURVE",
"384 -96 CURVE SMOOTH",
"384 -32 LINE SMOOTH",
"384 60 OFFCURVE",
"476 128 OFFCURVE",
"576 128 CURVE SMOOTH",
"665 128 OFFCURVE",
"704 184 OFFCURVE",
"704 256 CURVE SMOOTH",
"704 324 OFFCURVE",
"688 373 OFFCURVE",
"637 418 CURVE",
"602 445 OFFCURVE",
"570 477 OFFCURVE",
"542 513 CURVE",
"391 520 OFFCURVE",
"248 578 OFFCURVE",
"154 655 CURVE SMOOTH",
"60 732 OFFCURVE",
"0 833 OFFCURVE",
"0 928 CURVE SMOOTH",
"0 1056 LINE SMOOTH",
"0 1109 OFFCURVE",
"43 1152 OFFCURVE",
"96 1152 CURVE SMOOTH",
"384 1152 LINE",
"384 1248 LINE SMOOTH",
"384 1336 OFFCURVE",
"456 1408 OFFCURVE",
"544 1408 CURVE SMOOTH",
"1120 1408 LINE SMOOTH",
"1208 1408 OFFCURVE",
"1280 1336 OFFCURVE",
"1280 1248 CURVE SMOOTH",
"1280 1152 LINE",
"1568 1152 LINE SMOOTH",
"1621 1152 OFFCURVE",
"1664 1109 OFFCURVE",
"1664 1056 CURVE SMOOTH"
);
}
);
width = 1664;
}
);
unicode = 1F3C6;
},
{
glyphname = umbrella;
layers = (
{
layerId = "4350166A-1D95-43E0-8855-54890F69E6B2";
name = Regular;
paths = (
{
closed = 1;
nodes = (
"896 128 LINE SMOOTH",
"896 -11 OFFCURVE",
"779 -128 OFFCURVE",
"640 -128 CURVE SMOOTH",
"501 -128 OFFCURVE",
"384 -11 OFFCURVE",
"384 128 CURVE SMOOTH",
"384 163 OFFCURVE",
"413 192 OFFCURVE",
"448 192 CURVE SMOOTH",
"483 192 OFFCURVE",
"512 163 OFFCURVE",
"512 128 CURVE SMOOTH",
"512 61 OFFCURVE",
"573 0 OFFCURVE",
"640 0 CURVE SMOOTH",
"707 0 OFFCURVE",
"768 61 OFFCURVE",
"768 128 CURVE SMOOTH",
"768 708 LINE",
"790 715 OFFCURVE",
"811 719 OFFCURVE",
"832 719 CURVE SMOOTH",
"853 719 OFFCURVE",
"874 715 OFFCURVE",
"896 708 CURVE"
);
},
{
closed = 1;
nodes = (
"1664 664 OFFCURVE",
"1649 649 OFFCURVE",
"1632 649 CURVE SMOOTH",
"1625 649 OFFCURVE",
"1617 652 OFFCURVE",
"1609 659 CURVE SMOOTH",
"1544 720 OFFCURVE",
"1491 751 OFFCURVE",
"1414 751 CURVE SMOOTH",
"1323 751 OFFCURVE",
"1240 697 OFFCURVE",
"1183 617 CURVE SMOOTH",
"1178 610 OFFCURVE",
"1173 601 OFFCURVE",
"1166 589 CURVE SMOOTH",
"1152 565 OFFCURVE",
"1146 548 OFFCURVE",
"1123 548 CURVE SMOOTH",
"1099 548 OFFCURVE",
"1094 565 OFFCURVE",
"1080 589 CURVE SMOOTH",
"1073 601 OFFCURVE",
"1067 610 OFFCURVE",
"1062 617 CURVE SMOOTH",
"1005 697 OFFCURVE",
"923 751 OFFCURVE",
"832 751 CURVE SMOOTH",
"741 751 OFFCURVE",
"659 697 OFFCURVE",
"602 617 CURVE SMOOTH",
"597 610 OFFCURVE",
"592 601 OFFCURVE",
"585 589 CURVE SMOOTH",
"571 565 OFFCURVE",
"565 548 OFFCURVE",
"541 548 CURVE SMOOTH",
"518 548 OFFCURVE",
"513 565 OFFCURVE",
"499 589 CURVE SMOOTH",
"492 601 OFFCURVE",
"486 610 OFFCURVE",
"481 617 CURVE SMOOTH",
"424 697 OFFCURVE",
"341 751 OFFCURVE",
"250 751 CURVE SMOOTH",
"173 751 OFFCURVE",
"120 720 OFFCURVE",
"55 659 CURVE SMOOTH",
"47 652 OFFCURVE",
"39 649 OFFCURVE",
"32 649 CURVE SMOOTH",
"15 649 OFFCURVE",
"0 664 OFFCURVE",
"0 681 CURVE SMOOTH",
"0 684 OFFCURVE",
"0 687 OFFCURVE",
"1 688 CURVE",
"61 932 OFFCURVE",
"244 1121 OFFCURVE",
"472 1212 CURVE SMOOTH",
"585 1257 OFFCURVE",
"705 1280 OFFCURVE",
"832 1280 CURVE SMOOTH",
"1019 1280 OFFCURVE",
"1204 1225 OFFCURVE",
"1353 1127 CURVE SMOOTH",
"1502 1029 OFFCURVE",
"1619 872 OFFCURVE",
"1663 688 CURVE",
"1664 687 OFFCURVE",
"1664 684 OFFCURVE",
"1664 681 CURVE SMOOTH"
);
},
{
closed = 1;
nodes = (
"896 1310 LINE",
"868 1311 OFFCURVE",
"847 1312 OFFCURVE",
"832 1312 CURVE SMOOTH",
"817 1312 OFFCURVE",
"796 1311 OFFCURVE",
"768 1310 CURVE",
"768 1408 LINE SMOOTH",
"768 1443 OFFCURVE",
"797 1472 OFFCURVE",
"832 1472 CURVE SMOOTH",
"867 1472 OFFCURVE",
"896 1443 OFFCURVE",
"896 1408 CURVE SMOOTH"
);
}
);
width = 1664;
}
);
unicode = 2602;
},
{
glyphname = wrench;
layers = (
{
layerId = "4350166A-1D95-43E0-8855-54890F69E6B2";
name = Regular;
paths = (
{
closed = 1;
nodes = (
"378 32 OFFCURVE",
"384 47 OFFCURVE",
"384 64 CURVE SMOOTH",
"384 99 OFFCURVE",
"355 128 OFFCURVE",
"320 128 CURVE SMOOTH",
"285 128 OFFCURVE",
"256 99 OFFCURVE",
"256 64 CURVE SMOOTH",
"256 29 OFFCURVE",
"285 0 OFFCURVE",
"320 0 CURVE SMOOTH",
"337 0 OFFCURVE",
"352 6 OFFCURVE",
"365 19 CURVE SMOOTH"
);
},
{
closed = 1;
nodes = (
"346 -198 LINE SMOOTH",
"321 -223 OFFCURVE",
"291 -235 OFFCURVE",
"256 -235 CURVE SMOOTH",
"221 -235 OFFCURVE",
"191 -223 OFFCURVE",
"165 -198 CURVE SMOOTH",
"59 -90 LINE SMOOTH",
"34 -66 OFFCURVE",
"21 -36 OFFCURVE",
"21 0 CURVE SMOOTH",
"21 35 OFFCURVE",
"34 66 OFFCURVE",
"59 91 CURVE SMOOTH",
"740 772 LINE",
"792 641 OFFCURVE",
"897 536 OFFCURVE",
"1028 484 CURVE"
);
},
{
closed = 1;
nodes = (
"1662 893 OFFCURVE",
"1654 858 OFFCURVE",
"1639 813 CURVE SMOOTH",
"1576 634 OFFCURVE",
"1404 512 OFFCURVE",
"1216 512 CURVE SMOOTH",
"969 512 OFFCURVE",
"768 713 OFFCURVE",
"768 960 CURVE SMOOTH",
"768 1207 OFFCURVE",
"969 1408 OFFCURVE",
"1216 1408 CURVE SMOOTH",
"1293 1408 OFFCURVE",
"1386 1385 OFFCURVE",
"1445 1345 CURVE SMOOTH",
"1456 1338 OFFCURVE",
"1461 1328 OFFCURVE",
"1461 1317 CURVE SMOOTH",
"1461 1306 OFFCURVE",
"1456 1296 OFFCURVE",
"1445 1289 CURVE",
"1152 1120 LINE",
"1152 896 LINE",
"1345 789 LINE",
"1348 791 OFFCURVE",
"1375 807 OFFCURVE",
"1424 838 CURVE SMOOTH",
"1473 868 OFFCURVE",
"1519 895 OFFCURVE",
"1560 919 CURVE SMOOTH",
"1601 942 OFFCURVE",
"1624 954 OFFCURVE",
"1630 954 CURVE SMOOTH",
"1650 954 OFFCURVE",
"1662 939 OFFCURVE",
"1662 919 CURVE SMOOTH"
);
}
);
width = 1664;
}
);
unicode = 1F527;
},
{
glyphname = angle_down;
layers = (
{
layerId = "4350166A-1D95-43E0-8855-54890F69E6B2";
name = Regular;
paths = (
{
closed = 1;
nodes = (
"1065 823 LINE SMOOTH",
"1072 816 OFFCURVE",
"1075 809 OFFCURVE",
"1075 800 CURVE SMOOTH",
"1075 791 OFFCURVE",
"1072 784 OFFCURVE",
"1065 777 CURVE SMOOTH",
"599 311 LINE SMOOTH",
"592 304 OFFCURVE",
"585 301 OFFCURVE",
"576 301 CURVE SMOOTH",
"567 301 OFFCURVE",
"560 304 OFFCURVE",
"553 311 CURVE SMOOTH",
"87 777 LINE SMOOTH",
"80 784 OFFCURVE",
"77 791 OFFCURVE",
"77 800 CURVE SMOOTH",
"77 809 OFFCURVE",
"80 816 OFFCURVE",
"87 823 CURVE SMOOTH",
"137 873 LINE SMOOTH",
"144 880 OFFCURVE",
"151 883 OFFCURVE",
"160 883 CURVE SMOOTH",
"169 883 OFFCURVE",
"176 880 OFFCURVE",
"183 873 CURVE SMOOTH",
"576 480 LINE",
"969 873 LINE SMOOTH",
"976 880 OFFCURVE",
"983 883 OFFCURVE",
"992 883 CURVE SMOOTH",
"1001 883 OFFCURVE",
"1008 880 OFFCURVE",
"1015 873 CURVE SMOOTH"
);
}
);
width = 1152;
}
);
unicode = F107;
},
{
glyphname = angle_left;
layers = (
{
layerId = "4350166A-1D95-43E0-8855-54890F69E6B2";
name = Regular;
paths = (
{
closed = 1;
nodes = (
"617 1015 LINE SMOOTH",
"624 1008 OFFCURVE",
"627 1001 OFFCURVE",
"627 992 CURVE SMOOTH",
"627 983 OFFCURVE",
"624 976 OFFCURVE",
"617 969 CURVE SMOOTH",
"224 576 LINE",
"617 183 LINE SMOOTH",
"624 176 OFFCURVE",
"627 169 OFFCURVE",
"627 160 CURVE SMOOTH",
"627 151 OFFCURVE",
"624 144 OFFCURVE",
"617 137 CURVE SMOOTH",
"567 87 LINE SMOOTH",
"560 80 OFFCURVE",
"553 77 OFFCURVE",
"544 77 CURVE SMOOTH",
"535 77 OFFCURVE",
"528 80 OFFCURVE",
"521 87 CURVE SMOOTH",
"55 553 LINE SMOOTH",
"48 560 OFFCURVE",
"45 567 OFFCURVE",
"45 576 CURVE SMOOTH",
"45 585 OFFCURVE",
"48 592 OFFCURVE",
"55 599 CURVE SMOOTH",
"521 1065 LINE SMOOTH",
"528 1072 OFFCURVE",
"535 1075 OFFCURVE",
"544 1075 CURVE SMOOTH",
"553 1075 OFFCURVE",
"560 1072 OFFCURVE",
"567 1065 CURVE SMOOTH"
);
}
);
width = 640;
}
);
unicode = F104;
},
{
glyphname = angle_right;
layers = (
{
layerId = "4350166A-1D95-43E0-8855-54890F69E6B2";
name = Regular;
paths = (
{
closed = 1;
nodes = (
"585 599 LINE SMOOTH",
"592 592 OFFCURVE",
"595 585 OFFCURVE",
"595 576 CURVE SMOOTH",
"595 567 OFFCURVE",
"592 560 OFFCURVE",
"585 553 CURVE SMOOTH",
"119 87 LINE SMOOTH",
"112 80 OFFCURVE",
"105 77 OFFCURVE",
"96 77 CURVE SMOOTH",
"87 77 OFFCURVE",
"80 80 OFFCURVE",
"73 87 CURVE SMOOTH",
"23 137 LINE SMOOTH",
"16 144 OFFCURVE",
"13 151 OFFCURVE",
"13 160 CURVE SMOOTH",
"13 169 OFFCURVE",
"16 176 OFFCURVE",
"23 183 CURVE SMOOTH",
"416 576 LINE",
"23 969 LINE SMOOTH",
"16 976 OFFCURVE",
"13 983 OFFCURVE",
"13 992 CURVE SMOOTH",
"13 1001 OFFCURVE",
"16 1008 OFFCURVE",
"23 1015 CURVE SMOOTH",
"73 1065 LINE SMOOTH",
"80 1072 OFFCURVE",
"87 1075 OFFCURVE",
"96 1075 CURVE SMOOTH",
"105 1075 OFFCURVE",
"112 1072 OFFCURVE",
"119 1065 CURVE SMOOTH"
);
}
);
width = 640;
}
);
unicode = F105;
},
{
glyphname = angle_up;
layers = (
{
layerId = "4350166A-1D95-43E0-8855-54890F69E6B2";
name = Regular;
paths = (
{
closed = 1;
nodes = (
"1065 375 LINE SMOOTH",
"1072 368 OFFCURVE",
"1075 361 OFFCURVE",
"1075 352 CURVE SMOOTH",
"1075 343 OFFCURVE",
"1072 336 OFFCURVE",
"1065 329 CURVE SMOOTH",
"1015 279 LINE SMOOTH",
"1008 272 OFFCURVE",
"1001 269 OFFCURVE",
"992 269 CURVE SMOOTH",
"983 269 OFFCURVE",
"976 272 OFFCURVE",
"969 279 CURVE SMOOTH",
"576 672 LINE",
"183 279 LINE SMOOTH",
"176 272 OFFCURVE",
"169 269 OFFCURVE",
"160 269 CURVE SMOOTH",
"151 269 OFFCURVE",
"144 272 OFFCURVE",
"137 279 CURVE SMOOTH",
"87 329 LINE SMOOTH",
"80 336 OFFCURVE",
"77 343 OFFCURVE",
"77 352 CURVE SMOOTH",
"77 361 OFFCURVE",
"80 368 OFFCURVE",
"87 375 CURVE SMOOTH",
"553 841 LINE SMOOTH",
"560 848 OFFCURVE",
"567 851 OFFCURVE",
"576 851 CURVE SMOOTH",
"585 851 OFFCURVE",
"592 848 OFFCURVE",
"599 841 CURVE SMOOTH"
);
}
);
width = 1152;
}
);
unicode = F106;
},
{
glyphname = bar_chart;
layers = (
{
layerId = "4350166A-1D95-43E0-8855-54890F69E6B2";
name = Regular;
paths = (
{
closed = 1;
nodes = (
"512 512 LINE",
"512 128 LINE",
"256 128 LINE",
"256 512 LINE"
);
},
{
closed = 1;
nodes = (
"896 1024 LINE",
"896 128 LINE",
"640 128 LINE",
"640 1024 LINE"
);
},
{
closed = 1;
nodes = (
"1280 768 LINE",
"1280 128 LINE",
"1024 128 LINE",
"1024 768 LINE"
);
},
{
closed = 1;
nodes = (
"1664 1152 LINE",
"1664 128 LINE",
"1408 128 LINE",
"1408 1152 LINE"
);
},
{
closed = 1;
nodes = (
"1792 1248 LINE SMOOTH",
"1792 1265 OFFCURVE",
"1777 1280 OFFCURVE",
"1760 1280 CURVE SMOOTH",
"160 1280 LINE SMOOTH",
"143 1280 OFFCURVE",
"128 1265 OFFCURVE",
"128 1248 CURVE SMOOTH",
"128 32 LINE SMOOTH",
"128 15 OFFCURVE",
"143 0 OFFCURVE",
"160 0 CURVE SMOOTH",
"1760 0 LINE SMOOTH",
"1777 0 OFFCURVE",
"1792 15 OFFCURVE",
"1792 32 CURVE SMOOTH"
);
},
{
closed = 1;
nodes = (
"1920 32 LINE SMOOTH",
"1920 -56 OFFCURVE",
"1848 -128 OFFCURVE",
"1760 -128 CURVE SMOOTH",
"160 -128 LINE SMOOTH",
"72 -128 OFFCURVE",
"0 -56 OFFCURVE",
"0 32 CURVE SMOOTH",
"0 1248 LINE SMOOTH",
"0 1336 OFFCURVE",
"72 1408 OFFCURVE",
"160 1408 CURVE SMOOTH",
"1760 1408 LINE SMOOTH",
"1848 1408 OFFCURVE",
"1920 1336 OFFCURVE",
"1920 1248 CURVE SMOOTH"
);
}
);
width = 1920;
}
);
unicode = F080;
},
{
glyphname = bell_alt;
layers = (
{
layerId = "4350166A-1D95-43E0-8855-54890F69E6B2";
name = Regular;
paths = (
{
closed = 1;
nodes = (
"843 -176 OFFCURVE",
"848 -171 OFFCURVE",
"848 -160 CURVE SMOOTH",
"848 -149 OFFCURVE",
"843 -144 OFFCURVE",
"832 -144 CURVE SMOOTH",
"753 -144 OFFCURVE",
"688 -79 OFFCURVE",
"688 0 CURVE SMOOTH",
"688 11 OFFCURVE",
"683 16 OFFCURVE",
"672 16 CURVE SMOOTH",
"661 16 OFFCURVE",
"656 11 OFFCURVE",
"656 0 CURVE SMOOTH",
"656 -97 OFFCURVE",
"735 -176 OFFCURVE",
"832 -176 CURVE SMOOTH"
);
},
{
closed = 1;
nodes = (
"1664 59 OFFCURVE",
"1605 0 OFFCURVE",
"1536 0 CURVE SMOOTH",
"1088 0 LINE",
"1088 -141 OFFCURVE",
"973 -256 OFFCURVE",
"832 -256 CURVE SMOOTH",
"691 -256 OFFCURVE",
"576 -141 OFFCURVE",
"576 0 CURVE",
"128 0 LINE SMOOTH",
"59 0 OFFCURVE",
"0 59 OFFCURVE",
"0 128 CURVE",
"253 343 OFFCURVE",
"384 675 OFFCURVE",
"384 1024 CURVE SMOOTH",
"384 1244 OFFCURVE",
"520 1376 OFFCURVE",
"744 1403 CURVE",
"739 1415 OFFCURVE",
"736 1427 OFFCURVE",
"736 1440 CURVE SMOOTH",
"736 1493 OFFCURVE",
"779 1536 OFFCURVE",
"832 1536 CURVE SMOOTH",
"885 1536 OFFCURVE",
"928 1493 OFFCURVE",
"928 1440 CURVE SMOOTH",
"928 1427 OFFCURVE",
"925 1415 OFFCURVE",
"920 1403 CURVE",
"1144 1376 OFFCURVE",
"1280 1244 OFFCURVE",
"1280 1024 CURVE SMOOTH",
"1280 675 OFFCURVE",
"1411 343 OFFCURVE",
"1664 128 CURVE"
);
}
);
width = 1664;
}
);
unicode = F0F3;
},
{
glyphname = bookmark_empty;
layers = (
{
layerId = "4350166A-1D95-43E0-8855-54890F69E6B2";
name = Regular;
paths = (
{
closed = 1;
nodes = (
"1152 1280 LINE",
"128 1280 LINE",
"128 38 LINE",
"551 444 LINE",
"640 529 LINE",
"729 444 LINE",
"1152 38 LINE"
);
},
{
closed = 1;
nodes = (
"1164 1408 LINE SMOOTH",
"1195 1408 OFFCURVE",
"1235 1395 OFFCURVE",
"1261 1358 CURVE SMOOTH",
"1274 1339 OFFCURVE",
"1280 1319 OFFCURVE",
"1280 1296 CURVE SMOOTH",
"1280 7 LINE SMOOTH",
"1280 -38 OFFCURVE",
"1252 -79 OFFCURVE",
"1208 -96 CURVE SMOOTH",
"1195 -101 OFFCURVE",
"1181 -104 OFFCURVE",
"1164 -104 CURVE SMOOTH",
"1132 -104 OFFCURVE",
"1104 -93 OFFCURVE",
"1081 -72 CURVE SMOOTH",
"640 352 LINE",
"199 -72 LINE SMOOTH",
"175 -94 OFFCURVE",
"147 -105 OFFCURVE",
"116 -105 CURVE SMOOTH",
"85 -105 OFFCURVE",
"46 -92 OFFCURVE",
"20 -55 CURVE SMOOTH",
"7 -36 OFFCURVE",
"0 -16 OFFCURVE",
"0 7 CURVE SMOOTH",
"0 1296 LINE SMOOTH",
"0 1341 OFFCURVE",
"28 1382 OFFCURVE",
"72 1399 CURVE",
"86 1405 OFFCURVE",
"101 1408 OFFCURVE",
"116 1408 CURVE SMOOTH"
);
}
);
width = 1280;
}
);
unicode = F097;
},
{
glyphname = camera_retro;
layers = (
{
layerId = "4350166A-1D95-43E0-8855-54890F69E6B2";
name = Regular;
paths = (
{
closed = 1;
nodes = (
"925 687 OFFCURVE",
"928 695 OFFCURVE",
"928 704 CURVE SMOOTH",
"928 723 OFFCURVE",
"915 736 OFFCURVE",
"896 736 CURVE SMOOTH",
"808 736 OFFCURVE",
"736 664 OFFCURVE",
"736 576 CURVE SMOOTH",
"736 557 OFFCURVE",
"749 544 OFFCURVE",
"768 544 CURVE SMOOTH",
"787 544 OFFCURVE",
"800 557 OFFCURVE",
"800 576 CURVE SMOOTH",
"800 629 OFFCURVE",
"843 672 OFFCURVE",
"896 672 CURVE SMOOTH",
"905 672 OFFCURVE",
"913 675 OFFCURVE",
"919 681 CURVE SMOOTH"
);
},
{
closed = 1;
nodes = (
"1127 705 OFFCURVE",
"1152 645 OFFCURVE",
"1152 574 CURVE SMOOTH",
"1152 433 OFFCURVE",
"1037 318 OFFCURVE",
"896 318 CURVE SMOOTH",
"755 318 OFFCURVE",
"640 433 OFFCURVE",
"640 574 CURVE SMOOTH",
"640 715 OFFCURVE",
"755 830 OFFCURVE",
"896 830 CURVE SMOOTH",
"967 830 OFFCURVE",
"1027 805 OFFCURVE",
"1077 755 CURVE SMOOTH"
);
},
{
closed = 1;
nodes = (
"128 0 LINE",
"1664 0 LINE",
"1664 128 LINE",
"128 128 LINE"
);
},
{
closed = 1;
nodes = (
"1243 378 OFFCURVE",
"1280 468 OFFCURVE",
"1280 574 CURVE SMOOTH",
"1280 786 OFFCURVE",
"1108 958 OFFCURVE",
"896 958 CURVE SMOOTH",
"684 958 OFFCURVE",
"512 786 OFFCURVE",
"512 574 CURVE SMOOTH",
"512 362 OFFCURVE",
"684 190 OFFCURVE",
"896 190 CURVE SMOOTH",
"1002 190 OFFCURVE",
"1093 228 OFFCURVE",
"1168 303 CURVE SMOOTH"
);
},
{
closed = 1;
nodes = (
"256 1216 LINE",
"640 1216 LINE",
"640 1344 LINE",
"256 1344 LINE"
);
},
{
closed = 1;
nodes = (
"128 1024 LINE",
"1664 1024 LINE",
"1664 1142 LINE",
"1664 1280 LINE",
"836 1280 LINE",
"772 1152 LINE",
"128 1152 LINE"
);
},
{
closed = 1;
nodes = (
"1792 0 LINE SMOOTH",
"1792 -71 OFFCURVE",
"1735 -128 OFFCURVE",
"1664 -128 CURVE SMOOTH",
"128 -128 LINE SMOOTH",
"57 -128 OFFCURVE",
"0 -71 OFFCURVE",
"0 0 CURVE SMOOTH",
"0 1280 LINE SMOOTH",
"0 1351 OFFCURVE",
"57 1408 OFFCURVE",
"128 1408 CURVE SMOOTH",
"1664 1408 LINE SMOOTH",
"1735 1408 OFFCURVE",
"1792 1351 OFFCURVE",
"1792 1280 CURVE SMOOTH"
);
}
);
width = 1792;
}
);
unicode = F083;
},
{
glyphname = caret_down;
layers = (
{
layerId = "4350166A-1D95-43E0-8855-54890F69E6B2";
name = Regular;
paths = (
{
closed = 1;
nodes = (
"1018 864 OFFCURVE",
"1024 849 OFFCURVE",
"1024 832 CURVE SMOOTH",
"1024 815 OFFCURVE",
"1018 800 OFFCURVE",
"1005 787 CURVE SMOOTH",
"557 339 LINE SMOOTH",
"544 326 OFFCURVE",
"529 320 OFFCURVE",
"512 320 CURVE SMOOTH",
"495 320 OFFCURVE",
"480 326 OFFCURVE",
"467 339 CURVE SMOOTH",
"19 787 LINE SMOOTH",
"6 800 OFFCURVE",
"0 815 OFFCURVE",
"0 832 CURVE SMOOTH",
"0 867 OFFCURVE",
"29 896 OFFCURVE",
"64 896 CURVE SMOOTH",
"960 896 LINE SMOOTH",
"977 896 OFFCURVE",
"992 890 OFFCURVE",
"1005 877 CURVE SMOOTH"
);
}
);
width = 1024;
}
);
unicode = F0D7;
},
{
glyphname = caret_left;
layers = (
{
layerId = "4350166A-1D95-43E0-8855-54890F69E6B2";
name = Regular;
paths = (
{
closed = 1;
nodes = (
"640 192 LINE SMOOTH",
"640 157 OFFCURVE",
"611 128 OFFCURVE",
"576 128 CURVE SMOOTH",
"559 128 OFFCURVE",
"544 134 OFFCURVE",
"531 147 CURVE SMOOTH",
"83 595 LINE SMOOTH",
"70 608 OFFCURVE",
"64 623 OFFCURVE",
"64 640 CURVE SMOOTH",
"64 657 OFFCURVE",
"70 672 OFFCURVE",
"83 685 CURVE SMOOTH",
"531 1133 LINE SMOOTH",
"544 1146 OFFCURVE",
"559 1152 OFFCURVE",
"576 1152 CURVE SMOOTH",
"611 1152 OFFCURVE",
"640 1123 OFFCURVE",
"640 1088 CURVE SMOOTH"
);
}
);
width = 640;
}
);
unicode = F0D9;
},
{
glyphname = caret_right;
layers = (
{
layerId = "4350166A-1D95-43E0-8855-54890F69E6B2";
name = Regular;
paths = (
{
closed = 1;
nodes = (
"557 685 LINE SMOOTH",
"570 672 OFFCURVE",
"576 657 OFFCURVE",
"576 640 CURVE SMOOTH",
"576 623 OFFCURVE",
"570 608 OFFCURVE",
"557 595 CURVE SMOOTH",
"109 147 LINE SMOOTH",
"96 134 OFFCURVE",
"81 128 OFFCURVE",
"64 128 CURVE SMOOTH",
"29 128 OFFCURVE",
"0 157 OFFCURVE",
"0 192 CURVE SMOOTH",
"0 1088 LINE SMOOTH",
"0 1123 OFFCURVE",
"29 1152 OFFCURVE",
"64 1152 CURVE SMOOTH",
"81 1152 OFFCURVE",
"96 1146 OFFCURVE",
"109 1133 CURVE SMOOTH"
);
}
);
width = 640;
}
);
unicode = F0DA;
},
{
glyphname = caret_up;
layers = (
{
layerId = "4350166A-1D95-43E0-8855-54890F69E6B2";
name = Regular;
paths = (
{
closed = 1;
nodes = (
"1005 365 LINE SMOOTH",
"1018 352 OFFCURVE",
"1024 337 OFFCURVE",
"1024 320 CURVE SMOOTH",
"1024 285 OFFCURVE",
"995 256 OFFCURVE",
"960 256 CURVE SMOOTH",
"64 256 LINE SMOOTH",
"29 256 OFFCURVE",
"0 285 OFFCURVE",
"0 320 CURVE SMOOTH",
"0 337 OFFCURVE",
"6 352 OFFCURVE",
"19 365 CURVE SMOOTH",
"467 813 LINE SMOOTH",
"480 826 OFFCURVE",
"495 832 OFFCURVE",
"512 832 CURVE SMOOTH",
"529 832 OFFCURVE",
"544 826 OFFCURVE",
"557 813 CURVE SMOOTH"
);
}
);
width = 1024;
}
);
unicode = F0D8;
},
{
glyphname = cloud_download;
layers = (
{
layerId = "4350166A-1D95-43E0-8855-54890F69E6B2";
name = Regular;
paths = (
{
closed = 1;
nodes = (
"1280 627 OFFCURVE",
"1267 640 OFFCURVE",
"1248 640 CURVE SMOOTH",
"1024 640 LINE",
"1024 992 LINE SMOOTH",
"1024 1009 OFFCURVE",
"1009 1024 OFFCURVE",
"992 1024 CURVE SMOOTH",
"800 1024 LINE SMOOTH",
"783 1024 OFFCURVE",
"768 1009 OFFCURVE",
"768 992 CURVE SMOOTH",
"768 640 LINE",
"544 640 LINE SMOOTH",
"527 640 OFFCURVE",
"512 625 OFFCURVE",
"512 608 CURVE SMOOTH",
"512 599 OFFCURVE",
"515 591 OFFCURVE",
"521 585 CURVE SMOOTH",
"873 233 LINE SMOOTH",
"879 227 OFFCURVE",
"887 224 OFFCURVE",
"896 224 CURVE SMOOTH",
"905 224 OFFCURVE",
"913 227 OFFCURVE",
"919 233 CURVE SMOOTH",
"1270 584 LINE",
"1277 592 OFFCURVE",
"1280 600 OFFCURVE",
"1280 608 CURVE SMOOTH"
);
},
{
closed = 1;
nodes = (
"1920 172 OFFCURVE",
"1748 0 OFFCURVE",
"1536 0 CURVE SMOOTH",
"448 0 LINE SMOOTH",
"201 0 OFFCURVE",
"0 201 OFFCURVE",
"0 448 CURVE SMOOTH",
"0 621 OFFCURVE",
"101 780 OFFCURVE",
"258 853 CURVE",
"257 873 OFFCURVE",
"256 887 OFFCURVE",
"256 896 CURVE SMOOTH",
"256 1179 OFFCURVE",
"485 1408 OFFCURVE",
"768 1408 CURVE SMOOTH",
"976 1408 OFFCURVE",
"1163 1282 OFFCURVE",
"1242 1090 CURVE",
"1289 1131 OFFCURVE",
"1345 1152 OFFCURVE",
"1408 1152 CURVE SMOOTH",
"1549 1152 OFFCURVE",
"1664 1037 OFFCURVE",
"1664 896 CURVE SMOOTH",
"1664 845 OFFCURVE",
"1650 799 OFFCURVE",
"1623 758 CURVE",
"1796 717 OFFCURVE",
"1920 563 OFFCURVE",
"1920 384 CURVE SMOOTH"
);
}
);
width = 1920;
}
);
unicode = F0ED;
},
{
glyphname = cloud_upload;
layers = (
{
layerId = "4350166A-1D95-43E0-8855-54890F69E6B2";
name = Regular;
paths = (
{
closed = 1;
nodes = (
"1280 681 OFFCURVE",
"1277 689 OFFCURVE",
"1271 695 CURVE SMOOTH",
"919 1047 LINE SMOOTH",
"913 1053 OFFCURVE",
"905 1056 OFFCURVE",
"896 1056 CURVE SMOOTH",
"887 1056 OFFCURVE",
"879 1053 OFFCURVE",
"873 1047 CURVE SMOOTH",
"522 696 LINE",
"515 688 OFFCURVE",
"512 680 OFFCURVE",
"512 672 CURVE SMOOTH",
"512 653 OFFCURVE",
"525 640 OFFCURVE",
"544 640 CURVE SMOOTH",
"768 640 LINE",
"768 288 LINE SMOOTH",
"768 271 OFFCURVE",
"783 256 OFFCURVE",
"800 256 CURVE SMOOTH",
"992 256 LINE SMOOTH",
"1009 256 OFFCURVE",
"1024 271 OFFCURVE",
"1024 288 CURVE SMOOTH",
"1024 640 LINE",
"1248 640 LINE SMOOTH",
"1265 640 OFFCURVE",
"1280 655 OFFCURVE",
"1280 672 CURVE SMOOTH"
);
},
{
closed = 1;
nodes = (
"1920 172 OFFCURVE",
"1748 0 OFFCURVE",
"1536 0 CURVE SMOOTH",
"448 0 LINE SMOOTH",
"201 0 OFFCURVE",
"0 201 OFFCURVE",
"0 448 CURVE SMOOTH",
"0 621 OFFCURVE",
"101 780 OFFCURVE",
"258 853 CURVE",
"257 873 OFFCURVE",
"256 887 OFFCURVE",
"256 896 CURVE SMOOTH",
"256 1179 OFFCURVE",
"485 1408 OFFCURVE",
"768 1408 CURVE SMOOTH",
"976 1408 OFFCURVE",
"1163 1282 OFFCURVE",
"1242 1090 CURVE",
"1289 1131 OFFCURVE",
"1345 1152 OFFCURVE",
"1408 1152 CURVE SMOOTH",
"1549 1152 OFFCURVE",
"1664 1037 OFFCURVE",
"1664 896 CURVE SMOOTH",
"1664 845 OFFCURVE",
"1650 799 OFFCURVE",
"1623 758 CURVE",
"1796 717 OFFCURVE",
"1920 563 OFFCURVE",
"1920 384 CURVE SMOOTH"
);
}
);
width = 1920;
}
);
unicode = F0EE;
},
{
glyphname = envelope_alt;
layers = (
{
layerId = "4350166A-1D95-43E0-8855-54890F69E6B2";
name = Regular;
paths = (
{
closed = 1;
nodes = (
"1792 32 LINE SMOOTH",
"1792 -56 OFFCURVE",
"1720 -128 OFFCURVE",
"1632 -128 CURVE SMOOTH",
"160 -128 LINE SMOOTH",
"72 -128 OFFCURVE",
"0 -56 OFFCURVE",
"0 32 CURVE SMOOTH",
"0 826 LINE",
"29 793 OFFCURVE",
"63 764 OFFCURVE",
"101 739 CURVE SMOOTH",
"342 575 OFFCURVE",
"508 460 OFFCURVE",
"598 394 CURVE SMOOTH",
"674 338 OFFCURVE",
"706 313 OFFCURVE",
"785 281 CURVE SMOOTH",
"824 264 OFFCURVE",
"861 256 OFFCURVE",
"895 256 CURVE SMOOTH",
"896 256 LINE",
"897 256 LINE SMOOTH",
"965 256 OFFCURVE",
"1054 297 OFFCURVE",
"1102 329 CURVE SMOOTH",
"1125 344 OFFCURVE",
"1156 366 OFFCURVE",
"1194 394 CURVE SMOOTH",
"1307 476 OFFCURVE",
"1473 591 OFFCURVE",
"1692 739 CURVE SMOOTH",
"1730 765 OFFCURVE",
"1763 794 OFFCURVE",
"1792 826 CURVE"
);
},
{
closed = 1;
nodes = (
"1792 1015 OFFCURVE",
"1718 914 OFFCURVE",
"1621 846 CURVE SMOOTH",
"1370 672 OFFCURVE",
"1214 564 OFFCURVE",
"1153 521 CURVE SMOOTH",
"1146 516 OFFCURVE",
"1132 506 OFFCURVE",
"1111 491 CURVE SMOOTH",
"1067 459 OFFCURVE",
"1045 444 OFFCURVE",
"1005 420 CURVE SMOOTH",
"964 396 OFFCURVE",
"928 384 OFFCURVE",
"897 384 CURVE SMOOTH",
"896 384 LINE",
"895 384 LINE SMOOTH",
"864 384 OFFCURVE",
"828 396 OFFCURVE",
"788 420 CURVE SMOOTH",
"747 444 OFFCURVE",
"725 459 OFFCURVE",
"682 491 CURVE",
"660 506 OFFCURVE",
"646 516 OFFCURVE",
"639 521 CURVE SMOOTH",
"578 564 OFFCURVE",
"491 625 OFFCURVE",
"377 704 CURVE SMOOTH",
"263 783 OFFCURVE",
"195 830 OFFCURVE",
"172 846 CURVE SMOOTH",
"89 902 OFFCURVE",
"0 1014 OFFCURVE",
"0 1098 CURVE SMOOTH",
"0 1202 OFFCURVE",
"57 1280 OFFCURVE",
"160 1280 CURVE SMOOTH",
"1632 1280 LINE SMOOTH",
"1719 1280 OFFCURVE",
"1792 1208 OFFCURVE",
"1792 1120 CURVE SMOOTH"
);
}
);
width = 1792;
}
);
unicode = F0E0;
},
{
glyphname = minus_sign;
layers = (
{
layerId = "4350166A-1D95-43E0-8855-54890F69E6B2";
name = Regular;
paths = (
{
closed = 1;
nodes = (
"1216 704 LINE SMOOTH",
"1216 739 OFFCURVE",
"1187 768 OFFCURVE",
"1152 768 CURVE SMOOTH",
"384 768 LINE SMOOTH",
"349 768 OFFCURVE",
"320 739 OFFCURVE",
"320 704 CURVE SMOOTH",
"320 576 LINE SMOOTH",
"320 541 OFFCURVE",
"349 512 OFFCURVE",
"384 512 CURVE SMOOTH",
"1152 512 LINE SMOOTH",
"1187 512 OFFCURVE",
"1216 541 OFFCURVE",
"1216 576 CURVE SMOOTH"
);
},
{
closed = 1;
nodes = (
"1502 908 OFFCURVE",
"1536 779 OFFCURVE",
"1536 640 CURVE SMOOTH",
"1536 361 OFFCURVE",
"1389 112 OFFCURVE",
"1154 -25 CURVE SMOOTH",
"1036 -94 OFFCURVE",
"907 -128 OFFCURVE",
"768 -128 CURVE SMOOTH",
"489 -128 OFFCURVE",
"240 19 OFFCURVE",
"103 255 CURVE SMOOTH",
"34 372 OFFCURVE",
"0 501 OFFCURVE",
"0 640 CURVE SMOOTH",
"0 919 OFFCURVE",
"147 1168 OFFCURVE",
"383 1305 CURVE SMOOTH",
"500 1374 OFFCURVE",
"629 1408 OFFCURVE",
"768 1408 CURVE SMOOTH",
"1047 1408 OFFCURVE",
"1296 1261 OFFCURVE",
"1433 1026 CURVE SMOOTH"
);
}
);
width = 1536;
}
);
unicode = F056;
},
{
glyphname = plus_sign;
layers = (
{
layerId = "4350166A-1D95-43E0-8855-54890F69E6B2";
name = Regular;
paths = (
{
closed = 1;
nodes = (
"1216 704 LINE SMOOTH",
"1216 739 OFFCURVE",
"1187 768 OFFCURVE",
"1152 768 CURVE SMOOTH",
"896 768 LINE",
"896 1024 LINE SMOOTH",
"896 1059 OFFCURVE",
"867 1088 OFFCURVE",
"832 1088 CURVE SMOOTH",
"704 1088 LINE SMOOTH",
"669 1088 OFFCURVE",
"640 1059 OFFCURVE",
"640 1024 CURVE SMOOTH",
"640 768 LINE",
"384 768 LINE SMOOTH",
"349 768 OFFCURVE",
"320 739 OFFCURVE",
"320 704 CURVE SMOOTH",
"320 576 LINE SMOOTH",
"320 541 OFFCURVE",
"349 512 OFFCURVE",
"384 512 CURVE SMOOTH",
"640 512 LINE",
"640 256 LINE SMOOTH",
"640 221 OFFCURVE",
"669 192 OFFCURVE",
"704 192 CURVE SMOOTH",
"832 192 LINE SMOOTH",
"867 192 OFFCURVE",
"896 221 OFFCURVE",
"896 256 CURVE SMOOTH",
"896 512 LINE",
"1152 512 LINE SMOOTH",
"1187 512 OFFCURVE",
"1216 541 OFFCURVE",
"1216 576 CURVE SMOOTH"
);
},
{
closed = 1;
nodes = (
"1502 908 OFFCURVE",
"1536 779 OFFCURVE",
"1536 640 CURVE SMOOTH",
"1536 361 OFFCURVE",
"1389 112 OFFCURVE",
"1154 -25 CURVE SMOOTH",
"1036 -94 OFFCURVE",
"907 -128 OFFCURVE",
"768 -128 CURVE SMOOTH",
"489 -128 OFFCURVE",
"240 19 OFFCURVE",
"103 255 CURVE SMOOTH",
"34 372 OFFCURVE",
"0 501 OFFCURVE",
"0 640 CURVE SMOOTH",
"0 919 OFFCURVE",
"147 1168 OFFCURVE",
"383 1305 CURVE SMOOTH",
"500 1374 OFFCURVE",
"629 1408 OFFCURVE",
"768 1408 CURVE SMOOTH",
"1047 1408 OFFCURVE",
"1296 1261 OFFCURVE",
"1433 1026 CURVE SMOOTH"
);
}
);
width = 1536;
}
);
unicode = F055;
},
{
glyphname = adjust;
layers = (
{
layerId = "4350166A-1D95-43E0-8855-54890F69E6B2";
name = Regular;
paths = (
{
closed = 1;
nodes = (
"500 1374 OFFCURVE",
"629 1408 OFFCURVE",
"768 1408 CURVE SMOOTH",
"1047 1408 OFFCURVE",
"1296 1261 OFFCURVE",
"1433 1026 CURVE SMOOTH",
"1502 908 OFFCURVE",
"1536 779 OFFCURVE",
"1536 640 CURVE SMOOTH",
"1536 361 OFFCURVE",
"1389 112 OFFCURVE",
"1154 -25 CURVE SMOOTH",
"1036 -94 OFFCURVE",
"907 -128 OFFCURVE",
"768 -128 CURVE SMOOTH",
"489 -128 OFFCURVE",
"240 19 OFFCURVE",
"103 255 CURVE SMOOTH",
"34 372 OFFCURVE",
"0 501 OFFCURVE",
"0 640 CURVE SMOOTH",
"0 919 OFFCURVE",
"147 1168 OFFCURVE",
"383 1305 CURVE SMOOTH"
);
},
{
closed = 1;
nodes = (
"270 776 OFFCURVE",
"256 709 OFFCURVE",
"256 640 CURVE SMOOTH",
"256 501 OFFCURVE",
"314 370 OFFCURVE",
"406 278 CURVE SMOOTH",
"498 186 OFFCURVE",
"629 128 OFFCURVE",
"768 128 CURVE",
"768 1152 LINE",
"629 1152 OFFCURVE",
"498 1094 OFFCURVE",
"406 1002 CURVE SMOOTH",
"360 956 OFFCURVE",
"324 902 OFFCURVE",
"297 839 CURVE SMOOTH"
);
}
);
width = 1536;
}
);
unicode = F042;
},
{
glyphname = align_center;
layers = (
{
layerId = "4350166A-1D95-43E0-8855-54890F69E6B2";
name = Regular;
paths = (
{
closed = 1;
nodes = (
"1792 64 LINE SMOOTH",
"1792 29 OFFCURVE",
"1763 0 OFFCURVE",
"1728 0 CURVE SMOOTH",
"64 0 LINE SMOOTH",
"29 0 OFFCURVE",
"0 29 OFFCURVE",
"0 64 CURVE SMOOTH",
"0 192 LINE SMOOTH",
"0 227 OFFCURVE",
"29 256 OFFCURVE",
"64 256 CURVE SMOOTH",
"1728 256 LINE SMOOTH",
"1763 256 OFFCURVE",
"1792 227 OFFCURVE",
"1792 192 CURVE SMOOTH"
);
},
{
closed = 1;
nodes = (
"1408 448 LINE SMOOTH",
"1408 413 OFFCURVE",
"1379 384 OFFCURVE",
"1344 384 CURVE SMOOTH",
"448 384 LINE SMOOTH",
"413 384 OFFCURVE",
"384 413 OFFCURVE",
"384 448 CURVE SMOOTH",
"384 576 LINE SMOOTH",
"384 611 OFFCURVE",
"413 640 OFFCURVE",
"448 640 CURVE SMOOTH",
"1344 640 LINE SMOOTH",
"1379 640 OFFCURVE",
"1408 611 OFFCURVE",
"1408 576 CURVE SMOOTH"
);
},
{
closed = 1;
nodes = (
"1664 832 LINE SMOOTH",
"1664 797 OFFCURVE",
"1635 768 OFFCURVE",
"1600 768 CURVE SMOOTH",
"192 768 LINE SMOOTH",
"157 768 OFFCURVE",
"128 797 OFFCURVE",
"128 832 CURVE SMOOTH",
"128 960 LINE SMOOTH",
"128 995 OFFCURVE",
"157 1024 OFFCURVE",
"192 1024 CURVE SMOOTH",
"1600 1024 LINE SMOOTH",
"1635 1024 OFFCURVE",
"1664 995 OFFCURVE",
"1664 960 CURVE SMOOTH"
);
},
{
closed = 1;
nodes = (
"1280 1216 LINE SMOOTH",
"1280 1181 OFFCURVE",
"1251 1152 OFFCURVE",
"1216 1152 CURVE SMOOTH",
"576 1152 LINE SMOOTH",
"541 1152 OFFCURVE",
"512 1181 OFFCURVE",
"512 1216 CURVE SMOOTH",
"512 1344 LINE SMOOTH",
"512 1379 OFFCURVE",
"541 1408 OFFCURVE",
"576 1408 CURVE SMOOTH",
"1216 1408 LINE SMOOTH",
"1251 1408 OFFCURVE",
"1280 1379 OFFCURVE",
"1280 1344 CURVE SMOOTH"
);
}
);
width = 1792;
}
);
unicode = F037;
},
{
glyphname = align_justify;
layers = (
{
layerId = "4350166A-1D95-43E0-8855-54890F69E6B2";
name = Regular;
paths = (
{
closed = 1;
nodes = (
"1792 64 LINE SMOOTH",
"1792 29 OFFCURVE",
"1763 0 OFFCURVE",
"1728 0 CURVE SMOOTH",
"64 0 LINE SMOOTH",
"29 0 OFFCURVE",
"0 29 OFFCURVE",
"0 64 CURVE SMOOTH",
"0 192 LINE SMOOTH",
"0 227 OFFCURVE",
"29 256 OFFCURVE",
"64 256 CURVE SMOOTH",
"1728 256 LINE SMOOTH",
"1763 256 OFFCURVE",
"1792 227 OFFCURVE",
"1792 192 CURVE SMOOTH"
);
},
{
closed = 1;
nodes = (
"1792 448 LINE SMOOTH",
"1792 413 OFFCURVE",
"1763 384 OFFCURVE",
"1728 384 CURVE SMOOTH",
"64 384 LINE SMOOTH",
"29 384 OFFCURVE",
"0 413 OFFCURVE",
"0 448 CURVE SMOOTH",
"0 576 LINE SMOOTH",
"0 611 OFFCURVE",
"29 640 OFFCURVE",
"64 640 CURVE SMOOTH",
"1728 640 LINE SMOOTH",
"1763 640 OFFCURVE",
"1792 611 OFFCURVE",
"1792 576 CURVE SMOOTH"
);
},
{
closed = 1;
nodes = (
"1792 832 LINE SMOOTH",
"1792 797 OFFCURVE",
"1763 768 OFFCURVE",
"1728 768 CURVE SMOOTH",
"64 768 LINE SMOOTH",
"29 768 OFFCURVE",
"0 797 OFFCURVE",
"0 832 CURVE SMOOTH",
"0 960 LINE SMOOTH",
"0 995 OFFCURVE",
"29 1024 OFFCURVE",
"64 1024 CURVE SMOOTH",
"1728 1024 LINE SMOOTH",
"1763 1024 OFFCURVE",
"1792 995 OFFCURVE",
"1792 960 CURVE SMOOTH"
);
},
{
closed = 1;
nodes = (
"1792 1216 LINE SMOOTH",
"1792 1181 OFFCURVE",
"1763 1152 OFFCURVE",
"1728 1152 CURVE SMOOTH",
"64 1152 LINE SMOOTH",
"29 1152 OFFCURVE",
"0 1181 OFFCURVE",
"0 1216 CURVE SMOOTH",
"0 1344 LINE SMOOTH",
"0 1379 OFFCURVE",
"29 1408 OFFCURVE",
"64 1408 CURVE SMOOTH",
"1728 1408 LINE SMOOTH",
"1763 1408 OFFCURVE",
"1792 1379 OFFCURVE",
"1792 1344 CURVE SMOOTH"
);
}
);
width = 1792;
}
);
unicode = F039;
},
{
glyphname = align_left;
layers = (
{
layerId = "4350166A-1D95-43E0-8855-54890F69E6B2";
name = Regular;
paths = (
{
closed = 1;
nodes = (
"1792 64 LINE SMOOTH",
"1792 29 OFFCURVE",
"1763 0 OFFCURVE",
"1728 0 CURVE SMOOTH",
"64 0 LINE SMOOTH",
"29 0 OFFCURVE",
"0 29 OFFCURVE",
"0 64 CURVE SMOOTH",
"0 192 LINE SMOOTH",
"0 227 OFFCURVE",
"29 256 OFFCURVE",
"64 256 CURVE SMOOTH",
"1728 256 LINE SMOOTH",
"1763 256 OFFCURVE",
"1792 227 OFFCURVE",
"1792 192 CURVE SMOOTH"
);
},
{
closed = 1;
nodes = (
"1408 448 LINE SMOOTH",
"1408 413 OFFCURVE",
"1379 384 OFFCURVE",
"1344 384 CURVE SMOOTH",
"64 384 LINE SMOOTH",
"29 384 OFFCURVE",
"0 413 OFFCURVE",
"0 448 CURVE SMOOTH",
"0 576 LINE SMOOTH",
"0 611 OFFCURVE",
"29 640 OFFCURVE",
"64 640 CURVE SMOOTH",
"1344 640 LINE SMOOTH",
"1379 640 OFFCURVE",
"1408 611 OFFCURVE",
"1408 576 CURVE SMOOTH"
);
},
{
closed = 1;
nodes = (
"1664 832 LINE SMOOTH",
"1664 797 OFFCURVE",
"1635 768 OFFCURVE",
"1600 768 CURVE SMOOTH",
"64 768 LINE SMOOTH",
"29 768 OFFCURVE",
"0 797 OFFCURVE",
"0 832 CURVE SMOOTH",
"0 960 LINE SMOOTH",
"0 995 OFFCURVE",
"29 1024 OFFCURVE",
"64 1024 CURVE SMOOTH",
"1600 1024 LINE SMOOTH",
"1635 1024 OFFCURVE",
"1664 995 OFFCURVE",
"1664 960 CURVE SMOOTH"
);
},
{
closed = 1;
nodes = (
"1280 1216 LINE SMOOTH",
"1280 1181 OFFCURVE",
"1251 1152 OFFCURVE",
"1216 1152 CURVE SMOOTH",
"64 1152 LINE SMOOTH",
"29 1152 OFFCURVE",
"0 1181 OFFCURVE",
"0 1216 CURVE SMOOTH",
"0 1344 LINE SMOOTH",
"0 1379 OFFCURVE",
"29 1408 OFFCURVE",
"64 1408 CURVE SMOOTH",
"1216 1408 LINE SMOOTH",
"1251 1408 OFFCURVE",
"1280 1379 OFFCURVE",
"1280 1344 CURVE SMOOTH"
);
}
);
width = 1792;
}
);
unicode = F036;
},
{
glyphname = align_right;
layers = (
{
layerId = "4350166A-1D95-43E0-8855-54890F69E6B2";
name = Regular;
paths = (
{
closed = 1;
nodes = (
"1792 64 LINE SMOOTH",
"1792 29 OFFCURVE",
"1763 0 OFFCURVE",
"1728 0 CURVE SMOOTH",
"64 0 LINE SMOOTH",
"29 0 OFFCURVE",
"0 29 OFFCURVE",
"0 64 CURVE SMOOTH",
"0 192 LINE SMOOTH",
"0 227 OFFCURVE",
"29 256 OFFCURVE",
"64 256 CURVE SMOOTH",
"1728 256 LINE SMOOTH",
"1763 256 OFFCURVE",
"1792 227 OFFCURVE",
"1792 192 CURVE SMOOTH"
);
},
{
closed = 1;
nodes = (
"1792 448 LINE SMOOTH",
"1792 413 OFFCURVE",
"1763 384 OFFCURVE",
"1728 384 CURVE SMOOTH",
"448 384 LINE SMOOTH",
"413 384 OFFCURVE",
"384 413 OFFCURVE",
"384 448 CURVE SMOOTH",
"384 576 LINE SMOOTH",
"384 611 OFFCURVE",
"413 640 OFFCURVE",
"448 640 CURVE SMOOTH",
"1728 640 LINE SMOOTH",
"1763 640 OFFCURVE",
"1792 611 OFFCURVE",
"1792 576 CURVE SMOOTH"
);
},
{
closed = 1;
nodes = (
"1792 832 LINE SMOOTH",
"1792 797 OFFCURVE",
"1763 768 OFFCURVE",
"1728 768 CURVE SMOOTH",
"192 768 LINE SMOOTH",
"157 768 OFFCURVE",
"128 797 OFFCURVE",
"128 832 CURVE SMOOTH",
"128 960 LINE SMOOTH",
"128 995 OFFCURVE",
"157 1024 OFFCURVE",
"192 1024 CURVE SMOOTH",
"1728 1024 LINE SMOOTH",
"1763 1024 OFFCURVE",
"1792 995 OFFCURVE",
"1792 960 CURVE SMOOTH"
);
},
{
closed = 1;
nodes = (
"1792 1216 LINE SMOOTH",
"1792 1181 OFFCURVE",
"1763 1152 OFFCURVE",
"1728 1152 CURVE SMOOTH",
"576 1152 LINE SMOOTH",
"541 1152 OFFCURVE",
"512 1181 OFFCURVE",
"512 1216 CURVE SMOOTH",
"512 1344 LINE SMOOTH",
"512 1379 OFFCURVE",
"541 1408 OFFCURVE",
"576 1408 CURVE SMOOTH",
"1728 1408 LINE SMOOTH",
"1763 1408 OFFCURVE",
"1792 1379 OFFCURVE",
"1792 1344 CURVE SMOOTH"
);
}
);
width = 1792;
}
);
unicode = F038;
},
{
glyphname = arrow_down;
layers = (
{
layerId = "4350166A-1D95-43E0-8855-54890F69E6B2";
name = Regular;
paths = (
{
closed = 1;
nodes = (
"1611 669 OFFCURVE",
"1599 639 OFFCURVE",
"1574 614 CURVE SMOOTH",
"923 -38 LINE SMOOTH",
"897 -63 OFFCURVE",
"867 -75 OFFCURVE",
"832 -75 CURVE SMOOTH",
"797 -75 OFFCURVE",
"767 -63 OFFCURVE",
"742 -38 CURVE SMOOTH",
"91 614 LINE SMOOTH",
"66 638 OFFCURVE",
"53 668 OFFCURVE",
"53 704 CURVE SMOOTH",
"53 739 OFFCURVE",
"66 770 OFFCURVE",
"91 795 CURVE SMOOTH",
"165 870 LINE SMOOTH",
"191 895 OFFCURVE",
"221 907 OFFCURVE",
"256 907 CURVE SMOOTH",
"291 907 OFFCURVE",
"321 895 OFFCURVE",
"346 870 CURVE SMOOTH",
"640 576 LINE",
"640 1280 LINE SMOOTH",
"640 1349 OFFCURVE",
"699 1408 OFFCURVE",
"768 1408 CURVE SMOOTH",
"896 1408 LINE SMOOTH",
"965 1408 OFFCURVE",
"1024 1349 OFFCURVE",
"1024 1280 CURVE SMOOTH",
"1024 576 LINE",
"1318 870 LINE SMOOTH",
"1343 895 OFFCURVE",
"1373 907 OFFCURVE",
"1408 907 CURVE SMOOTH",
"1443 907 OFFCURVE",
"1473 895 OFFCURVE",
"1499 870 CURVE SMOOTH",
"1574 795 LINE SMOOTH",
"1599 769 OFFCURVE",
"1611 739 OFFCURVE",
"1611 704 CURVE SMOOTH"
);
}
);
width = 1664;
}
);
unicode = F063;
},
{
glyphname = arrow_left;
layers = (
{
layerId = "4350166A-1D95-43E0-8855-54890F69E6B2";
name = Regular;
paths = (
{
closed = 1;
nodes = (
"1536 512 LINE SMOOTH",
"1536 441 OFFCURVE",
"1488 384 OFFCURVE",
"1419 384 CURVE SMOOTH",
"715 384 LINE",
"1008 90 LINE SMOOTH",
"1033 66 OFFCURVE",
"1046 36 OFFCURVE",
"1046 0 CURVE SMOOTH",
"1046 -36 OFFCURVE",
"1033 -66 OFFCURVE",
"1008 -90 CURVE SMOOTH",
"933 -166 LINE SMOOTH",
"908 -191 OFFCURVE",
"878 -203 OFFCURVE",
"843 -203 CURVE SMOOTH",
"808 -203 OFFCURVE",
"778 -191 OFFCURVE",
"752 -166 CURVE SMOOTH",
"101 486 LINE SMOOTH",
"76 511 OFFCURVE",
"64 541 OFFCURVE",
"64 576 CURVE SMOOTH",
"64 611 OFFCURVE",
"76 641 OFFCURVE",
"101 667 CURVE SMOOTH",
"752 1317 LINE SMOOTH",
"777 1342 OFFCURVE",
"808 1355 OFFCURVE",
"843 1355 CURVE SMOOTH",
"878 1355 OFFCURVE",
"908 1342 OFFCURVE",
"933 1317 CURVE SMOOTH",
"1008 1243 LINE SMOOTH",
"1033 1218 OFFCURVE",
"1046 1187 OFFCURVE",
"1046 1152 CURVE SMOOTH",
"1046 1117 OFFCURVE",
"1033 1086 OFFCURVE",
"1008 1061 CURVE SMOOTH",
"715 768 LINE",
"1419 768 LINE SMOOTH",
"1488 768 OFFCURVE",
"1536 711 OFFCURVE",
"1536 640 CURVE SMOOTH"
);
}
);
width = 1536;
}
);
unicode = F060;
},
{
glyphname = arrow_right;
layers = (
{
layerId = "4350166A-1D95-43E0-8855-54890F69E6B2";
name = Regular;
paths = (
{
closed = 1;
nodes = (
"1472 540 OFFCURVE",
"1460 510 OFFCURVE",
"1435 485 CURVE SMOOTH",
"784 -166 LINE SMOOTH",
"758 -191 OFFCURVE",
"728 -203 OFFCURVE",
"693 -203 CURVE SMOOTH",
"659 -203 OFFCURVE",
"629 -191 OFFCURVE",
"603 -166 CURVE SMOOTH",
"528 -91 LINE SMOOTH",
"503 -66 OFFCURVE",
"490 -35 OFFCURVE",
"490 0 CURVE SMOOTH",
"490 35 OFFCURVE",
"503 66 OFFCURVE",
"528 91 CURVE SMOOTH",
"821 384 LINE",
"117 384 LINE SMOOTH",
"48 384 OFFCURVE",
"0 441 OFFCURVE",
"0 512 CURVE SMOOTH",
"0 640 LINE SMOOTH",
"0 711 OFFCURVE",
"48 768 OFFCURVE",
"117 768 CURVE SMOOTH",
"821 768 LINE",
"528 1062 LINE SMOOTH",
"503 1086 OFFCURVE",
"490 1116 OFFCURVE",
"490 1152 CURVE SMOOTH",
"490 1188 OFFCURVE",
"503 1218 OFFCURVE",
"528 1242 CURVE SMOOTH",
"603 1317 LINE SMOOTH",
"628 1342 OFFCURVE",
"658 1355 OFFCURVE",
"693 1355 CURVE SMOOTH",
"728 1355 OFFCURVE",
"759 1342 OFFCURVE",
"784 1317 CURVE SMOOTH",
"1435 666 LINE",
"1460 643 OFFCURVE",
"1472 613 OFFCURVE",
"1472 576 CURVE SMOOTH"
);
}
);
width = 1536;
}
);
unicode = F061;
},
{
glyphname = arrow_up;
layers = (
{
layerId = "4350166A-1D95-43E0-8855-54890F69E6B2";
name = Regular;
paths = (
{
closed = 1;
nodes = (
"1611 531 OFFCURVE",
"1599 501 OFFCURVE",
"1574 475 CURVE SMOOTH",
"1499 400 LINE SMOOTH",
"1474 375 OFFCURVE",
"1443 362 OFFCURVE",
"1408 362 CURVE SMOOTH",
"1372 362 OFFCURVE",
"1342 375 OFFCURVE",
"1318 400 CURVE SMOOTH",
"1024 693 LINE",
"1024 -11 LINE SMOOTH",
"1024 -80 OFFCURVE",
"967 -128 OFFCURVE",
"896 -128 CURVE SMOOTH",
"768 -128 LINE SMOOTH",
"697 -128 OFFCURVE",
"640 -80 OFFCURVE",
"640 -11 CURVE SMOOTH",
"640 693 LINE",
"346 400 LINE SMOOTH",
"322 375 OFFCURVE",
"292 362 OFFCURVE",
"256 362 CURVE SMOOTH",
"220 362 OFFCURVE",
"190 375 OFFCURVE",
"166 400 CURVE SMOOTH",
"91 475 LINE SMOOTH",
"66 500 OFFCURVE",
"53 530 OFFCURVE",
"53 565 CURVE SMOOTH",
"53 600 OFFCURVE",
"66 631 OFFCURVE",
"91 656 CURVE SMOOTH",
"742 1307 LINE",
"765 1332 OFFCURVE",
"795 1344 OFFCURVE",
"832 1344 CURVE SMOOTH",
"868 1344 OFFCURVE",
"898 1332 OFFCURVE",
"923 1307 CURVE SMOOTH",
"1574 656 LINE SMOOTH",
"1599 630 OFFCURVE",
"1611 600 OFFCURVE",
"1611 565 CURVE SMOOTH"
);
}
);
width = 1664;
}
);
unicode = F062;
},
{
glyphname = backward;
layers = (
{
layerId = "4350166A-1D95-43E0-8855-54890F69E6B2";
name = Regular;
paths = (
{
closed = 1;
nodes = (
"1619 1395 LINE SMOOTH",
"1644 1420 OFFCURVE",
"1664 1411 OFFCURVE",
"1664 1376 CURVE SMOOTH",
"1664 -96 LINE SMOOTH",
"1664 -131 OFFCURVE",
"1644 -140 OFFCURVE",
"1619 -115 CURVE SMOOTH",
"909 595 LINE",
"904 601 OFFCURVE",
"899 607 OFFCURVE",
"896 614 CURVE",
"896 -96 LINE SMOOTH",
"896 -131 OFFCURVE",
"876 -140 OFFCURVE",
"851 -115 CURVE SMOOTH",
"141 595 LINE SMOOTH",
"128 608 OFFCURVE",
"122 623 OFFCURVE",
"122 640 CURVE SMOOTH",
"122 657 OFFCURVE",
"128 672 OFFCURVE",
"141 685 CURVE SMOOTH",
"851 1395 LINE SMOOTH",
"876 1420 OFFCURVE",
"896 1411 OFFCURVE",
"896 1376 CURVE SMOOTH",
"896 666 LINE",
"899 673 OFFCURVE",
"904 680 OFFCURVE",
"909 685 CURVE SMOOTH"
);
}
);
width = 1664;
}
);
unicode = F04A;
},
{
glyphname = ban_circle;
layers = (
{
layerId = "4350166A-1D95-43E0-8855-54890F69E6B2";
name = Regular;
paths = (
{
closed = 1;
nodes = (
"1280 733 OFFCURVE",
"1256 819 OFFCURVE",
"1209 900 CURVE",
"508 199 LINE",
"589 152 OFFCURVE",
"675 128 OFFCURVE",
"768 128 CURVE SMOOTH",
"907 128 OFFCURVE",
"1038 186 OFFCURVE",
"1130 278 CURVE SMOOTH",
"1222 370 OFFCURVE",
"1280 501 OFFCURVE",
"1280 640 CURVE SMOOTH"
);
},
{
closed = 1;
nodes = (
"1028 1081 LINE",
"947 1128 OFFCURVE",
"861 1152 OFFCURVE",
"768 1152 CURVE SMOOTH",
"629 1152 OFFCURVE",
"498 1094 OFFCURVE",
"406 1002 CURVE SMOOTH",
"314 910 OFFCURVE",
"256 779 OFFCURVE",
"256 640 CURVE SMOOTH",
"256 547 OFFCURVE",
"280 461 OFFCURVE",
"327 380 CURVE"
);
},
{
closed = 1;
nodes = (
"1502 908 OFFCURVE",
"1536 779 OFFCURVE",
"1536 640 CURVE SMOOTH",
"1536 361 OFFCURVE",
"1389 112 OFFCURVE",
"1154 -25 CURVE SMOOTH",
"1036 -94 OFFCURVE",
"907 -128 OFFCURVE",
"768 -128 CURVE SMOOTH",
"489 -128 OFFCURVE",
"240 19 OFFCURVE",
"103 255 CURVE SMOOTH",
"34 372 OFFCURVE",
"0 501 OFFCURVE",
"0 640 CURVE SMOOTH",
"0 919 OFFCURVE",
"147 1168 OFFCURVE",
"383 1305 CURVE SMOOTH",
"500 1374 OFFCURVE",
"629 1408 OFFCURVE",
"768 1408 CURVE SMOOTH",
"1047 1408 OFFCURVE",
"1296 1261 OFFCURVE",
"1433 1026 CURVE SMOOTH"
);
}
);
width = 1536;
}
);
unicode = F05E;
},
{
glyphname = barcode;
layers = (
{
layerId = "4350166A-1D95-43E0-8855-54890F69E6B2";
name = Regular;
paths = (
{
closed = 1;
nodes = (
"672 1408 LINE",
"672 -128 LINE",
"608 -128 LINE",
"608 1408 LINE"
);
},
{
closed = 1;
nodes = (
"1408 1408 LINE",
"1408 -128 LINE",
"1344 -128 LINE",
"1344 1408 LINE"
);
},
{
closed = 1;
nodes = (
"1568 1408 LINE",
"1568 -128 LINE",
"1504 -128 LINE",
"1504 1408 LINE"
);
},
{
closed = 1;
nodes = (
"576 1408 LINE",
"576 -128 LINE",
"512 -128 LINE",
"512 1408 LINE"
);
},
{
closed = 1;
nodes = (
"1280 1408 LINE",
"1280 -128 LINE",
"1024 -128 LINE",
"1024 1408 LINE"
);
},
{
closed = 1;
nodes = (
"896 1408 LINE",
"896 -128 LINE",
"768 -128 LINE",
"768 1408 LINE"
);
},
{
closed = 1;
nodes = (
"448 1408 LINE",
"448 -128 LINE",
"320 -128 LINE",
"320 1408 LINE"
);
},
{
closed = 1;
nodes = (
"1792 1408 LINE",
"1792 -128 LINE",
"1664 -128 LINE",
"1664 1408 LINE"
);
},
{
closed = 1;
nodes = (
"256 1408 LINE",
"256 -128 LINE",
"0 -128 LINE",
"0 1408 LINE"
);
}
);
width = 1792;
}
);
unicode = F02A;
},
{
glyphname = beaker;
layers = (
{
layerId = "4350166A-1D95-43E0-8855-54890F69E6B2";
name = Regular;
paths = (
{
closed = 1;
nodes = (
"1527 88 LINE SMOOTH",
"1602 -31 OFFCURVE",
"1549 -128 OFFCURVE",
"1408 -128 CURVE SMOOTH",
"256 -128 LINE SMOOTH",
"115 -128 OFFCURVE",
"62 -31 OFFCURVE",
"137 88 CURVE SMOOTH",
"640 881 LINE",
"640 1280 LINE",
"576 1280 LINE SMOOTH",
"541 1280 OFFCURVE",
"512 1309 OFFCURVE",
"512 1344 CURVE SMOOTH",
"512 1379 OFFCURVE",
"541 1408 OFFCURVE",
"576 1408 CURVE SMOOTH",
"1088 1408 LINE SMOOTH",
"1123 1408 OFFCURVE",
"1152 1379 OFFCURVE",
"1152 1344 CURVE SMOOTH",
"1152 1309 OFFCURVE",
"1123 1280 OFFCURVE",
"1088 1280 CURVE SMOOTH",
"1024 1280 LINE",
"1024 881 LINE"
);
},
{
closed = 1;
nodes = (
"748 813 LINE",
"476 384 LINE",
"1188 384 LINE",
"916 813 LINE",
"896 844 LINE",
"896 881 LINE",
"896 1280 LINE",
"768 1280 LINE",
"768 881 LINE",
"768 844 LINE"
);
}
);
width = 1664;
}
);
unicode = F0C3;
},
{
glyphname = beer;
layers = (
{
layerId = "4350166A-1D95-43E0-8855-54890F69E6B2";
name = Regular;
paths = (
{
closed = 1;
nodes = (
"640 1024 LINE",
"384 1024 LINE",
"384 864 LINE SMOOTH",
"384 804 OFFCURVE",
"386 766 OFFCURVE",
"394 732 CURVE SMOOTH",
"401 698 OFFCURVE",
"412 681 OFFCURVE",
"431 665 CURVE SMOOTH",
"450 649 OFFCURVE",
"476 647 OFFCURVE",
"510 642 CURVE SMOOTH",
"527 639 OFFCURVE",
"546 639 OFFCURVE",
"568 640 CURVE SMOOTH",
"589 641 OFFCURVE",
"613 641 OFFCURVE",
"640 640 CURVE"
);
},
{
closed = 1;
nodes = (
"1664 192 LINE",
"1664 0 LINE",
"512 0 LINE",
"512 192 LINE",
"640 384 LINE",
"543 384 LINE SMOOTH",
"262 384 OFFCURVE",
"128 518 OFFCURVE",
"128 801 CURVE SMOOTH",
"128 1088 LINE",
"64 1152 LINE",
"96 1280 LINE",
"576 1280 LINE",
"608 1408 LINE",
"1568 1408 LINE",
"1600 1216 LINE",
"1536 1184 LINE",
"1536 384 LINE"
);
}
);
width = 1664;
}
);
unicode = F0FC;
},
{
glyphname = bold;
layers = (
{
layerId = "4350166A-1D95-43E0-8855-54890F69E6B2";
name = Regular;
paths = (
{
closed = 1;
nodes = (
"606 -6 OFFCURVE",
"652 -17 OFFCURVE",
"695 -17 CURVE SMOOTH",
"870 -17 OFFCURVE",
"984 41 OFFCURVE",
"1033 137 CURVE SMOOTH",
"1058 184 OFFCURVE",
"1071 244 OFFCURVE",
"1071 318 CURVE SMOOTH",
"1071 470 OFFCURVE",
"1000 581 OFFCURVE",
"889 624 CURVE SMOOTH",
"836 645 OFFCURVE",
"753 656 OFFCURVE",
"642 656 CURVE SMOOTH",
"593 656 OFFCURVE",
"559 653 OFFCURVE",
"541 646 CURVE",
"541 502 LINE",
"540 329 LINE",
"543 59 LINE SMOOTH",
"543 49 OFFCURVE",
"547 34 OFFCURVE",
"555 15 CURVE"
);
},
{
closed = 1;
nodes = (
"570 756 OFFCURVE",
"606 754 OFFCURVE",
"650 754 CURVE SMOOTH",
"883 754 OFFCURVE",
"1003 831 OFFCURVE",
"1003 1043 CURVE SMOOTH",
"1003 1192 OFFCURVE",
"891 1305 OFFCURVE",
"663 1305 CURVE SMOOTH",
"628 1305 OFFCURVE",
"585 1301 OFFCURVE",
"533 1292 CURVE",
"533 1263 OFFCURVE",
"534 1237 OFFCURVE",
"535 1215 CURVE SMOOTH",
"540 1134 OFFCURVE",
"542 1041 OFFCURVE",
"541 936 CURVE SMOOTH",
"540 838 LINE SMOOTH",
"540 809 OFFCURVE",
"540 784 OFFCURVE",
"541 761 CURVE"
);
},
{
closed = 1;
nodes = (
"2 -34 LINE",
"32 -28 OFFCURVE",
"55 -24 OFFCURVE",
"70 -22 CURVE SMOOTH",
"121 -14 OFFCURVE",
"162 -4 OFFCURVE",
"193 9 CURVE",
"204 27 OFFCURVE",
"211 44 OFFCURVE",
"214 60 CURVE",
"220 104 OFFCURVE",
"223 169 OFFCURVE",
"223 254 CURVE",
"221 751 LINE SMOOTH",
"218 922 OFFCURVE",
"215 1056 OFFCURVE",
"212 1155 CURVE SMOOTH",
"211 1213 OFFCURVE",
"208 1249 OFFCURVE",
"201 1264 CURVE",
"200 1267 OFFCURVE",
"196 1271 OFFCURVE",
"189 1276 CURVE SMOOTH",
"177 1284 OFFCURVE",
"154 1289 OFFCURVE",
"120 1291 CURVE SMOOTH",
"100 1292 OFFCURVE",
"62 1297 OFFCURVE",
"6 1304 CURVE",
"2 1387 LINE",
"262 1393 LINE",
"642 1406 LINE",
"687 1407 LINE SMOOTH",
"690 1407 OFFCURVE",
"695 1407 OFFCURVE",
"701 1408 CURVE",
"707 1408 OFFCURVE",
"712 1408 OFFCURVE",
"715 1408 CURVE SMOOTH",
"716 1408 OFFCURVE",
"723 1408 OFFCURVE",
"737 1408 CURVE",
"750 1407 OFFCURVE",
"764 1407 OFFCURVE",
"777 1407 CURVE SMOOTH",
"851 1407 LINE SMOOTH",
"910 1407 OFFCURVE",
"973 1398 OFFCURVE",
"1042 1380 CURVE SMOOTH",
"1099 1363 OFFCURVE",
"1180 1328 OFFCURVE",
"1240 1265 CURVE SMOOTH",
"1299 1202 OFFCURVE",
"1326 1126 OFFCURVE",
"1326 1039 CURVE SMOOTH",
"1326 946 OFFCURVE",
"1283 869 OFFCURVE",
"1199 806 CURVE SMOOTH",
"1182 793 OFFCURVE",
"1132 767 OFFCURVE",
"1049 729 CURVE",
"1285 674 OFFCURVE",
"1408 520 OFFCURVE",
"1408 347 CURVE SMOOTH",
"1408 246 OFFCURVE",
"1375 142 OFFCURVE",
"1308 69 CURVE SMOOTH",
"1220 -27 OFFCURVE",
"1138 -67 OFFCURVE",
"965 -99 CURVE SMOOTH",
"910 -109 OFFCURVE",
"844 -113 OFFCURVE",
"767 -110 CURVE SMOOTH",
"570 -106 LINE SMOOTH",
"514 -105 OFFCURVE",
"415 -108 OFFCURVE",
"272 -117 CURVE SMOOTH",
"250 -119 OFFCURVE",
"159 -123 OFFCURVE",
"0 -128 CURVE"
);
}
);
width = 1408;
}
);
unicode = F032;
},
{
glyphname = bolt;
layers = (
{
layerId = "4350166A-1D95-43E0-8855-54890F69E6B2";
name = Regular;
paths = (
{
closed = 1;
nodes = (
"897 957 OFFCURVE",
"899 942 OFFCURVE",
"892 926 CURVE SMOOTH",
"352 -231 LINE",
"343 -248 OFFCURVE",
"329 -256 OFFCURVE",
"310 -256 CURVE SMOOTH",
"307 -256 OFFCURVE",
"303 -255 OFFCURVE",
"296 -254 CURVE",
"273 -247 OFFCURVE",
"261 -226 OFFCURVE",
"266 -205 CURVE SMOOTH",
"463 603 LINE",
"57 502 LINE",
"54 501 OFFCURVE",
"50 501 OFFCURVE",
"45 501 CURVE SMOOTH",
"21 501 OFFCURVE",
"-6 519 OFFCURVE",
"1 551 CURVE SMOOTH",
"202 1376 LINE SMOOTH",
"207 1395 OFFCURVE",
"225 1408 OFFCURVE",
"246 1408 CURVE SMOOTH",
"574 1408 LINE SMOOTH",
"599 1408 OFFCURVE",
"619 1389 OFFCURVE",
"619 1366 CURVE SMOOTH",
"619 1361 OFFCURVE",
"617 1355 OFFCURVE",
"614 1348 CURVE",
"443 885 LINE",
"839 983 LINE",
"844 984 OFFCURVE",
"848 985 OFFCURVE",
"851 985 CURVE SMOOTH",
"864 985 OFFCURVE",
"875 980 OFFCURVE",
"885 970 CURVE"
);
}
);
width = 896;
}
);
unicode = F0E7;
},
{
glyphname = book;
layers = (
{
layerId = "4350166A-1D95-43E0-8855-54890F69E6B2";
name = Regular;
paths = (
{
closed = 1;
nodes = (
"1666 1020 OFFCURVE",
"1672 977 OFFCURVE",
"1657 929 CURVE SMOOTH",
"1382 23 LINE SMOOTH",
"1357 -62 OFFCURVE",
"1270 -128 OFFCURVE",
"1183 -128 CURVE SMOOTH",
"260 -128 LINE SMOOTH",
"157 -128 OFFCURVE",
"49 -47 OFFCURVE",
"12 57 CURVE SMOOTH",
"-4 102 OFFCURVE",
"-5 144 OFFCURVE",
"10 184 CURVE",
"10 187 OFFCURVE",
"11 196 OFFCURVE",
"13 211 CURVE SMOOTH",
"17 242 OFFCURVE",
"19 252 OFFCURVE",
"14 270 CURVE SMOOTH",
"9 288 OFFCURVE",
"11 297 OFFCURVE",
"19 310 CURVE SMOOTH",
"23 317 OFFCURVE",
"29 325 OFFCURVE",
"36 334 CURVE SMOOTH",
"43 343 OFFCURVE",
"48 350 OFFCURVE",
"52 357 CURVE SMOOTH",
"83 408 OFFCURVE",
"116 489 OFFCURVE",
"127 540 CURVE",
"129 547 OFFCURVE",
"129 557 OFFCURVE",
"128 570 CURVE",
"124 597 OFFCURVE",
"125 603 OFFCURVE",
"144 626 CURVE SMOOTH",
"153 637 OFFCURVE",
"159 645 OFFCURVE",
"161 649 CURVE",
"189 697 OFFCURVE",
"223 786 OFFCURVE",
"228 831 CURVE",
"229 837 OFFCURVE",
"228 848 OFFCURVE",
"226 863 CURVE",
"223 878 OFFCURVE",
"223 888 OFFCURVE",
"226 891 CURVE",
"229 900 OFFCURVE",
"236 910 OFFCURVE",
"248 922 CURVE",
"260 933 OFFCURVE",
"267 941 OFFCURVE",
"270 944 CURVE",
"295 979 OFFCURVE",
"335 1074 OFFCURVE",
"340 1125 CURVE",
"341 1130 OFFCURVE",
"340 1139 OFFCURVE",
"337 1151 CURVE SMOOTH",
"332 1174 OFFCURVE",
"335 1182 OFFCURVE",
"344 1195 CURVE SMOOTH",
"349 1202 OFFCURVE",
"355 1209 OFFCURVE",
"362 1218 CURVE",
"377 1235 OFFCURVE",
"384 1245 OFFCURVE",
"396 1270 CURVE",
"401 1282 OFFCURVE",
"406 1294 OFFCURVE",
"411 1305 CURVE",
"419 1327 OFFCURVE",
"433 1356 OFFCURVE",
"446 1373 CURVE SMOOTH",
"459 1389 OFFCURVE",
"483 1407 OFFCURVE",
"509 1408 CURVE",
"522 1408 OFFCURVE",
"537 1406 OFFCURVE",
"556 1402 CURVE",
"555 1399 LINE",
"580 1405 OFFCURVE",
"597 1408 OFFCURVE",
"606 1408 CURVE SMOOTH",
"1367 1408 LINE SMOOTH",
"1466 1408 OFFCURVE",
"1528 1321 OFFCURVE",
"1499 1222 CURVE SMOOTH",
"1225 316 LINE SMOOTH",
"1177 157 OFFCURVE",
"1149 128 OFFCURVE",
"1025 128 CURVE SMOOTH",
"156 128 LINE SMOOTH",
"120 128 OFFCURVE",
"104 106 OFFCURVE",
"117 70 CURVE SMOOTH",
"133 23 OFFCURVE",
"181 0 OFFCURVE",
"261 0 CURVE SMOOTH",
"1184 0 LINE SMOOTH",
"1223 0 OFFCURVE",
"1264 22 OFFCURVE",
"1275 57 CURVE SMOOTH",
"1575 1044 LINE SMOOTH",
"1580 1059 OFFCURVE",
"1581 1078 OFFCURVE",
"1580 1101 CURVE",
"1605 1091 OFFCURVE",
"1625 1077 OFFCURVE",
"1639 1058 CURVE SMOOTH"
);
},
{
closed = 1;
nodes = (
"575 1056 LINE SMOOTH",
"570 1039 OFFCURVE",
"578 1024 OFFCURVE",
"597 1024 CURVE SMOOTH",
"1205 1024 LINE SMOOTH",
"1222 1024 OFFCURVE",
"1242 1039 OFFCURVE",
"1247 1056 CURVE SMOOTH",
"1268 1120 LINE SMOOTH",
"1273 1137 OFFCURVE",
"1265 1152 OFFCURVE",
"1246 1152 CURVE SMOOTH",
"638 1152 LINE SMOOTH",
"621 1152 OFFCURVE",
"601 1137 OFFCURVE",
"596 1120 CURVE SMOOTH"
);
},
{
closed = 1;
nodes = (
"492 800 LINE SMOOTH",
"487 783 OFFCURVE",
"495 768 OFFCURVE",
"514 768 CURVE SMOOTH",
"1122 768 LINE SMOOTH",
"1139 768 OFFCURVE",
"1159 783 OFFCURVE",
"1164 800 CURVE SMOOTH",
"1185 864 LINE SMOOTH",
"1190 881 OFFCURVE",
"1182 896 OFFCURVE",
"1163 896 CURVE SMOOTH",
"555 896 LINE SMOOTH",
"538 896 OFFCURVE",
"518 881 OFFCURVE",
"513 864 CURVE SMOOTH"
);
}
);
width = 1664;
}
);
unicode = F02D;
},
{
glyphname = building;
layers = (
{
layerId = "4350166A-1D95-43E0-8855-54890F69E6B2";
name = Regular;
paths = (
{
closed = 1;
nodes = (
"384 160 LINE SMOOTH",
"384 143 OFFCURVE",
"369 128 OFFCURVE",
"352 128 CURVE SMOOTH",
"288 128 LINE SMOOTH",
"271 128 OFFCURVE",
"256 143 OFFCURVE",
"256 160 CURVE SMOOTH",
"256 224 LINE SMOOTH",
"256 241 OFFCURVE",
"271 256 OFFCURVE",
"288 256 CURVE SMOOTH",
"352 256 LINE SMOOTH",
"369 256 OFFCURVE",
"384 241 OFFCURVE",
"384 224 CURVE SMOOTH"
);
},
{
closed = 1;
nodes = (
"384 416 LINE SMOOTH",
"384 399 OFFCURVE",
"369 384 OFFCURVE",
"352 384 CURVE SMOOTH",
"288 384 LINE SMOOTH",
"271 384 OFFCURVE",
"256 399 OFFCURVE",
"256 416 CURVE SMOOTH",
"256 480 LINE SMOOTH",
"256 497 OFFCURVE",
"271 512 OFFCURVE",
"288 512 CURVE SMOOTH",
"352 512 LINE SMOOTH",
"369 512 OFFCURVE",
"384 497 OFFCURVE",
"384 480 CURVE SMOOTH"
);
},
{
closed = 1;
nodes = (
"640 416 LINE SMOOTH",
"640 399 OFFCURVE",
"625 384 OFFCURVE",
"608 384 CURVE SMOOTH",
"544 384 LINE SMOOTH",
"527 384 OFFCURVE",
"512 399 OFFCURVE",
"512 416 CURVE SMOOTH",
"512 480 LINE SMOOTH",
"512 497 OFFCURVE",
"527 512 OFFCURVE",
"544 512 CURVE SMOOTH",
"608 512 LINE SMOOTH",
"625 512 OFFCURVE",
"640 497 OFFCURVE",
"640 480 CURVE SMOOTH"
);
},
{
closed = 1;
nodes = (
"384 672 LINE SMOOTH",
"384 655 OFFCURVE",
"369 640 OFFCURVE",
"352 640 CURVE SMOOTH",
"288 640 LINE SMOOTH",
"271 640 OFFCURVE",
"256 655 OFFCURVE",
"256 672 CURVE SMOOTH",
"256 736 LINE SMOOTH",
"256 753 OFFCURVE",
"271 768 OFFCURVE",
"288 768 CURVE SMOOTH",
"352 768 LINE SMOOTH",
"369 768 OFFCURVE",
"384 753 OFFCURVE",
"384 736 CURVE SMOOTH"
);
},
{
closed = 1;
nodes = (
"1152 160 LINE SMOOTH",
"1152 143 OFFCURVE",
"1137 128 OFFCURVE",
"1120 128 CURVE SMOOTH",
"1056 128 LINE SMOOTH",
"1039 128 OFFCURVE",
"1024 143 OFFCURVE",
"1024 160 CURVE SMOOTH",
"1024 224 LINE SMOOTH",
"1024 241 OFFCURVE",
"1039 256 OFFCURVE",
"1056 256 CURVE SMOOTH",
"1120 256 LINE SMOOTH",
"1137 256 OFFCURVE",
"1152 241 OFFCURVE",
"1152 224 CURVE SMOOTH"
);
},
{
closed = 1;
nodes = (
"896 416 LINE SMOOTH",
"896 399 OFFCURVE",
"881 384 OFFCURVE",
"864 384 CURVE SMOOTH",
"800 384 LINE SMOOTH",
"783 384 OFFCURVE",
"768 399 OFFCURVE",
"768 416 CURVE SMOOTH",
"768 480 LINE SMOOTH",
"768 497 OFFCURVE",
"783 512 OFFCURVE",
"800 512 CURVE SMOOTH",
"864 512 LINE SMOOTH",
"881 512 OFFCURVE",
"896 497 OFFCURVE",
"896 480 CURVE SMOOTH"
);
},
{
closed = 1;
nodes = (
"640 672 LINE SMOOTH",
"640 655 OFFCURVE",
"625 640 OFFCURVE",
"608 640 CURVE SMOOTH",
"544 640 LINE SMOOTH",
"527 640 OFFCURVE",
"512 655 OFFCURVE",
"512 672 CURVE SMOOTH",
"512 736 LINE SMOOTH",
"512 753 OFFCURVE",
"527 768 OFFCURVE",
"544 768 CURVE SMOOTH",
"608 768 LINE SMOOTH",
"625 768 OFFCURVE",
"640 753 OFFCURVE",
"640 736 CURVE SMOOTH"
);
},
{
closed = 1;
nodes = (
"384 928 LINE SMOOTH",
"384 911 OFFCURVE",
"369 896 OFFCURVE",
"352 896 CURVE SMOOTH",
"288 896 LINE SMOOTH",
"271 896 OFFCURVE",
"256 911 OFFCURVE",
"256 928 CURVE SMOOTH",
"256 992 LINE SMOOTH",
"256 1009 OFFCURVE",
"271 1024 OFFCURVE",
"288 1024 CURVE SMOOTH",
"352 1024 LINE SMOOTH",
"369 1024 OFFCURVE",
"384 1009 OFFCURVE",
"384 992 CURVE SMOOTH"
);
},
{
closed = 1;
nodes = (
"1152 416 LINE SMOOTH",
"1152 399 OFFCURVE",
"1137 384 OFFCURVE",
"1120 384 CURVE SMOOTH",
"1056 384 LINE SMOOTH",
"1039 384 OFFCURVE",
"1024 399 OFFCURVE",
"1024 416 CURVE SMOOTH",
"1024 480 LINE SMOOTH",
"1024 497 OFFCURVE",
"1039 512 OFFCURVE",
"1056 512 CURVE SMOOTH",
"1120 512 LINE SMOOTH",
"1137 512 OFFCURVE",
"1152 497 OFFCURVE",
"1152 480 CURVE SMOOTH"
);
},
{
closed = 1;
nodes = (
"896 672 LINE SMOOTH",
"896 655 OFFCURVE",
"881 640 OFFCURVE",
"864 640 CURVE SMOOTH",
"800 640 LINE SMOOTH",
"783 640 OFFCURVE",
"768 655 OFFCURVE",
"768 672 CURVE SMOOTH",
"768 736 LINE SMOOTH",
"768 753 OFFCURVE",
"783 768 OFFCURVE",
"800 768 CURVE SMOOTH",
"864 768 LINE SMOOTH",
"881 768 OFFCURVE",
"896 753 OFFCURVE",
"896 736 CURVE SMOOTH"
);
},
{
closed = 1;
nodes = (
"640 928 LINE SMOOTH",
"640 911 OFFCURVE",
"625 896 OFFCURVE",
"608 896 CURVE SMOOTH",
"544 896 LINE SMOOTH",
"527 896 OFFCURVE",
"512 911 OFFCURVE",
"512 928 CURVE SMOOTH",
"512 992 LINE SMOOTH",
"512 1009 OFFCURVE",
"527 1024 OFFCURVE",
"544 1024 CURVE SMOOTH",
"608 1024 LINE SMOOTH",
"625 1024 OFFCURVE",
"640 1009 OFFCURVE",
"640 992 CURVE SMOOTH"
);
},
{
closed = 1;
nodes = (
"384 1184 LINE SMOOTH",
"384 1167 OFFCURVE",
"369 1152 OFFCURVE",
"352 1152 CURVE SMOOTH",
"288 1152 LINE SMOOTH",
"271 1152 OFFCURVE",
"256 1167 OFFCURVE",
"256 1184 CURVE SMOOTH",
"256 1248 LINE SMOOTH",
"256 1265 OFFCURVE",
"271 1280 OFFCURVE",
"288 1280 CURVE SMOOTH",
"352 1280 LINE SMOOTH",
"369 1280 OFFCURVE",
"384 1265 OFFCURVE",
"384 1248 CURVE SMOOTH"
);
},
{
closed = 1;
nodes = (
"1152 672 LINE SMOOTH",
"1152 655 OFFCURVE",
"1137 640 OFFCURVE",
"1120 640 CURVE SMOOTH",
"1056 640 LINE SMOOTH",
"1039 640 OFFCURVE",
"1024 655 OFFCURVE",
"1024 672 CURVE SMOOTH",
"1024 736 LINE SMOOTH",
"1024 753 OFFCURVE",
"1039 768 OFFCURVE",
"1056 768 CURVE SMOOTH",
"1120 768 LINE SMOOTH",
"1137 768 OFFCURVE",
"1152 753 OFFCURVE",
"1152 736 CURVE SMOOTH"
);
},
{
closed = 1;
nodes = (
"896 928 LINE SMOOTH",
"896 911 OFFCURVE",
"881 896 OFFCURVE",
"864 896 CURVE SMOOTH",
"800 896 LINE SMOOTH",
"783 896 OFFCURVE",
"768 911 OFFCURVE",
"768 928 CURVE SMOOTH",
"768 992 LINE SMOOTH",
"768 1009 OFFCURVE",
"783 1024 OFFCURVE",
"800 1024 CURVE SMOOTH",
"864 1024 LINE SMOOTH",
"881 1024 OFFCURVE",
"896 1009 OFFCURVE",
"896 992 CURVE SMOOTH"
);
},
{
closed = 1;
nodes = (
"640 1184 LINE SMOOTH",
"640 1167 OFFCURVE",
"625 1152 OFFCURVE",
"608 1152 CURVE SMOOTH",
"544 1152 LINE SMOOTH",
"527 1152 OFFCURVE",
"512 1167 OFFCURVE",
"512 1184 CURVE SMOOTH",
"512 1248 LINE SMOOTH",
"512 1265 OFFCURVE",
"527 1280 OFFCURVE",
"544 1280 CURVE SMOOTH",
"608 1280 LINE SMOOTH",
"625 1280 OFFCURVE",
"640 1265 OFFCURVE",
"640 1248 CURVE SMOOTH"
);
},
{
closed = 1;
nodes = (
"1152 928 LINE SMOOTH",
"1152 911 OFFCURVE",
"1137 896 OFFCURVE",
"1120 896 CURVE SMOOTH",
"1056 896 LINE SMOOTH",
"1039 896 OFFCURVE",
"1024 911 OFFCURVE",
"1024 928 CURVE SMOOTH",
"1024 992 LINE SMOOTH",
"1024 1009 OFFCURVE",
"1039 1024 OFFCURVE",
"1056 1024 CURVE SMOOTH",
"1120 1024 LINE SMOOTH",
"1137 1024 OFFCURVE",
"1152 1009 OFFCURVE",
"1152 992 CURVE SMOOTH"
);
},
{
closed = 1;
nodes = (
"896 1184 LINE SMOOTH",
"896 1167 OFFCURVE",
"881 1152 OFFCURVE",
"864 1152 CURVE SMOOTH",
"800 1152 LINE SMOOTH",
"783 1152 OFFCURVE",
"768 1167 OFFCURVE",
"768 1184 CURVE SMOOTH",
"768 1248 LINE SMOOTH",
"768 1265 OFFCURVE",
"783 1280 OFFCURVE",
"800 1280 CURVE SMOOTH",
"864 1280 LINE SMOOTH",
"881 1280 OFFCURVE",
"896 1265 OFFCURVE",
"896 1248 CURVE SMOOTH"
);
},
{
closed = 1;
nodes = (
"1152 1184 LINE SMOOTH",
"1152 1167 OFFCURVE",
"1137 1152 OFFCURVE",
"1120 1152 CURVE SMOOTH",
"1056 1152 LINE SMOOTH",
"1039 1152 OFFCURVE",
"1024 1167 OFFCURVE",
"1024 1184 CURVE SMOOTH",
"1024 1248 LINE SMOOTH",
"1024 1265 OFFCURVE",
"1039 1280 OFFCURVE",
"1056 1280 CURVE SMOOTH",
"1120 1280 LINE SMOOTH",
"1137 1280 OFFCURVE",
"1152 1265 OFFCURVE",
"1152 1248 CURVE SMOOTH"
);
},
{
closed = 1;
nodes = (
"896 -128 LINE",
"1280 -128 LINE",
"1280 1408 LINE",
"128 1408 LINE",
"128 -128 LINE",
"512 -128 LINE",
"512 96 LINE SMOOTH",
"512 113 OFFCURVE",
"527 128 OFFCURVE",
"544 128 CURVE SMOOTH",
"864 128 LINE SMOOTH",
"881 128 OFFCURVE",
"896 113 OFFCURVE",
"896 96 CURVE SMOOTH"
);
},
{
closed = 1;
nodes = (
"1408 -192 LINE SMOOTH",
"1408 -227 OFFCURVE",
"1379 -256 OFFCURVE",
"1344 -256 CURVE SMOOTH",
"64 -256 LINE SMOOTH",
"29 -256 OFFCURVE",
"0 -227 OFFCURVE",
"0 -192 CURVE SMOOTH",
"0 1472 LINE SMOOTH",
"0 1507 OFFCURVE",
"29 1536 OFFCURVE",
"64 1536 CURVE SMOOTH",
"1344 1536 LINE SMOOTH",
"1379 1536 OFFCURVE",
"1408 1507 OFFCURVE",
"1408 1472 CURVE SMOOTH"
);
}
);
width = 1408;
}
);
unicode = F0F7;
},
{
glyphname = bullhorn;
layers = (
{
layerId = "4350166A-1D95-43E0-8855-54890F69E6B2";
name = Regular;
paths = (
{
closed = 1;
nodes = (
"1664 896 LINE",
"1735 896 OFFCURVE",
"1792 839 OFFCURVE",
"1792 768 CURVE SMOOTH",
"1792 697 OFFCURVE",
"1735 640 OFFCURVE",
"1664 640 CURVE",
"1664 256 LINE SMOOTH",
"1664 187 OFFCURVE",
"1605 128 OFFCURVE",
"1536 128 CURVE",
"1258 359 OFFCURVE",
"987 486 OFFCURVE",
"724 508 CURVE",
"647 483 OFFCURVE",
"599 413 OFFCURVE",
"602 342 CURVE SMOOTH",
"603 306 OFFCURVE",
"617 275 OFFCURVE",
"642 249 CURVE",
"615 205 OFFCURVE",
"613 160 OFFCURVE",
"625 126 CURVE SMOOTH",
"637 92 OFFCURVE",
"675 48 OFFCURVE",
"707 21 CURVE",
"722 7 OFFCURVE",
"743 -10 OFFCURVE",
"768 -30 CURVE",
"729 -107 OFFCURVE",
"603 -142 OFFCURVE",
"488 -124 CURVE SMOOTH",
"431 -115 OFFCURVE",
"387 -97 OFFCURVE",
"356 -69 CURVE",
"351 -54 OFFCURVE",
"342 -24 OFFCURVE",
"327 19 CURVE SMOOTH",
"297 105 OFFCURVE",
"290 123 OFFCURVE",
"272 202 CURVE SMOOTH",
"254 281 OFFCURVE",
"253 326 OFFCURVE",
"260 402 CURVE SMOOTH",
"263 439 OFFCURVE",
"271 476 OFFCURVE",
"282 512 CURVE",
"160 512 LINE SMOOTH",
"72 512 OFFCURVE",
"0 584 OFFCURVE",
"0 672 CURVE SMOOTH",
"0 864 LINE SMOOTH",
"0 952 OFFCURVE",
"72 1024 OFFCURVE",
"160 1024 CURVE SMOOTH",
"640 1024 LINE SMOOTH",
"930 1024 OFFCURVE",
"1229 1152 OFFCURVE",
"1536 1408 CURVE",
"1605 1408 OFFCURVE",
"1664 1349 OFFCURVE",
"1664 1280 CURVE SMOOTH"
);
},
{
closed = 1;
nodes = (
"1536 1246 LINE",
"1273 1045 OFFCURVE",
"1017 930 OFFCURVE",
"768 903 CURVE",
"768 633 LINE",
"1019 605 OFFCURVE",
"1275 491 OFFCURVE",
"1536 292 CURVE"
);
}
);
width = 1792;
}
);
unicode = F0A1;
},
{
glyphname = certificate;
layers = (
{
layerId = "4350166A-1D95-43E0-8855-54890F69E6B2";
name = Regular;
paths = (
{
closed = 1;
nodes = (
"1376 640 LINE",
"1514 505 LINE SMOOTH",
"1534 486 OFFCURVE",
"1541 463 OFFCURVE",
"1534 435 CURVE",
"1526 408 OFFCURVE",
"1509 391 OFFCURVE",
"1482 384 CURVE SMOOTH",
"1294 336 LINE",
"1347 150 LINE SMOOTH",
"1355 123 OFFCURVE",
"1349 99 OFFCURVE",
"1328 80 CURVE",
"1309 59 OFFCURVE",
"1285 53 OFFCURVE",
"1258 61 CURVE SMOOTH",
"1072 114 LINE",
"1024 -74 LINE SMOOTH",
"1017 -101 OFFCURVE",
"1000 -118 OFFCURVE",
"973 -126 CURVE",
"965 -127 OFFCURVE",
"959 -128 OFFCURVE",
"954 -128 CURVE SMOOTH",
"933 -128 OFFCURVE",
"916 -121 OFFCURVE",
"903 -106 CURVE",
"768 32 LINE",
"633 -106 LINE SMOOTH",
"596 -146 OFFCURVE",
"525 -129 OFFCURVE",
"512 -74 CURVE SMOOTH",
"464 114 LINE",
"278 61 LINE SMOOTH",
"251 53 OFFCURVE",
"227 59 OFFCURVE",
"208 80 CURVE",
"187 99 OFFCURVE",
"181 123 OFFCURVE",
"189 150 CURVE SMOOTH",
"242 336 LINE",
"54 384 LINE SMOOTH",
"27 391 OFFCURVE",
"10 408 OFFCURVE",
"2 435 CURVE",
"-5 463 OFFCURVE",
"2 486 OFFCURVE",
"22 505 CURVE SMOOTH",
"160 640 LINE",
"22 775 LINE SMOOTH",
"2 794 OFFCURVE",
"-5 817 OFFCURVE",
"2 845 CURVE",
"10 872 OFFCURVE",
"27 889 OFFCURVE",
"54 896 CURVE SMOOTH",
"242 944 LINE",
"189 1130 LINE SMOOTH",
"181 1157 OFFCURVE",
"187 1181 OFFCURVE",
"208 1200 CURVE",
"227 1221 OFFCURVE",
"251 1227 OFFCURVE",
"278 1219 CURVE SMOOTH",
"464 1166 LINE",
"512 1354 LINE SMOOTH",
"525 1409 OFFCURVE",
"594 1427 OFFCURVE",
"633 1386 CURVE SMOOTH",
"768 1247 LINE",
"903 1386 LINE SMOOTH",
"942 1426 OFFCURVE",
"1011 1409 OFFCURVE",
"1024 1354 CURVE SMOOTH",
"1072 1166 LINE",
"1258 1219 LINE SMOOTH",
"1285 1227 OFFCURVE",
"1309 1221 OFFCURVE",
"1328 1200 CURVE",
"1349 1181 OFFCURVE",
"1355 1157 OFFCURVE",
"1347 1130 CURVE SMOOTH",
"1294 944 LINE",
"1482 896 LINE SMOOTH",
"1509 889 OFFCURVE",
"1526 872 OFFCURVE",
"1534 845 CURVE",
"1541 817 OFFCURVE",
"1534 794 OFFCURVE",
"1514 775 CURVE SMOOTH"
);
}
);
width = 1536;
}
);
unicode = F0A3;
},
{
glyphname = check;
layers = (
{
layerId = "4350166A-1D95-43E0-8855-54890F69E6B2";
name = Regular;
paths = (
{
closed = 1;
nodes = (
"1408 288 LINE SMOOTH",
"1408 129 OFFCURVE",
"1279 0 OFFCURVE",
"1120 0 CURVE SMOOTH",
"288 0 LINE SMOOTH",
"129 0 OFFCURVE",
"0 129 OFFCURVE",
"0 288 CURVE SMOOTH",
"0 1120 LINE SMOOTH",
"0 1279 OFFCURVE",
"129 1408 OFFCURVE",
"288 1408 CURVE SMOOTH",
"1120 1408 LINE SMOOTH",
"1162 1408 OFFCURVE",
"1201 1400 OFFCURVE",
"1237 1383 CURVE SMOOTH",
"1257 1374 OFFCURVE",
"1262 1347 OFFCURVE",
"1246 1331 CURVE SMOOTH",
"1197 1282 LINE SMOOTH",
"1190 1275 OFFCURVE",
"1183 1272 OFFCURVE",
"1174 1272 CURVE SMOOTH",
"1172 1272 OFFCURVE",
"1169 1273 OFFCURVE",
"1165 1274 CURVE SMOOTH",
"1150 1278 OFFCURVE",
"1135 1280 OFFCURVE",
"1120 1280 CURVE SMOOTH",
"288 1280 LINE SMOOTH",
"200 1280 OFFCURVE",
"128 1208 OFFCURVE",
"128 1120 CURVE SMOOTH",
"128 288 LINE SMOOTH",
"128 200 OFFCURVE",
"200 128 OFFCURVE",
"288 128 CURVE SMOOTH",
"1120 128 LINE SMOOTH",
"1208 128 OFFCURVE",
"1280 200 OFFCURVE",
"1280 288 CURVE SMOOTH",
"1280 542 LINE SMOOTH",
"1280 551 OFFCURVE",
"1283 558 OFFCURVE",
"1289 564 CURVE SMOOTH",
"1353 628 LINE SMOOTH",
"1360 635 OFFCURVE",
"1367 638 OFFCURVE",
"1376 638 CURVE SMOOTH",
"1380 638 OFFCURVE",
"1384 637 OFFCURVE",
"1388 635 CURVE",
"1401 630 OFFCURVE",
"1408 620 OFFCURVE",
"1408 606 CURVE SMOOTH"
);
},
{
closed = 1;
nodes = (
"825 281 LINE SMOOTH",
"809 265 OFFCURVE",
"790 257 OFFCURVE",
"768 257 CURVE SMOOTH",
"746 257 OFFCURVE",
"727 265 OFFCURVE",
"711 281 CURVE SMOOTH",
"281 711 LINE SMOOTH",
"265 727 OFFCURVE",
"257 746 OFFCURVE",
"257 768 CURVE SMOOTH",
"257 790 OFFCURVE",
"265 809 OFFCURVE",
"281 825 CURVE SMOOTH",
"391 935 LINE SMOOTH",
"407 951 OFFCURVE",
"426 959 OFFCURVE",
"448 959 CURVE SMOOTH",
"470 959 OFFCURVE",
"489 951 OFFCURVE",
"505 935 CURVE SMOOTH",
"768 672 LINE",
"1415 1319 LINE SMOOTH",
"1431 1335 OFFCURVE",
"1450 1343 OFFCURVE",
"1472 1343 CURVE SMOOTH",
"1494 1343 OFFCURVE",
"1513 1335 OFFCURVE",
"1529 1319 CURVE SMOOTH",
"1639 1209 LINE SMOOTH",
"1655 1193 OFFCURVE",
"1663 1174 OFFCURVE",
"1663 1152 CURVE SMOOTH",
"1663 1130 OFFCURVE",
"1655 1111 OFFCURVE",
"1639 1095 CURVE SMOOTH"
);
}
);
width = 1664;
}
);
unicode = F046;
},
{
glyphname = check_empty;
layers = (
{
layerId = "4350166A-1D95-43E0-8855-54890F69E6B2";
name = Regular;
paths = (
{
closed = 1;
nodes = (
"288 1280 LINE SMOOTH",
"200 1280 OFFCURVE",
"128 1208 OFFCURVE",
"128 1120 CURVE SMOOTH",
"128 288 LINE SMOOTH",
"128 200 OFFCURVE",
"200 128 OFFCURVE",
"288 128 CURVE SMOOTH",
"1120 128 LINE SMOOTH",
"1208 128 OFFCURVE",
"1280 200 OFFCURVE",
"1280 288 CURVE SMOOTH",
"1280 1120 LINE SMOOTH",
"1280 1208 OFFCURVE",
"1208 1280 OFFCURVE",
"1120 1280 CURVE SMOOTH"
);
},
{
closed = 1;
nodes = (
"1408 288 LINE SMOOTH",
"1408 129 OFFCURVE",
"1279 0 OFFCURVE",
"1120 0 CURVE SMOOTH",
"288 0 LINE SMOOTH",
"129 0 OFFCURVE",
"0 129 OFFCURVE",
"0 288 CURVE SMOOTH",
"0 1120 LINE SMOOTH",
"0 1279 OFFCURVE",
"129 1408 OFFCURVE",
"288 1408 CURVE SMOOTH",
"1120 1408 LINE SMOOTH",
"1279 1408 OFFCURVE",
"1408 1279 OFFCURVE",
"1408 1120 CURVE SMOOTH"
);
}
);
width = 1664;
}
);
unicode = F096;
},
{
glyphname = chevron_down;
layers = (
{
layerId = "4350166A-1D95-43E0-8855-54890F69E6B2";
name = Regular;
paths = (
{
closed = 1;
nodes = (
"1611 797 OFFCURVE",
"1599 767 OFFCURVE",
"1574 742 CURVE SMOOTH",
"923 91 LINE SMOOTH",
"898 66 OFFCURVE",
"867 53 OFFCURVE",
"832 53 CURVE SMOOTH",
"796 53 OFFCURVE",
"766 66 OFFCURVE",
"742 91 CURVE SMOOTH",
"91 742 LINE SMOOTH",
"66 766 OFFCURVE",
"53 796 OFFCURVE",
"53 832 CURVE SMOOTH",
"53 867 OFFCURVE",
"66 898 OFFCURVE",
"91 923 CURVE SMOOTH",
"165 998 LINE SMOOTH",
"191 1023 OFFCURVE",
"221 1035 OFFCURVE",
"256 1035 CURVE SMOOTH",
"291 1035 OFFCURVE",
"321 1023 OFFCURVE",
"346 998 CURVE SMOOTH",
"832 512 LINE",
"1318 998 LINE SMOOTH",
"1343 1023 OFFCURVE",
"1373 1035 OFFCURVE",
"1408 1035 CURVE SMOOTH",
"1443 1035 OFFCURVE",
"1473 1023 OFFCURVE",
"1499 998 CURVE SMOOTH",
"1574 923 LINE SMOOTH",
"1599 897 OFFCURVE",
"1611 867 OFFCURVE",
"1611 832 CURVE SMOOTH"
);
}
);
width = 1664;
}
);
unicode = F078;
},
{
glyphname = chevron_left;
layers = (
{
layerId = "4350166A-1D95-43E0-8855-54890F69E6B2";
name = Regular;
paths = (
{
closed = 1;
nodes = (
"90 614 LINE SMOOTH",
"65 639 OFFCURVE",
"53 669 OFFCURVE",
"53 705 CURVE SMOOTH",
"53 740 OFFCURVE",
"65 770 OFFCURVE",
"90 795 CURVE SMOOTH",
"742 1446 LINE SMOOTH",
"767 1471 OFFCURVE",
"797 1483 OFFCURVE",
"833 1483 CURVE SMOOTH",
"868 1483 OFFCURVE",
"898 1471 OFFCURVE",
"923 1446 CURVE SMOOTH",
"998 1371 LINE SMOOTH",
"1023 1346 OFFCURVE",
"1035 1316 OFFCURVE",
"1035 1281 CURVE SMOOTH",
"1035 1245 OFFCURVE",
"1023 1215 OFFCURVE",
"998 1190 CURVE SMOOTH",
"512 704 LINE",
"998 219 LINE SMOOTH",
"1023 194 OFFCURVE",
"1035 163 OFFCURVE",
"1035 128 CURVE SMOOTH",
"1035 93 OFFCURVE",
"1023 63 OFFCURVE",
"998 38 CURVE SMOOTH",
"923 -37 LINE SMOOTH",
"898 -62 OFFCURVE",
"868 -74 OFFCURVE",
"833 -74 CURVE SMOOTH",
"797 -74 OFFCURVE",
"767 -62 OFFCURVE",
"742 -37 CURVE SMOOTH"
);
}
);
width = 1152;
}
);
unicode = F053;
},
{
glyphname = chevron_right;
layers = (
{
layerId = "4350166A-1D95-43E0-8855-54890F69E6B2";
name = Regular;
paths = (
{
closed = 1;
nodes = (
"1099 669 OFFCURVE",
"1087 639 OFFCURVE",
"1062 613 CURVE SMOOTH",
"410 -38 LINE SMOOTH",
"385 -63 OFFCURVE",
"355 -75 OFFCURVE",
"320 -75 CURVE SMOOTH",
"285 -75 OFFCURVE",
"255 -63 OFFCURVE",
"230 -38 CURVE SMOOTH",
"154 37 LINE SMOOTH",
"129 63 OFFCURVE",
"117 93 OFFCURVE",
"117 128 CURVE SMOOTH",
"117 163 OFFCURVE",
"129 193 OFFCURVE",
"154 218 CURVE SMOOTH",
"640 704 LINE",
"154 1189 LINE SMOOTH",
"129 1215 OFFCURVE",
"117 1245 OFFCURVE",
"117 1280 CURVE SMOOTH",
"117 1315 OFFCURVE",
"129 1345 OFFCURVE",
"154 1370 CURVE SMOOTH",
"230 1445 LINE SMOOTH",
"254 1470 OFFCURVE",
"284 1483 OFFCURVE",
"320 1483 CURVE SMOOTH",
"356 1483 OFFCURVE",
"386 1470 OFFCURVE",
"410 1445 CURVE SMOOTH",
"1062 794 LINE SMOOTH",
"1087 769 OFFCURVE",
"1099 739 OFFCURVE",
"1099 704 CURVE SMOOTH"
);
}
);
width = 1152;
}
);
unicode = F054;
},
{
glyphname = chevron_up;
layers = (
{
layerId = "4350166A-1D95-43E0-8855-54890F69E6B2";
name = Regular;
paths = (
{
closed = 1;
nodes = (
"1573 411 LINE SMOOTH",
"1598 386 OFFCURVE",
"1611 355 OFFCURVE",
"1611 320 CURVE SMOOTH",
"1611 285 OFFCURVE",
"1599 255 OFFCURVE",
"1574 230 CURVE SMOOTH",
"1499 155 LINE SMOOTH",
"1474 130 OFFCURVE",
"1443 117 OFFCURVE",
"1408 117 CURVE SMOOTH",
"1372 117 OFFCURVE",
"1342 130 OFFCURVE",
"1318 155 CURVE SMOOTH",
"832 640 LINE",
"346 155 LINE SMOOTH",
"322 130 OFFCURVE",
"292 117 OFFCURVE",
"256 117 CURVE SMOOTH",
"220 117 OFFCURVE",
"190 130 OFFCURVE",
"166 155 CURVE SMOOTH",
"91 230 LINE SMOOTH",
"66 254 OFFCURVE",
"53 284 OFFCURVE",
"53 320 CURVE SMOOTH",
"53 355 OFFCURVE",
"66 386 OFFCURVE",
"91 411 CURVE SMOOTH",
"742 1062 LINE SMOOTH",
"767 1087 OFFCURVE",
"797 1099 OFFCURVE",
"832 1099 CURVE SMOOTH",
"867 1099 OFFCURVE",
"897 1087 OFFCURVE",
"923 1062 CURVE SMOOTH"
);
}
);
width = 1664;
}
);
unicode = F077;
},
{
glyphname = circle;
layers = (
{
layerId = "4350166A-1D95-43E0-8855-54890F69E6B2";
name = Regular;
paths = (
{
closed = 1;
nodes = (
"1502 908 OFFCURVE",
"1536 779 OFFCURVE",
"1536 640 CURVE SMOOTH",
"1536 361 OFFCURVE",
"1389 112 OFFCURVE",
"1154 -25 CURVE SMOOTH",
"1036 -94 OFFCURVE",
"907 -128 OFFCURVE",
"768 -128 CURVE SMOOTH",
"489 -128 OFFCURVE",
"240 19 OFFCURVE",
"103 255 CURVE SMOOTH",
"34 372 OFFCURVE",
"0 501 OFFCURVE",
"0 640 CURVE SMOOTH",
"0 919 OFFCURVE",
"147 1168 OFFCURVE",
"383 1305 CURVE SMOOTH",
"500 1374 OFFCURVE",
"629 1408 OFFCURVE",
"768 1408 CURVE SMOOTH",
"1047 1408 OFFCURVE",
"1296 1261 OFFCURVE",
"1433 1026 CURVE SMOOTH"
);
}
);
width = 1536;
}
);
unicode = F111;
},
{
glyphname = circle_arrow_down;
layers = (
{
layerId = "4350166A-1D95-43E0-8855-54890F69E6B2";
name = Regular;
paths = (
{
closed = 1;
nodes = (
"1266 594 LINE SMOOTH",
"1278 606 OFFCURVE",
"1284 621 OFFCURVE",
"1284 639 CURVE SMOOTH",
"1284 657 OFFCURVE",
"1278 672 OFFCURVE",
"1266 684 CURVE SMOOTH",
"1175 775 LINE SMOOTH",
"1163 787 OFFCURVE",
"1148 793 OFFCURVE",
"1130 793 CURVE SMOOTH",
"1112 793 OFFCURVE",
"1097 787 OFFCURVE",
"1085 775 CURVE SMOOTH",
"896 586 LINE",
"896 1088 LINE SMOOTH",
"896 1123 OFFCURVE",
"867 1152 OFFCURVE",
"832 1152 CURVE SMOOTH",
"704 1152 LINE SMOOTH",
"669 1152 OFFCURVE",
"640 1123 OFFCURVE",
"640 1088 CURVE SMOOTH",
"640 586 LINE",
"451 775 LINE SMOOTH",
"438 788 OFFCURVE",
"423 794 OFFCURVE",
"406 794 CURVE SMOOTH",
"389 794 OFFCURVE",
"374 788 OFFCURVE",
"361 775 CURVE SMOOTH",
"270 684 LINE SMOOTH",
"258 672 OFFCURVE",
"252 657 OFFCURVE",
"252 639 CURVE SMOOTH",
"252 621 OFFCURVE",
"258 606 OFFCURVE",
"270 594 CURVE SMOOTH",
"632 232 LINE",
"723 141 LINE SMOOTH",
"735 129 OFFCURVE",
"750 123 OFFCURVE",
"768 123 CURVE SMOOTH",
"786 123 OFFCURVE",
"801 129 OFFCURVE",
"813 141 CURVE SMOOTH",
"904 232 LINE"
);
},
{
closed = 1;
nodes = (
"1502 908 OFFCURVE",
"1536 779 OFFCURVE",
"1536 640 CURVE SMOOTH",
"1536 361 OFFCURVE",
"1389 112 OFFCURVE",
"1154 -25 CURVE SMOOTH",
"1036 -94 OFFCURVE",
"907 -128 OFFCURVE",
"768 -128 CURVE SMOOTH",
"489 -128 OFFCURVE",
"240 19 OFFCURVE",
"103 255 CURVE SMOOTH",
"34 372 OFFCURVE",
"0 501 OFFCURVE",
"0 640 CURVE SMOOTH",
"0 919 OFFCURVE",
"147 1168 OFFCURVE",
"383 1305 CURVE SMOOTH",
"500 1374 OFFCURVE",
"629 1408 OFFCURVE",
"768 1408 CURVE SMOOTH",
"1047 1408 OFFCURVE",
"1296 1261 OFFCURVE",
"1433 1026 CURVE SMOOTH"
);
}
);
width = 1536;
}
);
unicode = F0AB;
},
{
glyphname = circle_arrow_left;
layers = (
{
layerId = "4350166A-1D95-43E0-8855-54890F69E6B2";
name = Regular;
paths = (
{
closed = 1;
nodes = (
"1280 704 LINE SMOOTH",
"1280 739 OFFCURVE",
"1251 768 OFFCURVE",
"1216 768 CURVE SMOOTH",
"714 768 LINE",
"903 957 LINE SMOOTH",
"916 970 OFFCURVE",
"922 985 OFFCURVE",
"922 1002 CURVE SMOOTH",
"922 1019 OFFCURVE",
"916 1034 OFFCURVE",
"903 1047 CURVE SMOOTH",
"812 1138 LINE SMOOTH",
"800 1150 OFFCURVE",
"785 1156 OFFCURVE",
"767 1156 CURVE SMOOTH",
"749 1156 OFFCURVE",
"734 1150 OFFCURVE",
"722 1138 CURVE SMOOTH",
"360 776 LINE",
"269 685 LINE SMOOTH",
"257 673 OFFCURVE",
"251 658 OFFCURVE",
"251 640 CURVE SMOOTH",
"251 622 OFFCURVE",
"257 607 OFFCURVE",
"269 595 CURVE SMOOTH",
"360 504 LINE",
"722 142 LINE SMOOTH",
"734 130 OFFCURVE",
"749 124 OFFCURVE",
"767 124 CURVE SMOOTH",
"785 124 OFFCURVE",
"800 130 OFFCURVE",
"812 142 CURVE SMOOTH",
"903 233 LINE SMOOTH",
"915 245 OFFCURVE",
"921 260 OFFCURVE",
"921 278 CURVE SMOOTH",
"921 296 OFFCURVE",
"915 311 OFFCURVE",
"903 323 CURVE SMOOTH",
"714 512 LINE",
"1216 512 LINE SMOOTH",
"1251 512 OFFCURVE",
"1280 541 OFFCURVE",
"1280 576 CURVE SMOOTH"
);
},
{
closed = 1;
nodes = (
"1502 908 OFFCURVE",
"1536 779 OFFCURVE",
"1536 640 CURVE SMOOTH",
"1536 361 OFFCURVE",
"1389 112 OFFCURVE",
"1154 -25 CURVE SMOOTH",
"1036 -94 OFFCURVE",
"907 -128 OFFCURVE",
"768 -128 CURVE SMOOTH",
"489 -128 OFFCURVE",
"240 19 OFFCURVE",
"103 255 CURVE SMOOTH",
"34 372 OFFCURVE",
"0 501 OFFCURVE",
"0 640 CURVE SMOOTH",
"0 919 OFFCURVE",
"147 1168 OFFCURVE",
"383 1305 CURVE SMOOTH",
"500 1374 OFFCURVE",
"629 1408 OFFCURVE",
"768 1408 CURVE SMOOTH",
"1047 1408 OFFCURVE",
"1296 1261 OFFCURVE",
"1433 1026 CURVE SMOOTH"
);
}
);
width = 1536;
}
);
unicode = F0A8;
},
{
glyphname = circle_arrow_right;
layers = (
{
layerId = "4350166A-1D95-43E0-8855-54890F69E6B2";
name = Regular;
paths = (
{
closed = 1;
nodes = (
"1267 595 LINE SMOOTH",
"1279 607 OFFCURVE",
"1285 622 OFFCURVE",
"1285 640 CURVE SMOOTH",
"1285 658 OFFCURVE",
"1279 673 OFFCURVE",
"1267 685 CURVE SMOOTH",
"1176 776 LINE",
"814 1138 LINE SMOOTH",
"802 1150 OFFCURVE",
"787 1156 OFFCURVE",
"769 1156 CURVE SMOOTH",
"751 1156 OFFCURVE",
"736 1150 OFFCURVE",
"724 1138 CURVE SMOOTH",
"633 1047 LINE SMOOTH",
"621 1035 OFFCURVE",
"615 1020 OFFCURVE",
"615 1002 CURVE SMOOTH",
"615 984 OFFCURVE",
"621 969 OFFCURVE",
"633 957 CURVE SMOOTH",
"822 768 LINE",
"320 768 LINE SMOOTH",
"285 768 OFFCURVE",
"256 739 OFFCURVE",
"256 704 CURVE SMOOTH",
"256 576 LINE SMOOTH",
"256 541 OFFCURVE",
"285 512 OFFCURVE",
"320 512 CURVE SMOOTH",
"822 512 LINE",
"633 323 LINE SMOOTH",
"620 310 OFFCURVE",
"614 295 OFFCURVE",
"614 278 CURVE SMOOTH",
"614 261 OFFCURVE",
"620 246 OFFCURVE",
"633 233 CURVE SMOOTH",
"724 142 LINE SMOOTH",
"736 130 OFFCURVE",
"751 124 OFFCURVE",
"769 124 CURVE SMOOTH",
"787 124 OFFCURVE",
"802 130 OFFCURVE",
"814 142 CURVE SMOOTH",
"1176 504 LINE"
);
},
{
closed = 1;
nodes = (
"1502 908 OFFCURVE",
"1536 779 OFFCURVE",
"1536 640 CURVE SMOOTH",
"1536 361 OFFCURVE",
"1389 112 OFFCURVE",
"1154 -25 CURVE SMOOTH",
"1036 -94 OFFCURVE",
"907 -128 OFFCURVE",
"768 -128 CURVE SMOOTH",
"489 -128 OFFCURVE",
"240 19 OFFCURVE",
"103 255 CURVE SMOOTH",
"34 372 OFFCURVE",
"0 501 OFFCURVE",
"0 640 CURVE SMOOTH",
"0 919 OFFCURVE",
"147 1168 OFFCURVE",
"383 1305 CURVE SMOOTH",
"500 1374 OFFCURVE",
"629 1408 OFFCURVE",
"768 1408 CURVE SMOOTH",
"1047 1408 OFFCURVE",
"1296 1261 OFFCURVE",
"1433 1026 CURVE SMOOTH"
);
}
);
width = 1536;
}
);
unicode = F0A9;
},
{
glyphname = circle_arrow_up;
layers = (
{
layerId = "4350166A-1D95-43E0-8855-54890F69E6B2";
name = Regular;
paths = (
{
closed = 1;
nodes = (
"1266 596 LINE SMOOTH",
"1278 608 OFFCURVE",
"1284 623 OFFCURVE",
"1284 641 CURVE SMOOTH",
"1284 659 OFFCURVE",
"1278 674 OFFCURVE",
"1266 686 CURVE SMOOTH",
"904 1048 LINE",
"813 1139 LINE SMOOTH",
"801 1151 OFFCURVE",
"786 1157 OFFCURVE",
"768 1157 CURVE SMOOTH",
"750 1157 OFFCURVE",
"735 1151 OFFCURVE",
"723 1139 CURVE SMOOTH",
"632 1048 LINE",
"270 686 LINE SMOOTH",
"258 674 OFFCURVE",
"252 659 OFFCURVE",
"252 641 CURVE SMOOTH",
"252 623 OFFCURVE",
"258 608 OFFCURVE",
"270 596 CURVE SMOOTH",
"361 505 LINE SMOOTH",
"373 493 OFFCURVE",
"388 487 OFFCURVE",
"406 487 CURVE SMOOTH",
"424 487 OFFCURVE",
"439 493 OFFCURVE",
"451 505 CURVE SMOOTH",
"640 694 LINE",
"640 192 LINE SMOOTH",
"640 157 OFFCURVE",
"669 128 OFFCURVE",
"704 128 CURVE SMOOTH",
"832 128 LINE SMOOTH",
"867 128 OFFCURVE",
"896 157 OFFCURVE",
"896 192 CURVE SMOOTH",
"896 694 LINE",
"1085 505 LINE SMOOTH",
"1098 492 OFFCURVE",
"1113 486 OFFCURVE",
"1130 486 CURVE SMOOTH",
"1147 486 OFFCURVE",
"1162 492 OFFCURVE",
"1175 505 CURVE SMOOTH"
);
},
{
closed = 1;
nodes = (
"1502 908 OFFCURVE",
"1536 779 OFFCURVE",
"1536 640 CURVE SMOOTH",
"1536 361 OFFCURVE",
"1389 112 OFFCURVE",
"1154 -25 CURVE SMOOTH",
"1036 -94 OFFCURVE",
"907 -128 OFFCURVE",
"768 -128 CURVE SMOOTH",
"489 -128 OFFCURVE",
"240 19 OFFCURVE",
"103 255 CURVE SMOOTH",
"34 372 OFFCURVE",
"0 501 OFFCURVE",
"0 640 CURVE SMOOTH",
"0 919 OFFCURVE",
"147 1168 OFFCURVE",
"383 1305 CURVE SMOOTH",
"500 1374 OFFCURVE",
"629 1408 OFFCURVE",
"768 1408 CURVE SMOOTH",
"1047 1408 OFFCURVE",
"1296 1261 OFFCURVE",
"1433 1026 CURVE SMOOTH"
);
}
);
width = 1536;
}
);
unicode = F0AA;
},
{
glyphname = circle_blank;
layers = (
{
layerId = "4350166A-1D95-43E0-8855-54890F69E6B2";
name = Regular;
paths = (
{
closed = 1;
nodes = (
"1267 505 OFFCURVE",
"1280 571 OFFCURVE",
"1280 640 CURVE SMOOTH",
"1280 779 OFFCURVE",
"1222 910 OFFCURVE",
"1130 1002 CURVE SMOOTH",
"1038 1094 OFFCURVE",
"907 1152 OFFCURVE",
"768 1152 CURVE SMOOTH",
"629 1152 OFFCURVE",
"498 1094 OFFCURVE",
"406 1002 CURVE SMOOTH",
"314 910 OFFCURVE",
"256 779 OFFCURVE",
"256 640 CURVE SMOOTH",
"256 501 OFFCURVE",
"314 370 OFFCURVE",
"406 278 CURVE SMOOTH",
"498 186 OFFCURVE",
"629 128 OFFCURVE",
"768 128 CURVE SMOOTH",
"907 128 OFFCURVE",
"1038 186 OFFCURVE",
"1130 278 CURVE SMOOTH",
"1176 324 OFFCURVE",
"1213 379 OFFCURVE",
"1240 442 CURVE SMOOTH"
);
},
{
closed = 1;
nodes = (
"1502 908 OFFCURVE",
"1536 779 OFFCURVE",
"1536 640 CURVE SMOOTH",
"1536 361 OFFCURVE",
"1389 112 OFFCURVE",
"1154 -25 CURVE SMOOTH",
"1036 -94 OFFCURVE",
"907 -128 OFFCURVE",
"768 -128 CURVE SMOOTH",
"489 -128 OFFCURVE",
"240 19 OFFCURVE",
"103 255 CURVE SMOOTH",
"34 372 OFFCURVE",
"0 501 OFFCURVE",
"0 640 CURVE SMOOTH",
"0 919 OFFCURVE",
"147 1168 OFFCURVE",
"383 1305 CURVE SMOOTH",
"500 1374 OFFCURVE",
"629 1408 OFFCURVE",
"768 1408 CURVE SMOOTH",
"1047 1408 OFFCURVE",
"1296 1261 OFFCURVE",
"1433 1026 CURVE SMOOTH"
);
}
);
width = 1536;
}
);
unicode = F10C;
},
{
glyphname = coffee;
layers = (
{
layerId = "4350166A-1D95-43E0-8855-54890F69E6B2";
name = Regular;
paths = (
{
closed = 1;
nodes = (
"1645 797 OFFCURVE",
"1664 843 OFFCURVE",
"1664 896 CURVE SMOOTH",
"1664 1003 OFFCURVE",
"1579 1088 OFFCURVE",
"1472 1088 CURVE SMOOTH",
"1408 1088 LINE",
"1408 704 LINE",
"1472 704 LINE SMOOTH",
"1525 704 OFFCURVE",
"1571 723 OFFCURVE",
"1608 760 CURVE SMOOTH"
);
},
{
closed = 1;
nodes = (
"1792 128 LINE",
"1792 -13 OFFCURVE",
"1677 -128 OFFCURVE",
"1536 -128 CURVE SMOOTH",
"256 -128 LINE SMOOTH",
"115 -128 OFFCURVE",
"0 -13 OFFCURVE",
"0 128 CURVE"
);
},
{
closed = 1;
nodes = (
"1819 1093 OFFCURVE",
"1856 1002 OFFCURVE",
"1856 896 CURVE SMOOTH",
"1856 684 OFFCURVE",
"1684 512 OFFCURVE",
"1472 512 CURVE SMOOTH",
"1408 512 LINE",
"1408 480 LINE SMOOTH",
"1408 357 OFFCURVE",
"1307 256 OFFCURVE",
"1184 256 CURVE SMOOTH",
"480 256 LINE SMOOTH",
"357 256 OFFCURVE",
"256 357 OFFCURVE",
"256 480 CURVE SMOOTH",
"256 1216 LINE SMOOTH",
"256 1251 OFFCURVE",
"285 1280 OFFCURVE",
"320 1280 CURVE SMOOTH",
"1472 1280 LINE SMOOTH",
"1578 1280 OFFCURVE",
"1669 1243 OFFCURVE",
"1744 1168 CURVE SMOOTH"
);
}
);
width = 1920;
}
);
unicode = F0F4;
},
{
glyphname = cog;
layers = (
{
layerId = "4350166A-1D95-43E0-8855-54890F69E6B2";
name = Regular;
paths = (
{
closed = 1;
nodes = (
"999 509 OFFCURVE",
"1024 569 OFFCURVE",
"1024 640 CURVE SMOOTH",
"1024 781 OFFCURVE",
"909 896 OFFCURVE",
"768 896 CURVE SMOOTH",
"627 896 OFFCURVE",
"512 781 OFFCURVE",
"512 640 CURVE SMOOTH",
"512 499 OFFCURVE",
"627 384 OFFCURVE",
"768 384 CURVE SMOOTH",
"839 384 OFFCURVE",
"899 409 OFFCURVE",
"949 459 CURVE SMOOTH"
);
},
{
closed = 1;
nodes = (
"1536 527 LINE SMOOTH",
"1536 511 OFFCURVE",
"1524 494 OFFCURVE",
"1508 491 CURVE",
"1323 463 LINE",
"1310 427 OFFCURVE",
"1297 397 OFFCURVE",
"1284 372 CURVE",
"1307 339 OFFCURVE",
"1343 293 OFFCURVE",
"1391 234 CURVE",
"1398 226 OFFCURVE",
"1401 218 OFFCURVE",
"1401 209 CURVE SMOOTH",
"1401 200 OFFCURVE",
"1398 193 OFFCURVE",
"1392 186 CURVE",
"1356 137 OFFCURVE",
"1228 7 OFFCURVE",
"1199 7 CURVE SMOOTH",
"1191 7 OFFCURVE",
"1182 10 OFFCURVE",
"1173 16 CURVE",
"1035 124 LINE",
"1006 109 OFFCURVE",
"975 96 OFFCURVE",
"944 86 CURVE",
"933 -5 OFFCURVE",
"924 -67 OFFCURVE",
"915 -100 CURVE SMOOTH",
"910 -119 OFFCURVE",
"898 -128 OFFCURVE",
"879 -128 CURVE SMOOTH",
"657 -128 LINE SMOOTH",
"638 -128 OFFCURVE",
"622 -115 OFFCURVE",
"621 -98 CURVE",
"593 86 LINE",
"560 97 OFFCURVE",
"530 109 OFFCURVE",
"503 123 CURVE",
"362 16 LINE",
"355 10 OFFCURVE",
"347 7 OFFCURVE",
"337 7 CURVE SMOOTH",
"328 7 OFFCURVE",
"319 11 OFFCURVE",
"312 18 CURVE",
"228 94 OFFCURVE",
"173 150 OFFCURVE",
"147 186 CURVE SMOOTH",
"142 193 OFFCURVE",
"140 200 OFFCURVE",
"140 209 CURVE SMOOTH",
"140 217 OFFCURVE",
"143 225 OFFCURVE",
"148 232 CURVE SMOOTH",
"158 246 OFFCURVE",
"175 268 OFFCURVE",
"199 299 CURVE SMOOTH",
"223 329 OFFCURVE",
"241 352 OFFCURVE",
"253 369 CURVE",
"235 402 OFFCURVE",
"221 435 OFFCURVE",
"212 468 CURVE",
"29 495 LINE SMOOTH",
"12 498 OFFCURVE",
"0 514 OFFCURVE",
"0 531 CURVE SMOOTH",
"0 753 LINE SMOOTH",
"0 769 OFFCURVE",
"12 786 OFFCURVE",
"27 789 CURVE",
"213 817 LINE",
"222 848 OFFCURVE",
"235 878 OFFCURVE",
"252 909 CURVE",
"225 947 OFFCURVE",
"190 993 OFFCURVE",
"145 1047 CURVE SMOOTH",
"138 1055 OFFCURVE",
"135 1063 OFFCURVE",
"135 1071 CURVE SMOOTH",
"135 1078 OFFCURVE",
"138 1085 OFFCURVE",
"144 1094 CURVE",
"179 1142 OFFCURVE",
"308 1273 OFFCURVE",
"337 1273 CURVE SMOOTH",
"346 1273 OFFCURVE",
"354 1270 OFFCURVE",
"363 1263 CURVE SMOOTH",
"501 1156 LINE",
"530 1171 OFFCURVE",
"561 1184 OFFCURVE",
"592 1194 CURVE",
"603 1285 OFFCURVE",
"612 1347 OFFCURVE",
"621 1380 CURVE SMOOTH",
"626 1399 OFFCURVE",
"638 1408 OFFCURVE",
"657 1408 CURVE SMOOTH",
"879 1408 LINE SMOOTH",
"898 1408 OFFCURVE",
"914 1395 OFFCURVE",
"915 1378 CURVE",
"943 1194 LINE",
"976 1183 OFFCURVE",
"1006 1171 OFFCURVE",
"1033 1157 CURVE",
"1175 1264 LINE",
"1181 1270 OFFCURVE",
"1189 1273 OFFCURVE",
"1199 1273 CURVE SMOOTH",
"1208 1273 OFFCURVE",
"1216 1270 OFFCURVE",
"1224 1263 CURVE SMOOTH",
"1310 1184 OFFCURVE",
"1365 1127 OFFCURVE",
"1389 1093 CURVE",
"1394 1088 OFFCURVE",
"1396 1080 OFFCURVE",
"1396 1071 CURVE SMOOTH",
"1396 1063 OFFCURVE",
"1393 1055 OFFCURVE",
"1388 1048 CURVE SMOOTH",
"1378 1034 OFFCURVE",
"1361 1012 OFFCURVE",
"1337 982 CURVE SMOOTH",
"1313 951 OFFCURVE",
"1295 928 OFFCURVE",
"1283 911 CURVE",
"1300 878 OFFCURVE",
"1314 845 OFFCURVE",
"1324 813 CURVE",
"1507 785 LINE SMOOTH",
"1524 782 OFFCURVE",
"1536 766 OFFCURVE",
"1536 749 CURVE SMOOTH"
);
}
);
width = 1536;
}
);
unicode = F013;
},
{
glyphname = cogs;
layers = (
{
layerId = "4350166A-1D95-43E0-8855-54890F69E6B2";
name = Regular;
paths = (
{
closed = 1;
nodes = (
"871 509 OFFCURVE",
"896 569 OFFCURVE",
"896 640 CURVE SMOOTH",
"896 781 OFFCURVE",
"781 896 OFFCURVE",
"640 896 CURVE SMOOTH",
"499 896 OFFCURVE",
"384 781 OFFCURVE",
"384 640 CURVE SMOOTH",
"384 499 OFFCURVE",
"499 384 OFFCURVE",
"640 384 CURVE SMOOTH",
"711 384 OFFCURVE",
"771 409 OFFCURVE",
"821 459 CURVE SMOOTH"
);
},
{
closed = 1;
nodes = (
"1664 197 OFFCURVE",
"1605 256 OFFCURVE",
"1536 256 CURVE SMOOTH",
"1467 256 OFFCURVE",
"1408 197 OFFCURVE",
"1408 128 CURVE SMOOTH",
"1408 57 OFFCURVE",
"1465 0 OFFCURVE",
"1536 0 CURVE SMOOTH",
"1607 0 OFFCURVE",
"1664 57 OFFCURVE",
"1664 128 CURVE SMOOTH"
);
},
{
closed = 1;
nodes = (
"1664 1221 OFFCURVE",
"1605 1280 OFFCURVE",
"1536 1280 CURVE SMOOTH",
"1467 1280 OFFCURVE",
"1408 1221 OFFCURVE",
"1408 1152 CURVE SMOOTH",
"1408 1081 OFFCURVE",
"1465 1024 OFFCURVE",
"1536 1024 CURVE SMOOTH",
"1607 1024 OFFCURVE",
"1664 1081 OFFCURVE",
"1664 1152 CURVE SMOOTH"
);
},
{
closed = 1;
nodes = (
"1280 546 LINE SMOOTH",
"1280 533 OFFCURVE",
"1269 517 OFFCURVE",
"1257 516 CURVE",
"1102 492 LINE",
"1095 469 OFFCURVE",
"1084 443 OFFCURVE",
"1070 416 CURVE",
"1093 384 OFFCURVE",
"1123 346 OFFCURVE",
"1160 301 CURVE",
"1165 294 OFFCURVE",
"1167 288 OFFCURVE",
"1167 281 CURVE SMOOTH",
"1167 273 OFFCURVE",
"1165 267 OFFCURVE",
"1160 262 CURVE",
"1129 222 OFFCURVE",
"1024 113 OFFCURVE",
"999 113 CURVE SMOOTH",
"992 113 OFFCURVE",
"985 115 OFFCURVE",
"978 120 CURVE",
"863 210 LINE",
"838 197 OFFCURVE",
"813 187 OFFCURVE",
"786 179 CURVE",
"779 107 OFFCURVE",
"771 55 OFFCURVE",
"763 24 CURVE",
"758 8 OFFCURVE",
"748 0 OFFCURVE",
"733 0 CURVE SMOOTH",
"547 0 LINE SMOOTH",
"532 0 OFFCURVE",
"518 12 OFFCURVE",
"517 25 CURVE",
"494 178 LINE",
"471 185 OFFCURVE",
"446 195 OFFCURVE",
"419 209 CURVE",
"301 120 LINE",
"296 115 OFFCURVE",
"290 113 OFFCURVE",
"281 113 CURVE SMOOTH",
"274 113 OFFCURVE",
"267 116 OFFCURVE",
"260 121 CURVE",
"164 210 OFFCURVE",
"116 263 OFFCURVE",
"116 281 CURVE SMOOTH",
"116 287 OFFCURVE",
"118 293 OFFCURVE",
"123 300 CURVE",
"130 309 OFFCURVE",
"143 327 OFFCURVE",
"164 353 CURVE SMOOTH",
"185 379 OFFCURVE",
"200 399 OFFCURVE",
"211 414 CURVE",
"196 443 OFFCURVE",
"184 471 OFFCURVE",
"176 496 CURVE",
"24 520 LINE",
"11 521 OFFCURVE",
"0 534 OFFCURVE",
"0 549 CURVE SMOOTH",
"0 734 LINE SMOOTH",
"0 747 OFFCURVE",
"11 763 OFFCURVE",
"23 764 CURVE",
"178 788 LINE",
"185 811 OFFCURVE",
"196 837 OFFCURVE",
"210 864 CURVE",
"187 896 OFFCURVE",
"157 934 OFFCURVE",
"120 979 CURVE",
"115 986 OFFCURVE",
"113 993 OFFCURVE",
"113 999 CURVE SMOOTH",
"113 1007 OFFCURVE",
"115 1014 OFFCURVE",
"120 1019 CURVE",
"149 1059 OFFCURVE",
"256 1167 OFFCURVE",
"281 1167 CURVE SMOOTH",
"288 1167 OFFCURVE",
"295 1165 OFFCURVE",
"302 1160 CURVE",
"417 1070 LINE",
"440 1082 OFFCURVE",
"465 1093 OFFCURVE",
"494 1102 CURVE",
"501 1174 OFFCURVE",
"509 1225 OFFCURVE",
"517 1256 CURVE",
"522 1272 OFFCURVE",
"532 1280 OFFCURVE",
"547 1280 CURVE SMOOTH",
"733 1280 LINE SMOOTH",
"748 1280 OFFCURVE",
"762 1268 OFFCURVE",
"763 1255 CURVE",
"786 1102 LINE",
"809 1095 OFFCURVE",
"834 1085 OFFCURVE",
"861 1071 CURVE",
"979 1160 LINE",
"984 1165 OFFCURVE",
"991 1167 OFFCURVE",
"999 1167 CURVE SMOOTH",
"1006 1167 OFFCURVE",
"1013 1164 OFFCURVE",
"1020 1159 CURVE",
"1116 1070 OFFCURVE",
"1164 1017 OFFCURVE",
"1164 999 CURVE SMOOTH",
"1164 993 OFFCURVE",
"1162 987 OFFCURVE",
"1157 980 CURVE SMOOTH",
"1149 969 OFFCURVE",
"1135 951 OFFCURVE",
"1115 926 CURVE SMOOTH",
"1095 901 OFFCURVE",
"1080 881 OFFCURVE",
"1070 866 CURVE",
"1085 834 OFFCURVE",
"1097 807 OFFCURVE",
"1104 784 CURVE",
"1256 761 LINE",
"1269 758 OFFCURVE",
"1280 746 OFFCURVE",
"1280 731 CURVE SMOOTH"
);
},
{
closed = 1;
nodes = (
"1920 58 LINE SMOOTH",
"1920 47 OFFCURVE",
"1870 37 OFFCURVE",
"1771 27 CURVE",
"1763 9 OFFCURVE",
"1753 -8 OFFCURVE",
"1741 -25 CURVE",
"1775 -100 OFFCURVE",
"1792 -146 OFFCURVE",
"1792 -163 CURVE SMOOTH",
"1792 -166 OFFCURVE",
"1791 -168 OFFCURVE",
"1788 -170 CURVE",
"1707 -217 OFFCURVE",
"1665 -241 OFFCURVE",
"1664 -241 CURVE SMOOTH",
"1653 -241 OFFCURVE",
"1585 -154 OFFCURVE",
"1566 -126 CURVE",
"1553 -127 OFFCURVE",
"1543 -128 OFFCURVE",
"1536 -128 CURVE SMOOTH",
"1529 -128 OFFCURVE",
"1519 -127 OFFCURVE",
"1506 -126 CURVE",
"1487 -154 OFFCURVE",
"1419 -241 OFFCURVE",
"1408 -241 CURVE SMOOTH",
"1407 -241 OFFCURVE",
"1365 -217 OFFCURVE",
"1284 -170 CURVE",
"1281 -168 OFFCURVE",
"1280 -166 OFFCURVE",
"1280 -163 CURVE SMOOTH",
"1280 -146 OFFCURVE",
"1297 -100 OFFCURVE",
"1331 -25 CURVE",
"1319 -8 OFFCURVE",
"1309 9 OFFCURVE",
"1301 27 CURVE",
"1202 37 OFFCURVE",
"1152 47 OFFCURVE",
"1152 58 CURVE SMOOTH",
"1152 198 LINE SMOOTH",
"1152 209 OFFCURVE",
"1202 219 OFFCURVE",
"1301 229 CURVE",
"1310 248 OFFCURVE",
"1320 266 OFFCURVE",
"1331 281 CURVE",
"1297 356 OFFCURVE",
"1280 402 OFFCURVE",
"1280 419 CURVE SMOOTH",
"1280 422 OFFCURVE",
"1281 424 OFFCURVE",
"1284 426 CURVE",
"1287 427 OFFCURVE",
"1298 434 OFFCURVE",
"1319 446 CURVE SMOOTH",
"1340 458 OFFCURVE",
"1359 469 OFFCURVE",
"1378 480 CURVE SMOOTH",
"1397 491 OFFCURVE",
"1407 496 OFFCURVE",
"1408 496 CURVE SMOOTH",
"1419 496 OFFCURVE",
"1487 410 OFFCURVE",
"1506 382 CURVE",
"1519 383 OFFCURVE",
"1529 384 OFFCURVE",
"1536 384 CURVE SMOOTH",
"1543 384 OFFCURVE",
"1553 383 OFFCURVE",
"1566 382 CURVE",
"1600 429 OFFCURVE",
"1631 467 OFFCURVE",
"1658 494 CURVE",
"1664 496 LINE",
"1667 496 OFFCURVE",
"1708 473 OFFCURVE",
"1788 426 CURVE",
"1791 424 OFFCURVE",
"1792 422 OFFCURVE",
"1792 419 CURVE SMOOTH",
"1792 402 OFFCURVE",
"1775 356 OFFCURVE",
"1741 281 CURVE",
"1752 266 OFFCURVE",
"1762 248 OFFCURVE",
"1771 229 CURVE",
"1870 219 OFFCURVE",
"1920 209 OFFCURVE",
"1920 198 CURVE SMOOTH"
);
},
{
closed = 1;
nodes = (
"1920 1082 LINE SMOOTH",
"1920 1071 OFFCURVE",
"1870 1061 OFFCURVE",
"1771 1051 CURVE",
"1763 1033 OFFCURVE",
"1753 1016 OFFCURVE",
"1741 999 CURVE",
"1775 924 OFFCURVE",
"1792 878 OFFCURVE",
"1792 861 CURVE SMOOTH",
"1792 858 OFFCURVE",
"1791 856 OFFCURVE",
"1788 854 CURVE",
"1707 807 OFFCURVE",
"1665 783 OFFCURVE",
"1664 783 CURVE SMOOTH",
"1653 783 OFFCURVE",
"1585 870 OFFCURVE",
"1566 898 CURVE",
"1553 897 OFFCURVE",
"1543 896 OFFCURVE",
"1536 896 CURVE SMOOTH",
"1529 896 OFFCURVE",
"1519 897 OFFCURVE",
"1506 898 CURVE",
"1487 870 OFFCURVE",
"1419 783 OFFCURVE",
"1408 783 CURVE SMOOTH",
"1407 783 OFFCURVE",
"1365 807 OFFCURVE",
"1284 854 CURVE",
"1281 856 OFFCURVE",
"1280 858 OFFCURVE",
"1280 861 CURVE SMOOTH",
"1280 878 OFFCURVE",
"1297 924 OFFCURVE",
"1331 999 CURVE",
"1319 1016 OFFCURVE",
"1309 1033 OFFCURVE",
"1301 1051 CURVE",
"1202 1061 OFFCURVE",
"1152 1071 OFFCURVE",
"1152 1082 CURVE SMOOTH",
"1152 1222 LINE SMOOTH",
"1152 1233 OFFCURVE",
"1202 1243 OFFCURVE",
"1301 1253 CURVE",
"1310 1272 OFFCURVE",
"1320 1290 OFFCURVE",
"1331 1305 CURVE",
"1297 1380 OFFCURVE",
"1280 1426 OFFCURVE",
"1280 1443 CURVE SMOOTH",
"1280 1446 OFFCURVE",
"1281 1448 OFFCURVE",
"1284 1450 CURVE",
"1287 1451 OFFCURVE",
"1298 1458 OFFCURVE",
"1319 1470 CURVE SMOOTH",
"1340 1482 OFFCURVE",
"1359 1493 OFFCURVE",
"1378 1504 CURVE SMOOTH",
"1397 1515 OFFCURVE",
"1407 1520 OFFCURVE",
"1408 1520 CURVE SMOOTH",
"1419 1520 OFFCURVE",
"1487 1434 OFFCURVE",
"1506 1406 CURVE",
"1519 1407 OFFCURVE",
"1529 1408 OFFCURVE",
"1536 1408 CURVE SMOOTH",
"1543 1408 OFFCURVE",
"1553 1407 OFFCURVE",
"1566 1406 CURVE",
"1600 1453 OFFCURVE",
"1631 1491 OFFCURVE",
"1658 1518 CURVE",
"1664 1520 LINE",
"1667 1520 OFFCURVE",
"1708 1497 OFFCURVE",
"1788 1450 CURVE",
"1791 1448 OFFCURVE",
"1792 1446 OFFCURVE",
"1792 1443 CURVE SMOOTH",
"1792 1426 OFFCURVE",
"1775 1380 OFFCURVE",
"1741 1305 CURVE",
"1752 1290 OFFCURVE",
"1762 1272 OFFCURVE",
"1771 1253 CURVE",
"1870 1243 OFFCURVE",
"1920 1233 OFFCURVE",
"1920 1222 CURVE SMOOTH"
);
}
);
width = 1920;
}
);
unicode = F085;
},
{
glyphname = columns;
layers = (
{
layerId = "4350166A-1D95-43E0-8855-54890F69E6B2";
name = Regular;
paths = (
{
closed = 1;
nodes = (
"768 0 LINE",
"768 1152 LINE",
"128 1152 LINE",
"128 32 LINE SMOOTH",
"128 15 OFFCURVE",
"143 0 OFFCURVE",
"160 0 CURVE SMOOTH"
);
},
{
closed = 1;
nodes = (
"1536 1152 LINE",
"896 1152 LINE",
"896 0 LINE",
"1504 0 LINE SMOOTH",
"1521 0 OFFCURVE",
"1536 15 OFFCURVE",
"1536 32 CURVE SMOOTH"
);
},
{
closed = 1;
nodes = (
"1664 32 LINE SMOOTH",
"1664 -56 OFFCURVE",
"1592 -128 OFFCURVE",
"1504 -128 CURVE SMOOTH",
"160 -128 LINE SMOOTH",
"72 -128 OFFCURVE",
"0 -56 OFFCURVE",
"0 32 CURVE SMOOTH",
"0 1248 LINE SMOOTH",
"0 1336 OFFCURVE",
"72 1408 OFFCURVE",
"160 1408 CURVE SMOOTH",
"1504 1408 LINE SMOOTH",
"1592 1408 OFFCURVE",
"1664 1336 OFFCURVE",
"1664 1248 CURVE SMOOTH"
);
}
);
width = 1664;
}
);
unicode = F0DB;
},
{
glyphname = comment;
layers = (
{
layerId = "4350166A-1D95-43E0-8855-54890F69E6B2";
name = Regular;
paths = (
{
closed = 1;
nodes = (
"1752 863 OFFCURVE",
"1792 756 OFFCURVE",
"1792 640 CURVE SMOOTH",
"1792 408 OFFCURVE",
"1621 200 OFFCURVE",
"1346 86 CURVE SMOOTH",
"1209 29 OFFCURVE",
"1059 0 OFFCURVE",
"896 0 CURVE SMOOTH",
"849 0 OFFCURVE",
"801 3 OFFCURVE",
"751 8 CURVE",
"619 -109 OFFCURVE",
"466 -189 OFFCURVE",
"291 -234 CURVE SMOOTH",
"258 -243 OFFCURVE",
"220 -251 OFFCURVE",
"177 -256 CURVE SMOOTH",
"154 -259 OFFCURVE",
"134 -242 OFFCURVE",
"129 -218 CURVE",
"129 -217 LINE",
"127 -214 OFFCURVE",
"127 -210 OFFCURVE",
"129 -205 CURVE",
"130 -200 OFFCURVE",
"131 -196 OFFCURVE",
"131 -195 CURVE",
"130 -192 OFFCURVE",
"140 -178 OFFCURVE",
"141 -176 CURVE SMOOTH",
"142 -174 OFFCURVE",
"153 -162 OFFCURVE",
"156 -159 CURVE",
"165 -148 OFFCURVE",
"208 -102 OFFCURVE",
"222 -86 CURVE SMOOTH",
"236 -71 OFFCURVE",
"269 -27 OFFCURVE",
"285 4 CURVE SMOOTH",
"301 35 OFFCURVE",
"323 86 OFFCURVE",
"338 139 CURVE",
"129 258 OFFCURVE",
"0 440 OFFCURVE",
"0 640 CURVE SMOOTH",
"0 813 OFFCURVE",
"102 978 OFFCURVE",
"262 1093 CURVE SMOOTH",
"422 1208 OFFCURVE",
"653 1280 OFFCURVE",
"896 1280 CURVE SMOOTH",
"1221 1280 OFFCURVE",
"1512 1158 OFFCURVE",
"1672 962 CURVE SMOOTH"
);
}
);
width = 1792;
}
);
unicode = F075;
},
{
glyphname = comment_alt;
layers = (
{
layerId = "4350166A-1D95-43E0-8855-54890F69E6B2";
name = Regular;
paths = (
{
closed = 1;
nodes = (
"1159 1129 OFFCURVE",
"1032 1152 OFFCURVE",
"896 1152 CURVE SMOOTH",
"624 1152 OFFCURVE",
"372 1052 OFFCURVE",
"233 895 CURVE SMOOTH",
"163 816 OFFCURVE",
"128 731 OFFCURVE",
"128 640 CURVE SMOOTH",
"128 491 OFFCURVE",
"228 350 OFFCURVE",
"401 251 CURVE SMOOTH",
"488 201 LINE",
"461 105 LINE SMOOTH",
"445 44 OFFCURVE",
"422 -13 OFFCURVE",
"391 -67 CURVE",
"492 -25 OFFCURVE",
"584 32 OFFCURVE",
"666 104 CURVE SMOOTH",
"709 142 LINE",
"766 136 LINE SMOOTH",
"812 131 OFFCURVE",
"855 128 OFFCURVE",
"896 128 CURVE SMOOTH",
"1168 128 OFFCURVE",
"1420 228 OFFCURVE",
"1560 385 CURVE SMOOTH",
"1629 464 OFFCURVE",
"1664 549 OFFCURVE",
"1664 640 CURVE SMOOTH",
"1664 823 OFFCURVE",
"1514 990 OFFCURVE",
"1278 1083 CURVE SMOOTH"
);
},
{
closed = 1;
nodes = (
"1752 863 OFFCURVE",
"1792 756 OFFCURVE",
"1792 640 CURVE SMOOTH",
"1792 408 OFFCURVE",
"1621 200 OFFCURVE",
"1346 86 CURVE SMOOTH",
"1209 29 OFFCURVE",
"1059 0 OFFCURVE",
"896 0 CURVE SMOOTH",
"849 0 OFFCURVE",
"801 3 OFFCURVE",
"751 8 CURVE",
"619 -109 OFFCURVE",
"466 -189 OFFCURVE",
"291 -234 CURVE SMOOTH",
"258 -243 OFFCURVE",
"220 -251 OFFCURVE",
"177 -256 CURVE",
"172 -256 LINE SMOOTH",
"152 -256 OFFCURVE",
"134 -241 OFFCURVE",
"129 -218 CURVE",
"129 -217 LINE",
"127 -214 OFFCURVE",
"127 -210 OFFCURVE",
"129 -205 CURVE",
"130 -200 OFFCURVE",
"131 -196 OFFCURVE",
"131 -195 CURVE",
"130 -192 OFFCURVE",
"140 -178 OFFCURVE",
"141 -176 CURVE SMOOTH",
"142 -174 OFFCURVE",
"153 -162 OFFCURVE",
"156 -159 CURVE",
"165 -148 OFFCURVE",
"208 -102 OFFCURVE",
"222 -86 CURVE SMOOTH",
"236 -71 OFFCURVE",
"269 -27 OFFCURVE",
"285 4 CURVE SMOOTH",
"301 35 OFFCURVE",
"323 86 OFFCURVE",
"338 139 CURVE",
"129 258 OFFCURVE",
"0 440 OFFCURVE",
"0 640 CURVE SMOOTH",
"0 872 OFFCURVE",
"171 1081 OFFCURVE",
"446 1195 CURVE SMOOTH",
"583 1252 OFFCURVE",
"733 1280 OFFCURVE",
"896 1280 CURVE SMOOTH",
"1221 1280 OFFCURVE",
"1512 1158 OFFCURVE",
"1672 962 CURVE SMOOTH"
);
}
);
width = 1792;
}
);
unicode = F0E5;
},
{
glyphname = comments;
layers = (
{
layerId = "4350166A-1D95-43E0-8855-54890F69E6B2";
name = Regular;
paths = (
{
closed = 1;
nodes = (
"1377 946 OFFCURVE",
"1408 861 OFFCURVE",
"1408 768 CURVE SMOOTH",
"1408 583 OFFCURVE",
"1274 416 OFFCURVE",
"1058 325 CURVE SMOOTH",
"949 279 OFFCURVE",
"831 256 OFFCURVE",
"704 256 CURVE SMOOTH",
"647 256 OFFCURVE",
"588 261 OFFCURVE",
"528 272 CURVE",
"445 213 OFFCURVE",
"353 171 OFFCURVE",
"250 144 CURVE SMOOTH",
"226 138 OFFCURVE",
"197 133 OFFCURVE",
"164 128 CURVE",
"161 128 LINE SMOOTH",
"146 128 OFFCURVE",
"132 140 OFFCURVE",
"129 157 CURVE",
"128 159 OFFCURVE",
"128 161 OFFCURVE",
"128 164 CURVE SMOOTH",
"128 168 OFFCURVE",
"129 172 OFFCURVE",
"131 176 CURVE SMOOTH",
"133 180 OFFCURVE",
"133 182 OFFCURVE",
"137 187 CURVE",
"138 189 OFFCURVE",
"140 191 OFFCURVE",
"141 192 CURVE SMOOTH",
"142 193 OFFCURVE",
"143 194 OFFCURVE",
"145 197 CURVE",
"147 199 OFFCURVE",
"148 200 OFFCURVE",
"149 201 CURVE",
"152 205 OFFCURVE",
"160 213 OFFCURVE",
"172 226 CURVE SMOOTH",
"184 239 OFFCURVE",
"193 249 OFFCURVE",
"198 256 CURVE SMOOTH",
"203 263 OFFCURVE",
"211 272 OFFCURVE",
"221 285 CURVE SMOOTH",
"240 309 OFFCURVE",
"253 335 OFFCURVE",
"266 367 CURVE",
"101 463 OFFCURVE",
"0 609 OFFCURVE",
"0 768 CURVE SMOOTH",
"0 953 OFFCURVE",
"134 1120 OFFCURVE",
"351 1212 CURVE SMOOTH",
"459 1257 OFFCURVE",
"577 1280 OFFCURVE",
"704 1280 CURVE SMOOTH",
"959 1280 OFFCURVE",
"1189 1182 OFFCURVE",
"1314 1025 CURVE SMOOTH"
);
},
{
closed = 1;
nodes = (
"1792 352 OFFCURVE",
"1691 207 OFFCURVE",
"1526 111 CURVE",
"1539 79 OFFCURVE",
"1552 53 OFFCURVE",
"1572 29 CURVE",
"1581 16 OFFCURVE",
"1589 7 OFFCURVE",
"1594 0 CURVE SMOOTH",
"1599 -7 OFFCURVE",
"1608 -17 OFFCURVE",
"1620 -30 CURVE SMOOTH",
"1632 -43 OFFCURVE",
"1640 -51 OFFCURVE",
"1643 -55 CURVE",
"1644 -56 OFFCURVE",
"1645 -57 OFFCURVE",
"1647 -59 CURVE",
"1649 -62 OFFCURVE",
"1651 -63 OFFCURVE",
"1652 -64 CURVE SMOOTH",
"1654 -66 OFFCURVE",
"1658 -72 OFFCURVE",
"1659 -75 CURVE SMOOTH",
"1660 -78 OFFCURVE",
"1663 -82 OFFCURVE",
"1664 -86 CURVE",
"1664 -88 OFFCURVE",
"1664 -90 OFFCURVE",
"1664 -92 CURVE SMOOTH",
"1664 -95 OFFCURVE",
"1664 -97 OFFCURVE",
"1663 -99 CURVE",
"1659 -118 OFFCURVE",
"1644 -129 OFFCURVE",
"1628 -128 CURVE",
"1595 -123 OFFCURVE",
"1566 -118 OFFCURVE",
"1542 -112 CURVE SMOOTH",
"1439 -85 OFFCURVE",
"1347 -43 OFFCURVE",
"1264 16 CURVE",
"1204 5 OFFCURVE",
"1145 0 OFFCURVE",
"1088 0 CURVE SMOOTH",
"907 0 OFFCURVE",
"750 44 OFFCURVE",
"616 132 CURVE",
"655 129 OFFCURVE",
"684 128 OFFCURVE",
"704 128 CURVE SMOOTH",
"919 128 OFFCURVE",
"1122 190 OFFCURVE",
"1277 302 CURVE SMOOTH",
"1444 425 OFFCURVE",
"1536 589 OFFCURVE",
"1536 768 CURVE SMOOTH",
"1536 819 OFFCURVE",
"1528 870 OFFCURVE",
"1513 920 CURVE",
"1685 825 OFFCURVE",
"1792 676 OFFCURVE",
"1792 512 CURVE SMOOTH"
);
}
);
width = 1792;
}
);
unicode = F086;
},
{
glyphname = comments_alt;
layers = (
{
layerId = "4350166A-1D95-43E0-8855-54890F69E6B2";
name = Regular;
paths = (
{
closed = 1;
nodes = (
"901 1135 OFFCURVE",
"806 1152 OFFCURVE",
"704 1152 CURVE SMOOTH",
"500 1152 OFFCURVE",
"311 1078 OFFCURVE",
"207 959 CURVE SMOOTH",
"154 900 OFFCURVE",
"128 836 OFFCURVE",
"128 768 CURVE SMOOTH",
"128 659 OFFCURVE",
"202 553 OFFCURVE",
"330 478 CURVE SMOOTH",
"427 422 LINE",
"392 338 LINE",
"415 351 OFFCURVE",
"435 364 OFFCURVE",
"454 377 CURVE SMOOTH",
"498 408 LINE",
"551 398 LINE SMOOTH",
"603 389 OFFCURVE",
"654 384 OFFCURVE",
"704 384 CURVE SMOOTH",
"908 384 OFFCURVE",
"1097 458 OFFCURVE",
"1202 577 CURVE SMOOTH",
"1254 636 OFFCURVE",
"1280 700 OFFCURVE",
"1280 768 CURVE SMOOTH",
"1280 904 OFFCURVE",
"1167 1031 OFFCURVE",
"990 1100 CURVE SMOOTH"
);
},
{
closed = 1;
nodes = (
"459 1257 OFFCURVE",
"577 1280 OFFCURVE",
"704 1280 CURVE SMOOTH",
"959 1280 OFFCURVE",
"1189 1182 OFFCURVE",
"1314 1025 CURVE SMOOTH",
"1377 946 OFFCURVE",
"1408 861 OFFCURVE",
"1408 768 CURVE SMOOTH",
"1408 583 OFFCURVE",
"1274 416 OFFCURVE",
"1058 325 CURVE SMOOTH",
"949 279 OFFCURVE",
"831 256 OFFCURVE",
"704 256 CURVE SMOOTH",
"647 256 OFFCURVE",
"588 261 OFFCURVE",
"528 272 CURVE",
"445 213 OFFCURVE",
"353 171 OFFCURVE",
"250 144 CURVE SMOOTH",
"226 138 OFFCURVE",
"197 133 OFFCURVE",
"164 128 CURVE",
"161 128 LINE SMOOTH",
"146 128 OFFCURVE",
"132 140 OFFCURVE",
"129 157 CURVE",
"128 159 OFFCURVE",
"128 161 OFFCURVE",
"128 164 CURVE SMOOTH",
"128 168 OFFCURVE",
"129 172 OFFCURVE",
"131 176 CURVE SMOOTH",
"133 180 OFFCURVE",
"133 182 OFFCURVE",
"137 187 CURVE",
"138 189 OFFCURVE",
"140 191 OFFCURVE",
"141 192 CURVE SMOOTH",
"142 193 OFFCURVE",
"143 194 OFFCURVE",
"145 197 CURVE",
"147 199 OFFCURVE",
"148 200 OFFCURVE",
"149 201 CURVE",
"152 205 OFFCURVE",
"160 213 OFFCURVE",
"172 226 CURVE SMOOTH",
"184 239 OFFCURVE",
"193 249 OFFCURVE",
"198 256 CURVE SMOOTH",
"203 263 OFFCURVE",
"211 272 OFFCURVE",
"221 285 CURVE SMOOTH",
"240 309 OFFCURVE",
"253 335 OFFCURVE",
"266 367 CURVE",
"101 463 OFFCURVE",
"0 609 OFFCURVE",
"0 768 CURVE SMOOTH",
"0 953 OFFCURVE",
"134 1120 OFFCURVE",
"351 1212 CURVE SMOOTH"
);
},
{
closed = 1;
nodes = (
"1539 79 OFFCURVE",
"1552 53 OFFCURVE",
"1572 29 CURVE",
"1581 16 OFFCURVE",
"1589 7 OFFCURVE",
"1594 0 CURVE SMOOTH",
"1599 -7 OFFCURVE",
"1608 -17 OFFCURVE",
"1620 -30 CURVE SMOOTH",
"1632 -43 OFFCURVE",
"1640 -51 OFFCURVE",
"1643 -55 CURVE",
"1644 -56 OFFCURVE",
"1645 -57 OFFCURVE",
"1647 -59 CURVE",
"1649 -62 OFFCURVE",
"1651 -63 OFFCURVE",
"1652 -64 CURVE SMOOTH",
"1654 -66 OFFCURVE",
"1658 -72 OFFCURVE",
"1659 -75 CURVE SMOOTH",
"1660 -78 OFFCURVE",
"1663 -82 OFFCURVE",
"1664 -86 CURVE",
"1664 -88 OFFCURVE",
"1664 -90 OFFCURVE",
"1664 -92 CURVE SMOOTH",
"1664 -95 OFFCURVE",
"1664 -97 OFFCURVE",
"1663 -99 CURVE",
"1659 -118 OFFCURVE",
"1644 -129 OFFCURVE",
"1628 -128 CURVE",
"1595 -123 OFFCURVE",
"1566 -118 OFFCURVE",
"1542 -112 CURVE SMOOTH",
"1439 -85 OFFCURVE",
"1347 -43 OFFCURVE",
"1264 16 CURVE",
"1204 5 OFFCURVE",
"1145 0 OFFCURVE",
"1088 0 CURVE SMOOTH",
"907 0 OFFCURVE",
"750 44 OFFCURVE",
"616 132 CURVE",
"655 129 OFFCURVE",
"684 128 OFFCURVE",
"704 128 CURVE SMOOTH",
"919 128 OFFCURVE",
"1122 190 OFFCURVE",
"1277 302 CURVE SMOOTH",
"1444 425 OFFCURVE",
"1536 589 OFFCURVE",
"1536 768 CURVE SMOOTH",
"1536 819 OFFCURVE",
"1528 870 OFFCURVE",
"1513 920 CURVE",
"1685 825 OFFCURVE",
"1792 676 OFFCURVE",
"1792 512 CURVE SMOOTH",
"1792 352 OFFCURVE",
"1691 207 OFFCURVE",
"1526 111 CURVE"
);
}
);
width = 1792;
}
);
unicode = F0E6;
},
{
glyphname = copy;
layers = (
{
layerId = "4350166A-1D95-43E0-8855-54890F69E6B2";
name = Regular;
paths = (
{
closed = 1;
nodes = (
"1696 1152 LINE SMOOTH",
"1749 1152 OFFCURVE",
"1792 1109 OFFCURVE",
"1792 1056 CURVE SMOOTH",
"1792 -160 LINE SMOOTH",
"1792 -213 OFFCURVE",
"1749 -256 OFFCURVE",
"1696 -256 CURVE SMOOTH",
"736 -256 LINE SMOOTH",
"683 -256 OFFCURVE",
"640 -213 OFFCURVE",
"640 -160 CURVE SMOOTH",
"640 128 LINE",
"96 128 LINE SMOOTH",
"43 128 OFFCURVE",
"0 171 OFFCURVE",
"0 224 CURVE SMOOTH",
"0 896 LINE SMOOTH",
"0 949 OFFCURVE",
"31 1023 OFFCURVE",
"68 1060 CURVE SMOOTH",
"476 1468 LINE SMOOTH",
"513 1505 OFFCURVE",
"587 1536 OFFCURVE",
"640 1536 CURVE SMOOTH",
"1056 1536 LINE SMOOTH",
"1109 1536 OFFCURVE",
"1152 1493 OFFCURVE",
"1152 1440 CURVE SMOOTH",
"1152 1112 LINE",
"1197 1139 OFFCURVE",
"1240 1152 OFFCURVE",
"1280 1152 CURVE SMOOTH"
);
},
{
closed = 1;
nodes = (
"1152 939 LINE",
"853 640 LINE",
"1152 640 LINE"
);
},
{
closed = 1;
nodes = (
"512 1323 LINE",
"213 1024 LINE",
"512 1024 LINE"
);
},
{
closed = 1;
nodes = (
"1024 992 LINE",
"1024 1408 LINE",
"640 1408 LINE",
"640 992 LINE SMOOTH",
"640 939 OFFCURVE",
"597 896 OFFCURVE",
"544 896 CURVE SMOOTH",
"128 896 LINE",
"128 256 LINE",
"640 256 LINE",
"640 512 LINE SMOOTH",
"640 565 OFFCURVE",
"671 639 OFFCURVE",
"708 676 CURVE SMOOTH"
);
},
{
closed = 1;
nodes = (
"1664 -128 LINE",
"1664 1024 LINE",
"1280 1024 LINE",
"1280 608 LINE SMOOTH",
"1280 555 OFFCURVE",
"1237 512 OFFCURVE",
"1184 512 CURVE SMOOTH",
"768 512 LINE",
"768 -128 LINE"
);
}
);
width = 1792;
}
);
unicode = F0C5;
},
{
glyphname = credit_card;
layers = (
{
layerId = "4350166A-1D95-43E0-8855-54890F69E6B2";
name = Regular;
paths = (
{
closed = 1;
nodes = (
"1760 1408 LINE SMOOTH",
"1848 1408 OFFCURVE",
"1920 1336 OFFCURVE",
"1920 1248 CURVE SMOOTH",
"1920 32 LINE SMOOTH",
"1920 -56 OFFCURVE",
"1848 -128 OFFCURVE",
"1760 -128 CURVE SMOOTH",
"160 -128 LINE SMOOTH",
"72 -128 OFFCURVE",
"0 -56 OFFCURVE",
"0 32 CURVE SMOOTH",
"0 1248 LINE SMOOTH",
"0 1336 OFFCURVE",
"72 1408 OFFCURVE",
"160 1408 CURVE SMOOTH"
);
},
{
closed = 1;
nodes = (
"160 1280 LINE SMOOTH",
"143 1280 OFFCURVE",
"128 1265 OFFCURVE",
"128 1248 CURVE SMOOTH",
"128 1024 LINE",
"1792 1024 LINE",
"1792 1248 LINE SMOOTH",
"1792 1265 OFFCURVE",
"1777 1280 OFFCURVE",
"1760 1280 CURVE SMOOTH"
);
},
{
closed = 1;
nodes = (
"1760 0 LINE SMOOTH",
"1777 0 OFFCURVE",
"1792 15 OFFCURVE",
"1792 32 CURVE SMOOTH",
"1792 640 LINE",
"128 640 LINE",
"128 32 LINE SMOOTH",
"128 15 OFFCURVE",
"143 0 OFFCURVE",
"160 0 CURVE SMOOTH"
);
},
{
closed = 1;
nodes = (
"256 128 LINE",
"256 256 LINE",
"512 256 LINE",
"512 128 LINE"
);
},
{
closed = 1;
nodes = (
"640 128 LINE",
"640 256 LINE",
"1024 256 LINE",
"1024 128 LINE"
);
}
);
width = 1920;
}
);
unicode = F09D;
},
{
glyphname = cut;
layers = (
{
layerId = "4350166A-1D95-43E0-8855-54890F69E6B2";
name = Regular;
paths = (
{
closed = 1;
nodes = (
"928 634 OFFCURVE",
"943 640 OFFCURVE",
"960 640 CURVE SMOOTH",
"995 640 OFFCURVE",
"1024 611 OFFCURVE",
"1024 576 CURVE SMOOTH",
"1024 541 OFFCURVE",
"995 512 OFFCURVE",
"960 512 CURVE SMOOTH",
"925 512 OFFCURVE",
"896 541 OFFCURVE",
"896 576 CURVE SMOOTH",
"896 593 OFFCURVE",
"902 608 OFFCURVE",
"915 621 CURVE SMOOTH"
);
},
{
closed = 1;
nodes = (
"1260 576 LINE",
"1767 178 LINE",
"1786 165 OFFCURVE",
"1794 146 OFFCURVE",
"1792 122 CURVE",
"1789 99 OFFCURVE",
"1777 82 OFFCURVE",
"1757 71 CURVE",
"1629 7 LINE",
"1620 2 OFFCURVE",
"1611 0 OFFCURVE",
"1600 0 CURVE SMOOTH",
"1589 0 OFFCURVE",
"1578 3 OFFCURVE",
"1569 8 CURVE SMOOTH",
"879 395 LINE",
"769 329 LINE SMOOTH",
"764 326 OFFCURVE",
"760 325 OFFCURVE",
"757 324 CURVE",
"776 259 OFFCURVE",
"776 174 OFFCURVE",
"711 80 CURVE SMOOTH",
"646 -14 OFFCURVE",
"495 -128 OFFCURVE",
"302 -128 CURVE SMOOTH",
"121 -128 OFFCURVE",
"-14 -7 OFFCURVE",
"1 157 CURVE SMOOTH",
"10 258 OFFCURVE",
"79 357 OFFCURVE",
"188 428 CURVE SMOOTH",
"276 484 OFFCURVE",
"369 512 OFFCURVE",
"466 512 CURVE SMOOTH",
"521 512 OFFCURVE",
"572 502 OFFCURVE",
"617 481 CURVE",
"623 490 OFFCURVE",
"630 497 OFFCURVE",
"639 503 CURVE",
"761 576 LINE",
"639 649 LINE",
"630 655 OFFCURVE",
"623 662 OFFCURVE",
"617 671 CURVE",
"572 650 OFFCURVE",
"521 640 OFFCURVE",
"466 640 CURVE SMOOTH",
"271 640 OFFCURVE",
"122 753 OFFCURVE",
"57 848 CURVE SMOOTH",
"-8 943 OFFCURVE",
"-11 1036 OFFCURVE",
"17 1108 CURVE SMOOTH",
"30 1144 OFFCURVE",
"51 1175 OFFCURVE",
"80 1201 CURVE SMOOTH",
"137 1254 OFFCURVE",
"211 1280 OFFCURVE",
"302 1280 CURVE SMOOTH",
"495 1280 OFFCURVE",
"646 1168 OFFCURVE",
"711 1073 CURVE SMOOTH",
"776 978 OFFCURVE",
"776 893 OFFCURVE",
"757 828 CURVE",
"760 827 OFFCURVE",
"764 826 OFFCURVE",
"769 823 CURVE SMOOTH",
"879 757 LINE",
"1569 1144 LINE SMOOTH",
"1578 1149 OFFCURVE",
"1589 1152 OFFCURVE",
"1600 1152 CURVE SMOOTH",
"1611 1152 OFFCURVE",
"1620 1150 OFFCURVE",
"1629 1145 CURVE",
"1757 1081 LINE",
"1777 1070 OFFCURVE",
"1789 1053 OFFCURVE",
"1792 1030 CURVE",
"1794 1006 OFFCURVE",
"1786 987 OFFCURVE",
"1767 974 CURVE"
);
},
{
closed = 1;
nodes = (
"640 892 OFFCURVE",
"602 993 OFFCURVE",
"494 1061 CURVE SMOOTH",
"433 1100 OFFCURVE",
"369 1120 OFFCURVE",
"302 1120 CURVE SMOOTH",
"203 1120 OFFCURVE",
"135 1064 OFFCURVE",
"168 976 CURVE SMOOTH",
"201 888 OFFCURVE",
"333 800 OFFCURVE",
"466 800 CURVE SMOOTH",
"515 800 OFFCURVE",
"553 812 OFFCURVE",
"579 836 CURVE SMOOTH"
);
},
{
closed = 1;
nodes = (
"602 159 OFFCURVE",
"640 260 OFFCURVE",
"579 316 CURVE SMOOTH",
"553 340 OFFCURVE",
"515 352 OFFCURVE",
"466 352 CURVE SMOOTH",
"333 352 OFFCURVE",
"201 264 OFFCURVE",
"168 176 CURVE SMOOTH",
"135 88 OFFCURVE",
"203 32 OFFCURVE",
"302 32 CURVE SMOOTH",
"369 32 OFFCURVE",
"433 52 OFFCURVE",
"494 91 CURVE SMOOTH"
);
},
{
closed = 1;
nodes = (
"672 704 LINE",
"768 646 LINE",
"768 657 LINE SMOOTH",
"768 681 OFFCURVE",
"779 700 OFFCURVE",
"801 713 CURVE SMOOTH",
"815 721 LINE",
"736 768 LINE",
"710 742 LINE SMOOTH",
"708 740 OFFCURVE",
"705 736 OFFCURVE",
"700 731 CURVE SMOOTH",
"695 726 OFFCURVE",
"691 722 OFFCURVE",
"688 719 CURVE SMOOTH",
"687 718 OFFCURVE",
"685 717 OFFCURVE",
"684 716 CURVE SMOOTH",
"683 715 OFFCURVE",
"682 714 OFFCURVE",
"681 713 CURVE SMOOTH"
);
},
{
closed = 1;
nodes = (
"896 480 LINE",
"992 448 LINE",
"1728 1024 LINE",
"1600 1088 LINE",
"832 657 LINE",
"832 544 LINE",
"672 448 LINE",
"681 440 LINE",
"682 439 OFFCURVE",
"685 437 OFFCURVE",
"688 434 CURVE SMOOTH",
"691 431 OFFCURVE",
"694 427 OFFCURVE",
"699 422 CURVE SMOOTH",
"704 417 OFFCURVE",
"707 413 OFFCURVE",
"710 410 CURVE SMOOTH",
"736 384 LINE"
);
},
{
closed = 1;
nodes = (
"1600 64 LINE",
"1728 128 LINE",
"1208 536 LINE",
"1031 398 LINE",
"1030 396 OFFCURVE",
"1025 394 OFFCURVE",
"1018 391 CURVE"
);
}
);
width = 1792;
}
);
unicode = F0C4;
},
{
glyphname = dashboard;
layers = (
{
layerId = "4350166A-1D95-43E0-8855-54890F69E6B2";
name = Regular;
paths = (
{
closed = 1;
nodes = (
"372 319 OFFCURVE",
"384 349 OFFCURVE",
"384 384 CURVE SMOOTH",
"384 455 OFFCURVE",
"327 512 OFFCURVE",
"256 512 CURVE SMOOTH",
"185 512 OFFCURVE",
"128 455 OFFCURVE",
"128 384 CURVE SMOOTH",
"128 313 OFFCURVE",
"185 256 OFFCURVE",
"256 256 CURVE SMOOTH",
"291 256 OFFCURVE",
"322 269 OFFCURVE",
"347 294 CURVE SMOOTH"
);
},
{
closed = 1;
nodes = (
"564 767 OFFCURVE",
"576 797 OFFCURVE",
"576 832 CURVE SMOOTH",
"576 903 OFFCURVE",
"519 960 OFFCURVE",
"448 960 CURVE SMOOTH",
"377 960 OFFCURVE",
"320 903 OFFCURVE",
"320 832 CURVE SMOOTH",
"320 761 OFFCURVE",
"377 704 OFFCURVE",
"448 704 CURVE SMOOTH",
"483 704 OFFCURVE",
"514 717 OFFCURVE",
"539 742 CURVE SMOOTH"
);
},
{
closed = 1;
nodes = (
"1105 733 LINE SMOOTH",
"1113 768 OFFCURVE",
"1092 802 OFFCURVE",
"1059 811 CURVE SMOOTH",
"1026 820 OFFCURVE",
"990 800 OFFCURVE",
"981 765 CURVE SMOOTH",
"880 383 LINE",
"800 376 OFFCURVE",
"731 321 OFFCURVE",
"710 241 CURVE SMOOTH",
"683 138 OFFCURVE",
"744 33 OFFCURVE",
"847 6 CURVE SMOOTH",
"950 -21 OFFCURVE",
"1055 40 OFFCURVE",
"1082 143 CURVE SMOOTH",
"1103 223 OFFCURVE",
"1071 306 OFFCURVE",
"1004 351 CURVE"
);
},
{
closed = 1;
nodes = (
"1652 319 OFFCURVE",
"1664 349 OFFCURVE",
"1664 384 CURVE SMOOTH",
"1664 455 OFFCURVE",
"1607 512 OFFCURVE",
"1536 512 CURVE SMOOTH",
"1465 512 OFFCURVE",
"1408 455 OFFCURVE",
"1408 384 CURVE SMOOTH",
"1408 313 OFFCURVE",
"1465 256 OFFCURVE",
"1536 256 CURVE SMOOTH",
"1571 256 OFFCURVE",
"1602 269 OFFCURVE",
"1627 294 CURVE SMOOTH"
);
},
{
closed = 1;
nodes = (
"1012 959 OFFCURVE",
"1024 989 OFFCURVE",
"1024 1024 CURVE SMOOTH",
"1024 1095 OFFCURVE",
"967 1152 OFFCURVE",
"896 1152 CURVE SMOOTH",
"825 1152 OFFCURVE",
"768 1095 OFFCURVE",
"768 1024 CURVE SMOOTH",
"768 953 OFFCURVE",
"825 896 OFFCURVE",
"896 896 CURVE SMOOTH",
"931 896 OFFCURVE",
"962 909 OFFCURVE",
"987 934 CURVE SMOOTH"
);
},
{
closed = 1;
nodes = (
"1460 767 OFFCURVE",
"1472 797 OFFCURVE",
"1472 832 CURVE SMOOTH",
"1472 903 OFFCURVE",
"1415 960 OFFCURVE",
"1344 960 CURVE SMOOTH",
"1273 960 OFFCURVE",
"1216 903 OFFCURVE",
"1216 832 CURVE SMOOTH",
"1216 761 OFFCURVE",
"1273 704 OFFCURVE",
"1344 704 CURVE SMOOTH",
"1379 704 OFFCURVE",
"1410 717 OFFCURVE",
"1435 742 CURVE SMOOTH"
);
},
{
closed = 1;
nodes = (
"1792 210 OFFCURVE",
"1745 49 OFFCURVE",
"1651 -99 CURVE SMOOTH",
"1638 -118 OFFCURVE",
"1620 -128 OFFCURVE",
"1597 -128 CURVE SMOOTH",
"195 -128 LINE SMOOTH",
"172 -128 OFFCURVE",
"154 -118 OFFCURVE",
"141 -99 CURVE SMOOTH",
"47 48 OFFCURVE",
"0 209 OFFCURVE",
"0 384 CURVE SMOOTH",
"0 627 OFFCURVE",
"102 858 OFFCURVE",
"262 1018 CURVE SMOOTH",
"422 1178 OFFCURVE",
"653 1280 OFFCURVE",
"896 1280 CURVE SMOOTH",
"1139 1280 OFFCURVE",
"1370 1178 OFFCURVE",
"1530 1018 CURVE SMOOTH",
"1690 858 OFFCURVE",
"1792 627 OFFCURVE",
"1792 384 CURVE SMOOTH"
);
}
);
width = 1792;
}
);
unicode = F0E4;
},
{
glyphname = desktop;
layers = (
{
layerId = "4350166A-1D95-43E0-8855-54890F69E6B2";
name = Regular;
paths = (
{
closed = 1;
nodes = (
"1792 1376 LINE SMOOTH",
"1792 1393 OFFCURVE",
"1777 1408 OFFCURVE",
"1760 1408 CURVE SMOOTH",
"160 1408 LINE SMOOTH",
"143 1408 OFFCURVE",
"128 1393 OFFCURVE",
"128 1376 CURVE SMOOTH",
"128 544 LINE SMOOTH",
"128 527 OFFCURVE",
"143 512 OFFCURVE",
"160 512 CURVE SMOOTH",
"1760 512 LINE SMOOTH",
"1777 512 OFFCURVE",
"1792 527 OFFCURVE",
"1792 544 CURVE SMOOTH"
);
},
{
closed = 1;
nodes = (
"1920 288 LINE SMOOTH",
"1920 200 OFFCURVE",
"1848 128 OFFCURVE",
"1760 128 CURVE SMOOTH",
"1216 128 LINE",
"1216 79 OFFCURVE",
"1243 20 OFFCURVE",
"1264 -20 CURVE SMOOTH",
"1275 -41 OFFCURVE",
"1280 -55 OFFCURVE",
"1280 -64 CURVE SMOOTH",
"1280 -99 OFFCURVE",
"1251 -128 OFFCURVE",
"1216 -128 CURVE SMOOTH",
"704 -128 LINE SMOOTH",
"669 -128 OFFCURVE",
"640 -99 OFFCURVE",
"640 -64 CURVE SMOOTH",
"640 -55 OFFCURVE",
"645 -40 OFFCURVE",
"656 -20 CURVE SMOOTH",
"677 20 OFFCURVE",
"704 77 OFFCURVE",
"704 128 CURVE",
"160 128 LINE SMOOTH",
"72 128 OFFCURVE",
"0 200 OFFCURVE",
"0 288 CURVE SMOOTH",
"0 1376 LINE SMOOTH",
"0 1464 OFFCURVE",
"72 1536 OFFCURVE",
"160 1536 CURVE SMOOTH",
"1760 1536 LINE SMOOTH",
"1848 1536 OFFCURVE",
"1920 1464 OFFCURVE",
"1920 1376 CURVE SMOOTH"
);
}
);
width = 1920;
}
);
unicode = F108;
},
{
glyphname = double_angle_down;
layers = (
{
layerId = "4350166A-1D95-43E0-8855-54890F69E6B2";
name = Regular;
paths = (
{
closed = 1;
nodes = (
"1065 695 LINE SMOOTH",
"1072 688 OFFCURVE",
"1075 681 OFFCURVE",
"1075 672 CURVE SMOOTH",
"1075 663 OFFCURVE",
"1072 656 OFFCURVE",
"1065 649 CURVE SMOOTH",
"599 183 LINE SMOOTH",
"592 176 OFFCURVE",
"585 173 OFFCURVE",
"576 173 CURVE SMOOTH",
"567 173 OFFCURVE",
"560 176 OFFCURVE",
"553 183 CURVE SMOOTH",
"87 649 LINE SMOOTH",
"80 656 OFFCURVE",
"77 663 OFFCURVE",
"77 672 CURVE SMOOTH",
"77 681 OFFCURVE",
"80 688 OFFCURVE",
"87 695 CURVE SMOOTH",
"137 745 LINE SMOOTH",
"144 752 OFFCURVE",
"151 755 OFFCURVE",
"160 755 CURVE SMOOTH",
"169 755 OFFCURVE",
"176 752 OFFCURVE",
"183 745 CURVE SMOOTH",
"576 352 LINE",
"969 745 LINE SMOOTH",
"976 752 OFFCURVE",
"983 755 OFFCURVE",
"992 755 CURVE SMOOTH",
"1001 755 OFFCURVE",
"1008 752 OFFCURVE",
"1015 745 CURVE SMOOTH"
);
},
{
closed = 1;
nodes = (
"1065 1079 LINE SMOOTH",
"1072 1072 OFFCURVE",
"1075 1065 OFFCURVE",
"1075 1056 CURVE SMOOTH",
"1075 1047 OFFCURVE",
"1072 1040 OFFCURVE",
"1065 1033 CURVE SMOOTH",
"599 567 LINE SMOOTH",
"592 560 OFFCURVE",
"585 557 OFFCURVE",
"576 557 CURVE SMOOTH",
"567 557 OFFCURVE",
"560 560 OFFCURVE",
"553 567 CURVE SMOOTH",
"87 1033 LINE SMOOTH",
"80 1040 OFFCURVE",
"77 1047 OFFCURVE",
"77 1056 CURVE SMOOTH",
"77 1065 OFFCURVE",
"80 1072 OFFCURVE",
"87 1079 CURVE SMOOTH",
"137 1129 LINE SMOOTH",
"144 1136 OFFCURVE",
"151 1139 OFFCURVE",
"160 1139 CURVE SMOOTH",
"169 1139 OFFCURVE",
"176 1136 OFFCURVE",
"183 1129 CURVE SMOOTH",
"576 736 LINE",
"969 1129 LINE SMOOTH",
"976 1136 OFFCURVE",
"983 1139 OFFCURVE",
"992 1139 CURVE SMOOTH",
"1001 1139 OFFCURVE",
"1008 1136 OFFCURVE",
"1015 1129 CURVE SMOOTH"
);
}
);
width = 1152;
}
);
unicode = F103;
},
{
glyphname = double_angle_left;
layers = (
{
layerId = "4350166A-1D95-43E0-8855-54890F69E6B2";
name = Regular;
paths = (
{
closed = 1;
nodes = (
"617 183 LINE SMOOTH",
"624 176 OFFCURVE",
"627 169 OFFCURVE",
"627 160 CURVE SMOOTH",
"627 151 OFFCURVE",
"624 144 OFFCURVE",
"617 137 CURVE SMOOTH",
"567 87 LINE SMOOTH",
"560 80 OFFCURVE",
"553 77 OFFCURVE",
"544 77 CURVE SMOOTH",
"535 77 OFFCURVE",
"528 80 OFFCURVE",
"521 87 CURVE SMOOTH",
"55 553 LINE SMOOTH",
"48 560 OFFCURVE",
"45 567 OFFCURVE",
"45 576 CURVE SMOOTH",
"45 585 OFFCURVE",
"48 592 OFFCURVE",
"55 599 CURVE SMOOTH",
"521 1065 LINE SMOOTH",
"528 1072 OFFCURVE",
"535 1075 OFFCURVE",
"544 1075 CURVE SMOOTH",
"553 1075 OFFCURVE",
"560 1072 OFFCURVE",
"567 1065 CURVE SMOOTH",
"617 1015 LINE SMOOTH",
"624 1008 OFFCURVE",
"627 1001 OFFCURVE",
"627 992 CURVE SMOOTH",
"627 983 OFFCURVE",
"624 976 OFFCURVE",
"617 969 CURVE SMOOTH",
"224 576 LINE"
);
},
{
closed = 1;
nodes = (
"1001 183 LINE SMOOTH",
"1008 176 OFFCURVE",
"1011 169 OFFCURVE",
"1011 160 CURVE SMOOTH",
"1011 151 OFFCURVE",
"1008 144 OFFCURVE",
"1001 137 CURVE SMOOTH",
"951 87 LINE SMOOTH",
"944 80 OFFCURVE",
"937 77 OFFCURVE",
"928 77 CURVE SMOOTH",
"919 77 OFFCURVE",
"912 80 OFFCURVE",
"905 87 CURVE SMOOTH",
"439 553 LINE SMOOTH",
"432 560 OFFCURVE",
"429 567 OFFCURVE",
"429 576 CURVE SMOOTH",
"429 585 OFFCURVE",
"432 592 OFFCURVE",
"439 599 CURVE SMOOTH",
"905 1065 LINE SMOOTH",
"912 1072 OFFCURVE",
"919 1075 OFFCURVE",
"928 1075 CURVE SMOOTH",
"937 1075 OFFCURVE",
"944 1072 OFFCURVE",
"951 1065 CURVE SMOOTH",
"1001 1015 LINE SMOOTH",
"1008 1008 OFFCURVE",
"1011 1001 OFFCURVE",
"1011 992 CURVE SMOOTH",
"1011 983 OFFCURVE",
"1008 976 OFFCURVE",
"1001 969 CURVE SMOOTH",
"608 576 LINE"
);
}
);
width = 1024;
}
);
unicode = F100;
},
{
glyphname = double_angle_right;
layers = (
{
layerId = "4350166A-1D95-43E0-8855-54890F69E6B2";
name = Regular;
paths = (
{
closed = 1;
nodes = (
"585 599 LINE SMOOTH",
"592 592 OFFCURVE",
"595 585 OFFCURVE",
"595 576 CURVE SMOOTH",
"595 567 OFFCURVE",
"592 560 OFFCURVE",
"585 553 CURVE SMOOTH",
"119 87 LINE SMOOTH",
"112 80 OFFCURVE",
"105 77 OFFCURVE",
"96 77 CURVE SMOOTH",
"87 77 OFFCURVE",
"80 80 OFFCURVE",
"73 87 CURVE SMOOTH",
"23 137 LINE SMOOTH",
"16 144 OFFCURVE",
"13 151 OFFCURVE",
"13 160 CURVE SMOOTH",
"13 169 OFFCURVE",
"16 176 OFFCURVE",
"23 183 CURVE SMOOTH",
"416 576 LINE",
"23 969 LINE SMOOTH",
"16 976 OFFCURVE",
"13 983 OFFCURVE",
"13 992 CURVE SMOOTH",
"13 1001 OFFCURVE",
"16 1008 OFFCURVE",
"23 1015 CURVE SMOOTH",
"73 1065 LINE SMOOTH",
"80 1072 OFFCURVE",
"87 1075 OFFCURVE",
"96 1075 CURVE SMOOTH",
"105 1075 OFFCURVE",
"112 1072 OFFCURVE",
"119 1065 CURVE SMOOTH"
);
},
{
closed = 1;
nodes = (
"969 599 LINE SMOOTH",
"976 592 OFFCURVE",
"979 585 OFFCURVE",
"979 576 CURVE SMOOTH",
"979 567 OFFCURVE",
"976 560 OFFCURVE",
"969 553 CURVE SMOOTH",
"503 87 LINE SMOOTH",
"496 80 OFFCURVE",
"489 77 OFFCURVE",
"480 77 CURVE SMOOTH",
"471 77 OFFCURVE",
"464 80 OFFCURVE",
"457 87 CURVE SMOOTH",
"407 137 LINE SMOOTH",
"400 144 OFFCURVE",
"397 151 OFFCURVE",
"397 160 CURVE SMOOTH",
"397 169 OFFCURVE",
"400 176 OFFCURVE",
"407 183 CURVE SMOOTH",
"800 576 LINE",
"407 969 LINE SMOOTH",
"400 976 OFFCURVE",
"397 983 OFFCURVE",
"397 992 CURVE SMOOTH",
"397 1001 OFFCURVE",
"400 1008 OFFCURVE",
"407 1015 CURVE SMOOTH",
"457 1065 LINE SMOOTH",
"464 1072 OFFCURVE",
"471 1075 OFFCURVE",
"480 1075 CURVE SMOOTH",
"489 1075 OFFCURVE",
"496 1072 OFFCURVE",
"503 1065 CURVE SMOOTH"
);
}
);
width = 1024;
}
);
unicode = F101;
},
{
glyphname = double_angle_up;
layers = (
{
layerId = "4350166A-1D95-43E0-8855-54890F69E6B2";
name = Regular;
paths = (
{
closed = 1;
nodes = (
"1065 247 LINE SMOOTH",
"1072 240 OFFCURVE",
"1075 233 OFFCURVE",
"1075 224 CURVE SMOOTH",
"1075 215 OFFCURVE",
"1072 208 OFFCURVE",
"1065 201 CURVE SMOOTH",
"1015 151 LINE SMOOTH",
"1008 144 OFFCURVE",
"1001 141 OFFCURVE",
"992 141 CURVE SMOOTH",
"983 141 OFFCURVE",
"976 144 OFFCURVE",
"969 151 CURVE SMOOTH",
"576 544 LINE",
"183 151 LINE SMOOTH",
"176 144 OFFCURVE",
"169 141 OFFCURVE",
"160 141 CURVE SMOOTH",
"151 141 OFFCURVE",
"144 144 OFFCURVE",
"137 151 CURVE SMOOTH",
"87 201 LINE SMOOTH",
"80 208 OFFCURVE",
"77 215 OFFCURVE",
"77 224 CURVE SMOOTH",
"77 233 OFFCURVE",
"80 240 OFFCURVE",
"87 247 CURVE SMOOTH",
"553 713 LINE SMOOTH",
"560 720 OFFCURVE",
"567 723 OFFCURVE",
"576 723 CURVE SMOOTH",
"585 723 OFFCURVE",
"592 720 OFFCURVE",
"599 713 CURVE SMOOTH"
);
},
{
closed = 1;
nodes = (
"1065 631 LINE SMOOTH",
"1072 624 OFFCURVE",
"1075 617 OFFCURVE",
"1075 608 CURVE SMOOTH",
"1075 599 OFFCURVE",
"1072 592 OFFCURVE",
"1065 585 CURVE SMOOTH",
"1015 535 LINE SMOOTH",
"1008 528 OFFCURVE",
"1001 525 OFFCURVE",
"992 525 CURVE SMOOTH",
"983 525 OFFCURVE",
"976 528 OFFCURVE",
"969 535 CURVE SMOOTH",
"576 928 LINE",
"183 535 LINE SMOOTH",
"176 528 OFFCURVE",
"169 525 OFFCURVE",
"160 525 CURVE SMOOTH",
"151 525 OFFCURVE",
"144 528 OFFCURVE",
"137 535 CURVE SMOOTH",
"87 585 LINE SMOOTH",
"80 592 OFFCURVE",
"77 599 OFFCURVE",
"77 608 CURVE SMOOTH",
"77 617 OFFCURVE",
"80 624 OFFCURVE",
"87 631 CURVE SMOOTH",
"553 1097 LINE SMOOTH",
"560 1104 OFFCURVE",
"567 1107 OFFCURVE",
"576 1107 CURVE SMOOTH",
"585 1107 OFFCURVE",
"592 1104 OFFCURVE",
"599 1097 CURVE SMOOTH"
);
}
);
width = 1152;
}
);
unicode = F102;
},
{
glyphname = download;
layers = (
{
layerId = "4350166A-1D95-43E0-8855-54890F69E6B2";
name = Regular;
paths = (
{
closed = 1;
nodes = (
"1120 600 OFFCURVE",
"1117 592 OFFCURVE",
"1110 584 CURVE",
"791 265 LINE SMOOTH",
"785 259 OFFCURVE",
"777 256 OFFCURVE",
"768 256 CURVE SMOOTH",
"759 256 OFFCURVE",
"751 259 OFFCURVE",
"745 265 CURVE SMOOTH",
"425 585 LINE SMOOTH",
"419 591 OFFCURVE",
"416 599 OFFCURVE",
"416 608 CURVE SMOOTH",
"416 625 OFFCURVE",
"431 640 OFFCURVE",
"448 640 CURVE SMOOTH",
"640 640 LINE",
"640 992 LINE SMOOTH",
"640 1009 OFFCURVE",
"655 1024 OFFCURVE",
"672 1024 CURVE SMOOTH",
"864 1024 LINE SMOOTH",
"881 1024 OFFCURVE",
"896 1009 OFFCURVE",
"896 992 CURVE SMOOTH",
"896 640 LINE",
"1088 640 LINE SMOOTH",
"1107 640 OFFCURVE",
"1120 627 OFFCURVE",
"1120 608 CURVE SMOOTH"
);
},
{
closed = 1;
nodes = (
"1267 505 OFFCURVE",
"1280 571 OFFCURVE",
"1280 640 CURVE SMOOTH",
"1280 779 OFFCURVE",
"1222 910 OFFCURVE",
"1130 1002 CURVE SMOOTH",
"1038 1094 OFFCURVE",
"907 1152 OFFCURVE",
"768 1152 CURVE SMOOTH",
"629 1152 OFFCURVE",
"498 1094 OFFCURVE",
"406 1002 CURVE SMOOTH",
"314 910 OFFCURVE",
"256 779 OFFCURVE",
"256 640 CURVE SMOOTH",
"256 501 OFFCURVE",
"314 370 OFFCURVE",
"406 278 CURVE SMOOTH",
"498 186 OFFCURVE",
"629 128 OFFCURVE",
"768 128 CURVE SMOOTH",
"907 128 OFFCURVE",
"1038 186 OFFCURVE",
"1130 278 CURVE SMOOTH",
"1176 324 OFFCURVE",
"1213 379 OFFCURVE",
"1240 442 CURVE SMOOTH"
);
},
{
closed = 1;
nodes = (
"1502 908 OFFCURVE",
"1536 779 OFFCURVE",
"1536 640 CURVE SMOOTH",
"1536 361 OFFCURVE",
"1389 112 OFFCURVE",
"1154 -25 CURVE SMOOTH",
"1036 -94 OFFCURVE",
"907 -128 OFFCURVE",
"768 -128 CURVE SMOOTH",
"489 -128 OFFCURVE",
"240 19 OFFCURVE",
"103 255 CURVE SMOOTH",
"34 372 OFFCURVE",
"0 501 OFFCURVE",
"0 640 CURVE SMOOTH",
"0 919 OFFCURVE",
"147 1168 OFFCURVE",
"383 1305 CURVE SMOOTH",
"500 1374 OFFCURVE",
"629 1408 OFFCURVE",
"768 1408 CURVE SMOOTH",
"1047 1408 OFFCURVE",
"1296 1261 OFFCURVE",
"1433 1026 CURVE SMOOTH"
);
}
);
width = 1536;
}
);
unicode = F01A;
},
{
glyphname = download_alt;
layers = (
{
layerId = "4350166A-1D95-43E0-8855-54890F69E6B2";
name = Regular;
paths = (
{
closed = 1;
nodes = (
"1350 702 OFFCURVE",
"1346 678 OFFCURVE",
"1325 659 CURVE",
"877 211 LINE",
"865 198 OFFCURVE",
"850 192 OFFCURVE",
"832 192 CURVE SMOOTH",
"814 192 OFFCURVE",
"799 198 OFFCURVE",
"787 211 CURVE",
"339 659 LINE SMOOTH",
"298 698 OFFCURVE",
"328 768 OFFCURVE",
"384 768 CURVE SMOOTH",
"640 768 LINE",
"640 1216 LINE SMOOTH",
"640 1251 OFFCURVE",
"669 1280 OFFCURVE",
"704 1280 CURVE SMOOTH",
"960 1280 LINE SMOOTH",
"995 1280 OFFCURVE",
"1024 1251 OFFCURVE",
"1024 1216 CURVE SMOOTH",
"1024 768 LINE",
"1280 768 LINE SMOOTH",
"1308 768 OFFCURVE",
"1328 755 OFFCURVE",
"1339 729 CURVE SMOOTH"
);
},
{
closed = 1;
nodes = (
"1632 512 LINE SMOOTH",
"1651 512 OFFCURVE",
"1664 499 OFFCURVE",
"1664 480 CURVE SMOOTH",
"1664 -96 LINE SMOOTH",
"1664 -115 OFFCURVE",
"1651 -128 OFFCURVE",
"1632 -128 CURVE SMOOTH",
"32 -128 LINE SMOOTH",
"13 -128 OFFCURVE",
"0 -115 OFFCURVE",
"0 -96 CURVE SMOOTH",
"0 480 LINE SMOOTH",
"0 499 OFFCURVE",
"13 512 OFFCURVE",
"32 512 CURVE SMOOTH",
"224 512 LINE SMOOTH",
"243 512 OFFCURVE",
"256 499 OFFCURVE",
"256 480 CURVE SMOOTH",
"256 128 LINE",
"1408 128 LINE",
"1408 480 LINE SMOOTH",
"1408 499 OFFCURVE",
"1421 512 OFFCURVE",
"1440 512 CURVE SMOOTH"
);
}
);
width = 1664;
}
);
unicode = F019;
},
{
glyphname = edit;
layers = (
{
layerId = "4350166A-1D95-43E0-8855-54890F69E6B2";
name = Regular;
paths = (
{
closed = 1;
nodes = (
"888 352 LINE",
"1004 468 LINE",
"852 620 LINE",
"736 504 LINE",
"736 448 LINE",
"832 448 LINE",
"832 352 LINE"
);
},
{
closed = 1;
nodes = (
"1327 1039 LINE SMOOTH",
"1350 1062 OFFCURVE",
"1318 1094 OFFCURVE",
"1295 1071 CURVE SMOOTH",
"945 721 LINE SMOOTH",
"922 698 OFFCURVE",
"954 666 OFFCURVE",
"977 689 CURVE SMOOTH"
);
},
{
closed = 1;
nodes = (
"1408 288 LINE SMOOTH",
"1408 129 OFFCURVE",
"1279 0 OFFCURVE",
"1120 0 CURVE SMOOTH",
"288 0 LINE SMOOTH",
"129 0 OFFCURVE",
"0 129 OFFCURVE",
"0 288 CURVE SMOOTH",
"0 1120 LINE SMOOTH",
"0 1279 OFFCURVE",
"129 1408 OFFCURVE",
"288 1408 CURVE SMOOTH",
"1120 1408 LINE SMOOTH",
"1162 1408 OFFCURVE",
"1201 1400 OFFCURVE",
"1237 1383 CURVE SMOOTH",
"1257 1374 OFFCURVE",
"1262 1347 OFFCURVE",
"1246 1331 CURVE SMOOTH",
"1197 1282 LINE SMOOTH",
"1188 1273 OFFCURVE",
"1177 1270 OFFCURVE",
"1165 1274 CURVE",
"1150 1278 OFFCURVE",
"1135 1280 OFFCURVE",
"1120 1280 CURVE SMOOTH",
"288 1280 LINE SMOOTH",
"200 1280 OFFCURVE",
"128 1208 OFFCURVE",
"128 1120 CURVE SMOOTH",
"128 288 LINE SMOOTH",
"128 200 OFFCURVE",
"200 128 OFFCURVE",
"288 128 CURVE SMOOTH",
"1120 128 LINE SMOOTH",
"1208 128 OFFCURVE",
"1280 200 OFFCURVE",
"1280 288 CURVE SMOOTH",
"1280 414 LINE SMOOTH",
"1280 423 OFFCURVE",
"1283 430 OFFCURVE",
"1289 436 CURVE SMOOTH",
"1353 500 LINE SMOOTH",
"1373 520 OFFCURVE",
"1408 506 OFFCURVE",
"1408 478 CURVE SMOOTH"
);
},
{
closed = 1;
nodes = (
"1312 1216 LINE",
"1600 928 LINE",
"928 256 LINE",
"640 256 LINE",
"640 544 LINE"
);
},
{
closed = 1;
nodes = (
"1664 992 LINE",
"1376 1280 LINE",
"1468 1372 LINE SMOOTH",
"1487 1391 OFFCURVE",
"1509 1400 OFFCURVE",
"1536 1400 CURVE SMOOTH",
"1563 1400 OFFCURVE",
"1585 1391 OFFCURVE",
"1604 1372 CURVE SMOOTH",
"1756 1220 LINE SMOOTH",
"1775 1201 OFFCURVE",
"1784 1179 OFFCURVE",
"1784 1152 CURVE SMOOTH",
"1784 1125 OFFCURVE",
"1775 1103 OFFCURVE",
"1756 1084 CURVE SMOOTH"
);
}
);
width = 1792;
}
);
unicode = F044;
},
{
glyphname = eject;
layers = (
{
layerId = "4350166A-1D95-43E0-8855-54890F69E6B2";
name = Regular;
paths = (
{
closed = 1;
nodes = (
"724 1267 LINE SMOOTH",
"737 1280 OFFCURVE",
"752 1286 OFFCURVE",
"769 1286 CURVE SMOOTH",
"786 1286 OFFCURVE",
"801 1280 OFFCURVE",
"814 1267 CURVE SMOOTH",
"1524 557 LINE SMOOTH",
"1549 532 OFFCURVE",
"1540 512 OFFCURVE",
"1505 512 CURVE SMOOTH",
"33 512 LINE SMOOTH",
"-2 512 OFFCURVE",
"-11 532 OFFCURVE",
"14 557 CURVE SMOOTH"
);
},
{
closed = 1;
nodes = (
"65 0 LINE SMOOTH",
"30 0 OFFCURVE",
"1 29 OFFCURVE",
"1 64 CURVE SMOOTH",
"1 320 LINE SMOOTH",
"1 355 OFFCURVE",
"30 384 OFFCURVE",
"65 384 CURVE SMOOTH",
"1473 384 LINE SMOOTH",
"1508 384 OFFCURVE",
"1537 355 OFFCURVE",
"1537 320 CURVE SMOOTH",
"1537 64 LINE SMOOTH",
"1537 29 OFFCURVE",
"1508 0 OFFCURVE",
"1473 0 CURVE SMOOTH"
);
}
);
width = 1538;
}
);
unicode = F052;
},
{
glyphname = exchange;
layers = (
{
layerId = "4350166A-1D95-43E0-8855-54890F69E6B2";
name = Regular;
paths = (
{
closed = 1;
nodes = (
"1792 160 LINE SMOOTH",
"1792 143 OFFCURVE",
"1777 128 OFFCURVE",
"1760 128 CURVE SMOOTH",
"384 128 LINE",
"384 -64 LINE SMOOTH",
"384 -81 OFFCURVE",
"369 -96 OFFCURVE",
"352 -96 CURVE SMOOTH",
"344 -96 OFFCURVE",
"336 -93 OFFCURVE",
"328 -86 CURVE",
"9 234 LINE SMOOTH",
"3 240 OFFCURVE",
"0 247 OFFCURVE",
"0 256 CURVE SMOOTH",
"0 265 OFFCURVE",
"3 273 OFFCURVE",
"9 279 CURVE SMOOTH",
"329 599 LINE SMOOTH",
"335 605 OFFCURVE",
"343 608 OFFCURVE",
"352 608 CURVE SMOOTH",
"369 608 OFFCURVE",
"384 593 OFFCURVE",
"384 576 CURVE SMOOTH",
"384 384 LINE",
"1760 384 LINE SMOOTH",
"1777 384 OFFCURVE",
"1792 369 OFFCURVE",
"1792 352 CURVE SMOOTH"
);
},
{
closed = 1;
nodes = (
"1783 919 LINE SMOOTH",
"1789 913 OFFCURVE",
"1792 905 OFFCURVE",
"1792 896 CURVE SMOOTH",
"1792 887 OFFCURVE",
"1789 879 OFFCURVE",
"1783 873 CURVE SMOOTH",
"1463 553 LINE SMOOTH",
"1457 547 OFFCURVE",
"1449 544 OFFCURVE",
"1440 544 CURVE SMOOTH",
"1423 544 OFFCURVE",
"1408 559 OFFCURVE",
"1408 576 CURVE SMOOTH",
"1408 768 LINE",
"32 768 LINE SMOOTH",
"15 768 OFFCURVE",
"0 783 OFFCURVE",
"0 800 CURVE SMOOTH",
"0 992 LINE SMOOTH",
"0 1009 OFFCURVE",
"15 1024 OFFCURVE",
"32 1024 CURVE SMOOTH",
"1408 1024 LINE",
"1408 1216 LINE SMOOTH",
"1408 1235 OFFCURVE",
"1421 1248 OFFCURVE",
"1440 1248 CURVE SMOOTH",
"1448 1248 OFFCURVE",
"1456 1245 OFFCURVE",
"1464 1238 CURVE"
);
}
);
width = 1792;
}
);
unicode = F0EC;
},
{
glyphname = exclamation_sign;
layers = (
{
layerId = "4350166A-1D95-43E0-8855-54890F69E6B2";
name = Regular;
paths = (
{
closed = 1;
nodes = (
"500 1374 OFFCURVE",
"629 1408 OFFCURVE",
"768 1408 CURVE SMOOTH",
"1047 1408 OFFCURVE",
"1296 1261 OFFCURVE",
"1433 1026 CURVE SMOOTH",
"1502 908 OFFCURVE",
"1536 779 OFFCURVE",
"1536 640 CURVE SMOOTH",
"1536 361 OFFCURVE",
"1389 112 OFFCURVE",
"1154 -25 CURVE SMOOTH",
"1036 -94 OFFCURVE",
"907 -128 OFFCURVE",
"768 -128 CURVE SMOOTH",
"489 -128 OFFCURVE",
"240 19 OFFCURVE",
"103 255 CURVE SMOOTH",
"34 372 OFFCURVE",
"0 501 OFFCURVE",
"0 640 CURVE SMOOTH",
"0 919 OFFCURVE",
"147 1168 OFFCURVE",
"383 1305 CURVE SMOOTH"
);
},
{
closed = 1;
nodes = (
"896 351 LINE SMOOTH",
"896 370 OFFCURVE",
"882 384 OFFCURVE",
"865 384 CURVE SMOOTH",
"673 384 LINE SMOOTH",
"656 384 OFFCURVE",
"640 368 OFFCURVE",
"640 351 CURVE SMOOTH",
"640 161 LINE SMOOTH",
"640 144 OFFCURVE",
"656 128 OFFCURVE",
"673 128 CURVE SMOOTH",
"865 128 LINE SMOOTH",
"882 128 OFFCURVE",
"896 142 OFFCURVE",
"896 161 CURVE SMOOTH"
);
},
{
closed = 1;
nodes = (
"912 1126 LINE SMOOTH",
"912 1142 OFFCURVE",
"897 1152 OFFCURVE",
"878 1152 CURVE SMOOTH",
"658 1152 LINE SMOOTH",
"639 1152 OFFCURVE",
"624 1142 OFFCURVE",
"624 1126 CURVE SMOOTH",
"641 505 LINE SMOOTH",
"641 492 OFFCURVE",
"656 480 OFFCURVE",
"675 480 CURVE SMOOTH",
"860 480 LINE SMOOTH",
"879 480 OFFCURVE",
"893 492 OFFCURVE",
"894 505 CURVE"
);
}
);
width = 1536;
}
);
unicode = F06A;
},
{
glyphname = external_link;
layers = (
{
layerId = "4350166A-1D95-43E0-8855-54890F69E6B2";
name = Regular;
paths = (
{
closed = 1;
nodes = (
"1408 288 LINE SMOOTH",
"1408 129 OFFCURVE",
"1279 0 OFFCURVE",
"1120 0 CURVE SMOOTH",
"288 0 LINE SMOOTH",
"129 0 OFFCURVE",
"0 129 OFFCURVE",
"0 288 CURVE SMOOTH",
"0 1120 LINE SMOOTH",
"0 1279 OFFCURVE",
"129 1408 OFFCURVE",
"288 1408 CURVE SMOOTH",
"992 1408 LINE SMOOTH",
"1011 1408 OFFCURVE",
"1024 1395 OFFCURVE",
"1024 1376 CURVE SMOOTH",
"1024 1312 LINE SMOOTH",
"1024 1293 OFFCURVE",
"1011 1280 OFFCURVE",
"992 1280 CURVE SMOOTH",
"288 1280 LINE SMOOTH",
"200 1280 OFFCURVE",
"128 1208 OFFCURVE",
"128 1120 CURVE SMOOTH",
"128 288 LINE SMOOTH",
"128 200 OFFCURVE",
"200 128 OFFCURVE",
"288 128 CURVE SMOOTH",
"1120 128 LINE SMOOTH",
"1208 128 OFFCURVE",
"1280 200 OFFCURVE",
"1280 288 CURVE SMOOTH",
"1280 608 LINE SMOOTH",
"1280 627 OFFCURVE",
"1293 640 OFFCURVE",
"1312 640 CURVE SMOOTH",
"1376 640 LINE SMOOTH",
"1395 640 OFFCURVE",
"1408 627 OFFCURVE",
"1408 608 CURVE SMOOTH"
);
},
{
closed = 1;
nodes = (
"1792 960 LINE SMOOTH",
"1792 925 OFFCURVE",
"1763 896 OFFCURVE",
"1728 896 CURVE SMOOTH",
"1711 896 OFFCURVE",
"1696 902 OFFCURVE",
"1683 915 CURVE SMOOTH",
"1507 1091 LINE",
"855 439 LINE SMOOTH",
"848 432 OFFCURVE",
"841 429 OFFCURVE",
"832 429 CURVE SMOOTH",
"823 429 OFFCURVE",
"816 432 OFFCURVE",
"809 439 CURVE SMOOTH",
"695 553 LINE SMOOTH",
"688 560 OFFCURVE",
"685 567 OFFCURVE",
"685 576 CURVE SMOOTH",
"685 585 OFFCURVE",
"688 592 OFFCURVE",
"695 599 CURVE SMOOTH",
"1347 1251 LINE",
"1171 1427 LINE SMOOTH",
"1158 1440 OFFCURVE",
"1152 1455 OFFCURVE",
"1152 1472 CURVE SMOOTH",
"1152 1507 OFFCURVE",
"1181 1536 OFFCURVE",
"1216 1536 CURVE SMOOTH",
"1728 1536 LINE SMOOTH",
"1763 1536 OFFCURVE",
"1792 1507 OFFCURVE",
"1792 1472 CURVE SMOOTH"
);
}
);
width = 1792;
}
);
unicode = F08E;
},
{
glyphname = eye_close;
layers = (
{
layerId = "4350166A-1D95-43E0-8855-54890F69E6B2";
name = Regular;
paths = (
{
closed = 1;
nodes = (
"633 342 LINE",
"517 426 OFFCURVE",
"448 561 OFFCURVE",
"448 704 CURVE SMOOTH",
"448 785 OFFCURVE",
"468 860 OFFCURVE",
"509 929 CURVE",
"356 851 OFFCURVE",
"229 733 OFFCURVE",
"128 576 CURVE",
"239 404 OFFCURVE",
"382 279 OFFCURVE",
"555 201 CURVE"
);
},
{
closed = 1;
nodes = (
"939 935 OFFCURVE",
"944 947 OFFCURVE",
"944 960 CURVE SMOOTH",
"944 987 OFFCURVE",
"923 1008 OFFCURVE",
"896 1008 CURVE SMOOTH",
"729 1008 OFFCURVE",
"592 871 OFFCURVE",
"592 704 CURVE SMOOTH",
"592 677 OFFCURVE",
"613 656 OFFCURVE",
"640 656 CURVE SMOOTH",
"667 656 OFFCURVE",
"688 677 OFFCURVE",
"688 704 CURVE SMOOTH",
"688 819 OFFCURVE",
"781 912 OFFCURVE",
"896 912 CURVE SMOOTH",
"909 912 OFFCURVE",
"921 917 OFFCURVE",
"930 926 CURVE SMOOTH"
);
},
{
closed = 1;
nodes = (
"1307 1146 OFFCURVE",
"1307 1143 OFFCURVE",
"1306 1142 CURVE",
"1236 1017 OFFCURVE",
"1131 828 OFFCURVE",
"991 576 CURVE SMOOTH",
"851 324 OFFCURVE",
"746 135 OFFCURVE",
"675 9 CURVE SMOOTH",
"626 -80 LINE",
"619 -91 OFFCURVE",
"610 -96 OFFCURVE",
"598 -96 CURVE SMOOTH",
"590 -96 OFFCURVE",
"545 -73 OFFCURVE",
"464 -26 CURVE",
"453 -19 OFFCURVE",
"448 -10 OFFCURVE",
"448 2 CURVE SMOOTH",
"448 10 OFFCURVE",
"463 39 OFFCURVE",
"492 89 CURVE",
"301 176 OFFCURVE",
"137 324 OFFCURVE",
"20 507 CURVE SMOOTH",
"7 528 OFFCURVE",
"0 551 OFFCURVE",
"0 576 CURVE SMOOTH",
"0 601 OFFCURVE",
"7 624 OFFCURVE",
"20 645 CURVE SMOOTH",
"224 958 OFFCURVE",
"537 1152 OFFCURVE",
"896 1152 CURVE SMOOTH",
"955 1152 OFFCURVE",
"1015 1146 OFFCURVE",
"1076 1135 CURVE",
"1130 1232 LINE",
"1137 1243 OFFCURVE",
"1146 1248 OFFCURVE",
"1158 1248 CURVE SMOOTH",
"1161 1248 OFFCURVE",
"1167 1246 OFFCURVE",
"1176 1242 CURVE SMOOTH",
"1193 1234 OFFCURVE",
"1220 1220 OFFCURVE",
"1240 1208 CURVE SMOOTH",
"1250 1202 OFFCURVE",
"1261 1196 OFFCURVE",
"1272 1190 CURVE SMOOTH",
"1294 1177 OFFCURVE",
"1307 1174 OFFCURVE",
"1307 1151 CURVE SMOOTH"
);
},
{
closed = 1;
nodes = (
"1344 519 OFFCURVE",
"1229 353 OFFCURVE",
"1056 286 CURVE",
"1336 788 LINE",
"1341 758 OFFCURVE",
"1344 730 OFFCURVE",
"1344 704 CURVE SMOOTH"
);
},
{
closed = 1;
nodes = (
"1785 622 OFFCURVE",
"1792 599 OFFCURVE",
"1792 576 CURVE SMOOTH",
"1792 553 OFFCURVE",
"1785 530 OFFCURVE",
"1772 507 CURVE SMOOTH",
"1746 464 OFFCURVE",
"1710 416 OFFCURVE",
"1663 362 CURVE SMOOTH",
"1463 133 OFFCURVE",
"1192 0 OFFCURVE",
"896 0 CURVE",
"970 132 LINE",
"1253 156 OFFCURVE",
"1503 325 OFFCURVE",
"1664 576 CURVE",
"1587 695 OFFCURVE",
"1493 793 OFFCURVE",
"1382 870 CURVE",
"1445 982 LINE",
"1572 897 OFFCURVE",
"1696 772 OFFCURVE",
"1772 645 CURVE SMOOTH"
);
}
);
width = 1792;
}
);
unicode = F070;
},
{
glyphname = eye_open;
layers = (
{
layerId = "4350166A-1D95-43E0-8855-54890F69E6B2";
name = Regular;
paths = (
{
closed = 1;
nodes = (
"1563 733 OFFCURVE",
"1436 851 OFFCURVE",
"1283 929 CURVE",
"1324 860 OFFCURVE",
"1344 785 OFFCURVE",
"1344 704 CURVE SMOOTH",
"1344 457 OFFCURVE",
"1143 256 OFFCURVE",
"896 256 CURVE SMOOTH",
"649 256 OFFCURVE",
"448 457 OFFCURVE",
"448 704 CURVE SMOOTH",
"448 785 OFFCURVE",
"468 860 OFFCURVE",
"509 929 CURVE",
"356 851 OFFCURVE",
"229 733 OFFCURVE",
"128 576 CURVE",
"305 303 OFFCURVE",
"584 128 OFFCURVE",
"896 128 CURVE SMOOTH",
"1208 128 OFFCURVE",
"1487 303 OFFCURVE",
"1664 576 CURVE"
);
},
{
closed = 1;
nodes = (
"939 935 OFFCURVE",
"944 947 OFFCURVE",
"944 960 CURVE SMOOTH",
"944 987 OFFCURVE",
"923 1008 OFFCURVE",
"896 1008 CURVE SMOOTH",
"729 1008 OFFCURVE",
"592 871 OFFCURVE",
"592 704 CURVE SMOOTH",
"592 677 OFFCURVE",
"613 656 OFFCURVE",
"640 656 CURVE SMOOTH",
"667 656 OFFCURVE",
"688 677 OFFCURVE",
"688 704 CURVE SMOOTH",
"688 819 OFFCURVE",
"781 912 OFFCURVE",
"896 912 CURVE SMOOTH",
"909 912 OFFCURVE",
"921 917 OFFCURVE",
"930 926 CURVE SMOOTH"
);
},
{
closed = 1;
nodes = (
"1785 622 OFFCURVE",
"1792 599 OFFCURVE",
"1792 576 CURVE SMOOTH",
"1792 553 OFFCURVE",
"1785 530 OFFCURVE",
"1772 507 CURVE SMOOTH",
"1585 200 OFFCURVE",
"1247 0 OFFCURVE",
"896 0 CURVE SMOOTH",
"545 0 OFFCURVE",
"207 202 OFFCURVE",
"20 507 CURVE",
"7 530 OFFCURVE",
"0 553 OFFCURVE",
"0 576 CURVE SMOOTH",
"0 599 OFFCURVE",
"7 622 OFFCURVE",
"20 645 CURVE",
"207 950 OFFCURVE",
"545 1152 OFFCURVE",
"896 1152 CURVE SMOOTH",
"1247 1152 OFFCURVE",
"1585 950 OFFCURVE",
"1772 645 CURVE"
);
}
);
width = 1792;
}
);
unicode = F06E;
},
{
glyphname = f0fe;
layers = (
{
layerId = "4350166A-1D95-43E0-8855-54890F69E6B2";
name = Regular;
paths = (
{
closed = 1;
nodes = (
"1280 704 LINE SMOOTH",
"1280 739 OFFCURVE",
"1251 768 OFFCURVE",
"1216 768 CURVE SMOOTH",
"896 768 LINE",
"896 1088 LINE SMOOTH",
"896 1123 OFFCURVE",
"867 1152 OFFCURVE",
"832 1152 CURVE SMOOTH",
"704 1152 LINE SMOOTH",
"669 1152 OFFCURVE",
"640 1123 OFFCURVE",
"640 1088 CURVE SMOOTH",
"640 768 LINE",
"320 768 LINE SMOOTH",
"285 768 OFFCURVE",
"256 739 OFFCURVE",
"256 704 CURVE SMOOTH",
"256 576 LINE SMOOTH",
"256 541 OFFCURVE",
"285 512 OFFCURVE",
"320 512 CURVE SMOOTH",
"640 512 LINE",
"640 192 LINE SMOOTH",
"640 157 OFFCURVE",
"669 128 OFFCURVE",
"704 128 CURVE SMOOTH",
"832 128 LINE SMOOTH",
"867 128 OFFCURVE",
"896 157 OFFCURVE",
"896 192 CURVE SMOOTH",
"896 512 LINE",
"1216 512 LINE SMOOTH",
"1251 512 OFFCURVE",
"1280 541 OFFCURVE",
"1280 576 CURVE SMOOTH"
);
},
{
closed = 1;
nodes = (
"1536 160 LINE SMOOTH",
"1536 1 OFFCURVE",
"1407 -128 OFFCURVE",
"1248 -128 CURVE SMOOTH",
"288 -128 LINE SMOOTH",
"129 -128 OFFCURVE",
"0 1 OFFCURVE",
"0 160 CURVE SMOOTH",
"0 1120 LINE SMOOTH",
"0 1279 OFFCURVE",
"129 1408 OFFCURVE",
"288 1408 CURVE SMOOTH",
"1248 1408 LINE SMOOTH",
"1407 1408 OFFCURVE",
"1536 1279 OFFCURVE",
"1536 1120 CURVE SMOOTH"
);
}
);
width = 1536;
}
);
unicode = F0FE;
},
{
glyphname = facebook;
layers = (
{
layerId = "4350166A-1D95-43E0-8855-54890F69E6B2";
name = Regular;
paths = (
{
closed = 1;
nodes = (
"495 1125 OFFCURVE",
"485 1111 OFFCURVE",
"485 1043 CURVE SMOOTH",
"485 955 LINE",
"702 955 LINE SMOOTH",
"723 955 OFFCURVE",
"740 935 OFFCURVE",
"739 914 CURVE SMOOTH",
"725 714 LINE",
"722 694 OFFCURVE",
"707 678 OFFCURVE",
"687 678 CURVE SMOOTH",
"485 678 LINE",
"485 -90 LINE SMOOTH",
"485 -111 OFFCURVE",
"468 -128 OFFCURVE",
"448 -128 CURVE SMOOTH",
"198 -128 LINE SMOOTH",
"177 -128 OFFCURVE",
"160 -111 OFFCURVE",
"160 -90 CURVE SMOOTH",
"160 678 LINE",
"38 678 LINE SMOOTH",
"17 678 OFFCURVE",
"0 696 OFFCURVE",
"0 717 CURVE SMOOTH",
"0 917 LINE SMOOTH",
"0 938 OFFCURVE",
"17 955 OFFCURVE",
"38 955 CURVE SMOOTH",
"160 955 LINE",
"160 1058 LINE SMOOTH",
"160 1294 OFFCURVE",
"276 1408 OFFCURVE",
"515 1408 CURVE SMOOTH",
"595 1408 OFFCURVE",
"670 1398 OFFCURVE",
"740 1378 CURVE SMOOTH",
"759 1373 OFFCURVE",
"771 1355 OFFCURVE",
"768 1336 CURVE SMOOTH",
"741 1141 LINE SMOOTH",
"738 1120 OFFCURVE",
"716 1105 OFFCURVE",
"695 1109 CURVE SMOOTH",
"644 1120 OFFCURVE",
"599 1125 OFFCURVE",
"560 1125 CURVE SMOOTH"
);
}
);
width = 768;
}
);
unicode = F09A;
},
{
glyphname = facebook_sign;
layers = (
{
layerId = "4350166A-1D95-43E0-8855-54890F69E6B2";
name = Regular;
paths = (
{
closed = 1;
nodes = (
"1248 1408 LINE SMOOTH",
"1407 1408 OFFCURVE",
"1536 1279 OFFCURVE",
"1536 1120 CURVE SMOOTH",
"1536 160 LINE SMOOTH",
"1536 1 OFFCURVE",
"1407 -128 OFFCURVE",
"1248 -128 CURVE SMOOTH",
"898 -128 LINE SMOOTH",
"897 -128 OFFCURVE",
"896 -128 OFFCURVE",
"896 -127 CURVE SMOOTH",
"896 544 LINE",
"1073 544 LINE SMOOTH",
"1094 544 OFFCURVE",
"1104 552 OFFCURVE",
"1105 567 CURVE SMOOTH",
"1117 731 LINE",
"1120 751 OFFCURVE",
"1104 768 OFFCURVE",
"1085 768 CURVE SMOOTH",
"896 768 LINE",
"896 840 LINE SMOOTH",
"896 899 OFFCURVE",
"905 910 OFFCURVE",
"962 910 CURVE SMOOTH",
"1000 910 OFFCURVE",
"1039 906 OFFCURVE",
"1079 897 CURVE SMOOTH",
"1096 893 OFFCURVE",
"1115 905 OFFCURVE",
"1118 924 CURVE SMOOTH",
"1141 1090 LINE",
"1144 1106 OFFCURVE",
"1132 1122 OFFCURVE",
"1116 1126 CURVE SMOOTH",
"1054 1143 OFFCURVE",
"988 1152 OFFCURVE",
"919 1152 CURVE SMOOTH",
"712 1152 OFFCURVE",
"608 1052 OFFCURVE",
"608 853 CURVE SMOOTH",
"608 768 LINE",
"513 768 LINE SMOOTH",
"496 768 OFFCURVE",
"480 752 OFFCURVE",
"480 733 CURVE SMOOTH",
"480 561 LINE SMOOTH",
"480 550 OFFCURVE",
"490 545 OFFCURVE",
"496 545 CURVE",
"499 544 OFFCURVE",
"504 544 OFFCURVE",
"513 544 CURVE SMOOTH",
"608 544 LINE",
"608 -127 LINE",
"618 -128 LINE",
"288 -128 LINE SMOOTH",
"129 -128 OFFCURVE",
"0 1 OFFCURVE",
"0 160 CURVE SMOOTH",
"0 1120 LINE SMOOTH",
"0 1279 OFFCURVE",
"129 1408 OFFCURVE",
"288 1408 CURVE SMOOTH"
);
}
);
width = 1536;
}
);
unicode = F082;
},
{
glyphname = facetime_video;
layers = (
{
layerId = "4350166A-1D95-43E0-8855-54890F69E6B2";
name = Regular;
paths = (
{
closed = 1;
nodes = (
"1913 1273 OFFCURVE",
"1920 1263 OFFCURVE",
"1920 1248 CURVE SMOOTH",
"1920 32 LINE SMOOTH",
"1920 17 OFFCURVE",
"1913 7 OFFCURVE",
"1900 2 CURVE",
"1895 1 OFFCURVE",
"1891 0 OFFCURVE",
"1888 0 CURVE SMOOTH",
"1880 0 OFFCURVE",
"1872 3 OFFCURVE",
"1865 9 CURVE",
"1280 595 LINE",
"1280 288 LINE SMOOTH",
"1280 129 OFFCURVE",
"1151 0 OFFCURVE",
"992 0 CURVE SMOOTH",
"288 0 LINE SMOOTH",
"129 0 OFFCURVE",
"0 129 OFFCURVE",
"0 288 CURVE SMOOTH",
"0 992 LINE SMOOTH",
"0 1151 OFFCURVE",
"129 1280 OFFCURVE",
"288 1280 CURVE SMOOTH",
"992 1280 LINE SMOOTH",
"1151 1280 OFFCURVE",
"1280 1151 OFFCURVE",
"1280 992 CURVE SMOOTH",
"1280 685 LINE",
"1865 1271 LINE",
"1876 1281 OFFCURVE",
"1887 1283 OFFCURVE",
"1900 1278 CURVE SMOOTH"
);
}
);
width = 1920;
}
);
unicode = F03D;
},
{
glyphname = fast_backward;
layers = (
{
layerId = "4350166A-1D95-43E0-8855-54890F69E6B2";
name = Regular;
paths = (
{
closed = 1;
nodes = (
"1747 1395 LINE SMOOTH",
"1772 1420 OFFCURVE",
"1792 1411 OFFCURVE",
"1792 1376 CURVE SMOOTH",
"1792 -96 LINE SMOOTH",
"1792 -131 OFFCURVE",
"1772 -140 OFFCURVE",
"1747 -115 CURVE SMOOTH",
"1037 595 LINE SMOOTH",
"1031 601 OFFCURVE",
"1027 607 OFFCURVE",
"1024 614 CURVE",
"1024 -96 LINE SMOOTH",
"1024 -131 OFFCURVE",
"1004 -140 OFFCURVE",
"979 -115 CURVE SMOOTH",
"269 595 LINE SMOOTH",
"263 601 OFFCURVE",
"259 607 OFFCURVE",
"256 614 CURVE",
"256 -64 LINE SMOOTH",
"256 -99 OFFCURVE",
"227 -128 OFFCURVE",
"192 -128 CURVE SMOOTH",
"64 -128 LINE SMOOTH",
"29 -128 OFFCURVE",
"0 -99 OFFCURVE",
"0 -64 CURVE SMOOTH",
"0 1344 LINE SMOOTH",
"0 1379 OFFCURVE",
"29 1408 OFFCURVE",
"64 1408 CURVE SMOOTH",
"192 1408 LINE SMOOTH",
"227 1408 OFFCURVE",
"256 1379 OFFCURVE",
"256 1344 CURVE SMOOTH",
"256 666 LINE",
"259 673 OFFCURVE",
"263 680 OFFCURVE",
"269 685 CURVE",
"979 1395 LINE SMOOTH",
"1004 1420 OFFCURVE",
"1024 1411 OFFCURVE",
"1024 1376 CURVE SMOOTH",
"1024 666 LINE",
"1027 673 OFFCURVE",
"1031 680 OFFCURVE",
"1037 685 CURVE"
);
}
);
width = 1792;
}
);
unicode = F049;
},
{
glyphname = fast_forward;
layers = (
{
layerId = "4350166A-1D95-43E0-8855-54890F69E6B2";
name = Regular;
paths = (
{
closed = 1;
nodes = (
"45 -115 LINE SMOOTH",
"20 -140 OFFCURVE",
"0 -131 OFFCURVE",
"0 -96 CURVE SMOOTH",
"0 1376 LINE SMOOTH",
"0 1411 OFFCURVE",
"20 1420 OFFCURVE",
"45 1395 CURVE SMOOTH",
"755 685 LINE SMOOTH",
"760 680 OFFCURVE",
"765 673 OFFCURVE",
"768 666 CURVE",
"768 1376 LINE SMOOTH",
"768 1411 OFFCURVE",
"788 1420 OFFCURVE",
"813 1395 CURVE SMOOTH",
"1523 685 LINE SMOOTH",
"1528 680 OFFCURVE",
"1533 673 OFFCURVE",
"1536 666 CURVE",
"1536 1344 LINE SMOOTH",
"1536 1379 OFFCURVE",
"1565 1408 OFFCURVE",
"1600 1408 CURVE SMOOTH",
"1728 1408 LINE SMOOTH",
"1763 1408 OFFCURVE",
"1792 1379 OFFCURVE",
"1792 1344 CURVE SMOOTH",
"1792 -64 LINE SMOOTH",
"1792 -99 OFFCURVE",
"1763 -128 OFFCURVE",
"1728 -128 CURVE SMOOTH",
"1600 -128 LINE SMOOTH",
"1565 -128 OFFCURVE",
"1536 -99 OFFCURVE",
"1536 -64 CURVE SMOOTH",
"1536 614 LINE",
"1533 607 OFFCURVE",
"1528 601 OFFCURVE",
"1523 595 CURVE",
"813 -115 LINE SMOOTH",
"788 -140 OFFCURVE",
"768 -131 OFFCURVE",
"768 -96 CURVE SMOOTH",
"768 614 LINE",
"765 607 OFFCURVE",
"760 601 OFFCURVE",
"755 595 CURVE"
);
}
);
width = 1792;
}
);
unicode = F050;
},
{
glyphname = fighter_jet;
layers = (
{
layerId = "4350166A-1D95-43E0-8855-54890F69E6B2";
name = Regular;
paths = (
{
closed = 1;
nodes = (
"1632 800 LINE",
"1806 761 OFFCURVE",
"1902 730 OFFCURVE",
"1919 707 CURVE",
"1920 705 OFFCURVE",
"1920 704 OFFCURVE",
"1920 704 CURVE",
"1919 683 OFFCURVE",
"1823 651 OFFCURVE",
"1632 608 CURVE",
"1280 576 LINE",
"1056 512 LINE",
"992 512 LINE",
"699 160 LINE",
"768 160 LINE SMOOTH",
"785 160 OFFCURVE",
"800 159 OFFCURVE",
"813 156 CURVE SMOOTH",
"826 153 OFFCURVE",
"832 149 OFFCURVE",
"832 144 CURVE SMOOTH",
"832 139 OFFCURVE",
"826 136 OFFCURVE",
"813 133 CURVE SMOOTH",
"800 130 OFFCURVE",
"785 128 OFFCURVE",
"768 128 CURVE SMOOTH",
"672 128 LINE",
"512 128 LINE",
"448 128 LINE",
"448 160 LINE",
"512 160 LINE",
"512 576 LINE",
"352 576 LINE",
"160 352 LINE",
"64 352 LINE",
"32 384 LINE",
"32 576 LINE",
"64 576 LINE",
"64 608 LINE",
"192 608 LINE",
"192 616 LINE",
"0 640 LINE",
"0 768 LINE",
"192 792 LINE",
"192 800 LINE",
"64 800 LINE",
"64 832 LINE",
"32 832 LINE",
"32 1024 LINE",
"64 1056 LINE",
"160 1056 LINE",
"352 832 LINE",
"512 832 LINE",
"512 1248 LINE",
"448 1248 LINE",
"448 1280 LINE",
"512 1280 LINE",
"672 1280 LINE",
"768 1280 LINE SMOOTH",
"785 1280 OFFCURVE",
"800 1279 OFFCURVE",
"813 1276 CURVE SMOOTH",
"826 1273 OFFCURVE",
"832 1269 OFFCURVE",
"832 1264 CURVE SMOOTH",
"832 1259 OFFCURVE",
"826 1256 OFFCURVE",
"813 1253 CURVE SMOOTH",
"800 1250 OFFCURVE",
"785 1248 OFFCURVE",
"768 1248 CURVE SMOOTH",
"699 1248 LINE",
"992 896 LINE",
"1056 896 LINE",
"1280 832 LINE"
);
}
);
width = 1920;
}
);
unicode = F0FB;
},
{
glyphname = file;
layers = (
{
layerId = "4350166A-1D95-43E0-8855-54890F69E6B2";
name = Regular;
paths = (
{
closed = 1;
nodes = (
"128 0 LINE",
"1152 0 LINE",
"1152 768 LINE",
"736 768 LINE SMOOTH",
"683 768 OFFCURVE",
"640 811 OFFCURVE",
"640 864 CURVE SMOOTH",
"640 1280 LINE",
"128 1280 LINE"
);
},
{
closed = 1;
nodes = (
"768 896 LINE",
"1067 896 LINE",
"768 1195 LINE"
);
},
{
closed = 1;
nodes = (
"1280 -32 LINE SMOOTH",
"1280 -85 OFFCURVE",
"1237 -128 OFFCURVE",
"1184 -128 CURVE SMOOTH",
"96 -128 LINE SMOOTH",
"43 -128 OFFCURVE",
"0 -85 OFFCURVE",
"0 -32 CURVE SMOOTH",
"0 1312 LINE SMOOTH",
"0 1365 OFFCURVE",
"43 1408 OFFCURVE",
"96 1408 CURVE SMOOTH",
"640 1408 LINE SMOOTH",
"693 1408 OFFCURVE",
"767 1377 OFFCURVE",
"804 1340 CURVE SMOOTH",
"1212 932 LINE SMOOTH",
"1249 895 OFFCURVE",
"1280 821 OFFCURVE",
"1280 768 CURVE SMOOTH"
);
}
);
width = 1280;
}
);
unicode = F016;
},
{
glyphname = file_alt;
layers = (
{
layerId = "4350166A-1D95-43E0-8855-54890F69E6B2";
name = Regular;
paths = (
{
closed = 1;
nodes = (
"1024 288 LINE SMOOTH",
"1024 269 OFFCURVE",
"1011 256 OFFCURVE",
"992 256 CURVE SMOOTH",
"288 256 LINE SMOOTH",
"269 256 OFFCURVE",
"256 269 OFFCURVE",
"256 288 CURVE SMOOTH",
"256 352 LINE SMOOTH",
"256 371 OFFCURVE",
"269 384 OFFCURVE",
"288 384 CURVE SMOOTH",
"992 384 LINE SMOOTH",
"1011 384 OFFCURVE",
"1024 371 OFFCURVE",
"1024 352 CURVE SMOOTH"
);
},
{
closed = 1;
nodes = (
"1024 544 LINE SMOOTH",
"1024 525 OFFCURVE",
"1011 512 OFFCURVE",
"992 512 CURVE SMOOTH",
"288 512 LINE SMOOTH",
"269 512 OFFCURVE",
"256 525 OFFCURVE",
"256 544 CURVE SMOOTH",
"256 608 LINE SMOOTH",
"256 627 OFFCURVE",
"269 640 OFFCURVE",
"288 640 CURVE SMOOTH",
"992 640 LINE SMOOTH",
"1011 640 OFFCURVE",
"1024 627 OFFCURVE",
"1024 608 CURVE SMOOTH"
);
},
{
closed = 1;
nodes = (
"128 0 LINE",
"1152 0 LINE",
"1152 768 LINE",
"736 768 LINE SMOOTH",
"683 768 OFFCURVE",
"640 811 OFFCURVE",
"640 864 CURVE SMOOTH",
"640 1280 LINE",
"128 1280 LINE"
);
},
{
closed = 1;
nodes = (
"768 896 LINE",
"1067 896 LINE",
"768 1195 LINE"
);
},
{
closed = 1;
nodes = (
"1280 -32 LINE SMOOTH",
"1280 -85 OFFCURVE",
"1237 -128 OFFCURVE",
"1184 -128 CURVE SMOOTH",
"96 -128 LINE SMOOTH",
"43 -128 OFFCURVE",
"0 -85 OFFCURVE",
"0 -32 CURVE SMOOTH",
"0 1312 LINE SMOOTH",
"0 1365 OFFCURVE",
"43 1408 OFFCURVE",
"96 1408 CURVE SMOOTH",
"640 1408 LINE SMOOTH",
"693 1408 OFFCURVE",
"767 1377 OFFCURVE",
"804 1340 CURVE SMOOTH",
"1212 932 LINE SMOOTH",
"1249 895 OFFCURVE",
"1280 821 OFFCURVE",
"1280 768 CURVE SMOOTH"
);
}
);
width = 1280;
}
);
unicode = F0F6;
},
{
glyphname = film;
layers = (
{
layerId = "4350166A-1D95-43E0-8855-54890F69E6B2";
name = Regular;
paths = (
{
closed = 1;
nodes = (
"384 64 LINE SMOOTH",
"384 99 OFFCURVE",
"355 128 OFFCURVE",
"320 128 CURVE SMOOTH",
"192 128 LINE SMOOTH",
"157 128 OFFCURVE",
"128 99 OFFCURVE",
"128 64 CURVE SMOOTH",
"128 -64 LINE SMOOTH",
"128 -99 OFFCURVE",
"157 -128 OFFCURVE",
"192 -128 CURVE SMOOTH",
"320 -128 LINE SMOOTH",
"355 -128 OFFCURVE",
"384 -99 OFFCURVE",
"384 -64 CURVE SMOOTH"
);
},
{
closed = 1;
nodes = (
"384 448 LINE SMOOTH",
"384 483 OFFCURVE",
"355 512 OFFCURVE",
"320 512 CURVE SMOOTH",
"192 512 LINE SMOOTH",
"157 512 OFFCURVE",
"128 483 OFFCURVE",
"128 448 CURVE SMOOTH",
"128 320 LINE SMOOTH",
"128 285 OFFCURVE",
"157 256 OFFCURVE",
"192 256 CURVE SMOOTH",
"320 256 LINE SMOOTH",
"355 256 OFFCURVE",
"384 285 OFFCURVE",
"384 320 CURVE SMOOTH"
);
},
{
closed = 1;
nodes = (
"384 832 LINE SMOOTH",
"384 867 OFFCURVE",
"355 896 OFFCURVE",
"320 896 CURVE SMOOTH",
"192 896 LINE SMOOTH",
"157 896 OFFCURVE",
"128 867 OFFCURVE",
"128 832 CURVE SMOOTH",
"128 704 LINE SMOOTH",
"128 669 OFFCURVE",
"157 640 OFFCURVE",
"192 640 CURVE SMOOTH",
"320 640 LINE SMOOTH",
"355 640 OFFCURVE",
"384 669 OFFCURVE",
"384 704 CURVE SMOOTH"
);
},
{
closed = 1;
nodes = (
"1408 448 LINE SMOOTH",
"1408 483 OFFCURVE",
"1379 512 OFFCURVE",
"1344 512 CURVE SMOOTH",
"576 512 LINE SMOOTH",
"541 512 OFFCURVE",
"512 483 OFFCURVE",
"512 448 CURVE SMOOTH",
"512 -64 LINE SMOOTH",
"512 -99 OFFCURVE",
"541 -128 OFFCURVE",
"576 -128 CURVE SMOOTH",
"1344 -128 LINE SMOOTH",
"1379 -128 OFFCURVE",
"1408 -99 OFFCURVE",
"1408 -64 CURVE SMOOTH"
);
},
{
closed = 1;
nodes = (
"384 1216 LINE SMOOTH",
"384 1251 OFFCURVE",
"355 1280 OFFCURVE",
"320 1280 CURVE SMOOTH",
"192 1280 LINE SMOOTH",
"157 1280 OFFCURVE",
"128 1251 OFFCURVE",
"128 1216 CURVE SMOOTH",
"128 1088 LINE SMOOTH",
"128 1053 OFFCURVE",
"157 1024 OFFCURVE",
"192 1024 CURVE SMOOTH",
"320 1024 LINE SMOOTH",
"355 1024 OFFCURVE",
"384 1053 OFFCURVE",
"384 1088 CURVE SMOOTH"
);
},
{
closed = 1;
nodes = (
"1792 64 LINE SMOOTH",
"1792 99 OFFCURVE",
"1763 128 OFFCURVE",
"1728 128 CURVE SMOOTH",
"1600 128 LINE SMOOTH",
"1565 128 OFFCURVE",
"1536 99 OFFCURVE",
"1536 64 CURVE SMOOTH",
"1536 -64 LINE SMOOTH",
"1536 -99 OFFCURVE",
"1565 -128 OFFCURVE",
"1600 -128 CURVE SMOOTH",
"1728 -128 LINE SMOOTH",
"1763 -128 OFFCURVE",
"1792 -99 OFFCURVE",
"1792 -64 CURVE SMOOTH"
);
},
{
closed = 1;
nodes = (
"1408 1216 LINE SMOOTH",
"1408 1251 OFFCURVE",
"1379 1280 OFFCURVE",
"1344 1280 CURVE SMOOTH",
"576 1280 LINE SMOOTH",
"541 1280 OFFCURVE",
"512 1251 OFFCURVE",
"512 1216 CURVE SMOOTH",
"512 704 LINE SMOOTH",
"512 669 OFFCURVE",
"541 640 OFFCURVE",
"576 640 CURVE SMOOTH",
"1344 640 LINE SMOOTH",
"1379 640 OFFCURVE",
"1408 669 OFFCURVE",
"1408 704 CURVE SMOOTH"
);
},
{
closed = 1;
nodes = (
"1792 448 LINE SMOOTH",
"1792 483 OFFCURVE",
"1763 512 OFFCURVE",
"1728 512 CURVE SMOOTH",
"1600 512 LINE SMOOTH",
"1565 512 OFFCURVE",
"1536 483 OFFCURVE",
"1536 448 CURVE SMOOTH",
"1536 320 LINE SMOOTH",
"1536 285 OFFCURVE",
"1565 256 OFFCURVE",
"1600 256 CURVE SMOOTH",
"1728 256 LINE SMOOTH",
"1763 256 OFFCURVE",
"1792 285 OFFCURVE",
"1792 320 CURVE SMOOTH"
);
},
{
closed = 1;
nodes = (
"1792 832 LINE SMOOTH",
"1792 867 OFFCURVE",
"1763 896 OFFCURVE",
"1728 896 CURVE SMOOTH",
"1600 896 LINE SMOOTH",
"1565 896 OFFCURVE",
"1536 867 OFFCURVE",
"1536 832 CURVE SMOOTH",
"1536 704 LINE SMOOTH",
"1536 669 OFFCURVE",
"1565 640 OFFCURVE",
"1600 640 CURVE SMOOTH",
"1728 640 LINE SMOOTH",
"1763 640 OFFCURVE",
"1792 669 OFFCURVE",
"1792 704 CURVE SMOOTH"
);
},
{
closed = 1;
nodes = (
"1792 1216 LINE SMOOTH",
"1792 1251 OFFCURVE",
"1763 1280 OFFCURVE",
"1728 1280 CURVE SMOOTH",
"1600 1280 LINE SMOOTH",
"1565 1280 OFFCURVE",
"1536 1251 OFFCURVE",
"1536 1216 CURVE SMOOTH",
"1536 1088 LINE SMOOTH",
"1536 1053 OFFCURVE",
"1565 1024 OFFCURVE",
"1600 1024 CURVE SMOOTH",
"1728 1024 LINE SMOOTH",
"1763 1024 OFFCURVE",
"1792 1053 OFFCURVE",
"1792 1088 CURVE SMOOTH"
);
},
{
closed = 1;
nodes = (
"1920 -96 LINE SMOOTH",
"1920 -184 OFFCURVE",
"1848 -256 OFFCURVE",
"1760 -256 CURVE SMOOTH",
"160 -256 LINE SMOOTH",
"72 -256 OFFCURVE",
"0 -184 OFFCURVE",
"0 -96 CURVE SMOOTH",
"0 1248 LINE SMOOTH",
"0 1336 OFFCURVE",
"72 1408 OFFCURVE",
"160 1408 CURVE SMOOTH",
"1760 1408 LINE SMOOTH",
"1848 1408 OFFCURVE",
"1920 1336 OFFCURVE",
"1920 1248 CURVE SMOOTH"
);
}
);
width = 1920;
}
);
unicode = F008;
},
{
glyphname = filter;
layers = (
{
layerId = "4350166A-1D95-43E0-8855-54890F69E6B2";
name = Regular;
paths = (
{
closed = 1;
nodes = (
"1414 1214 OFFCURVE",
"1410 1190 OFFCURVE",
"1389 1171 CURVE",
"896 678 LINE",
"896 -64 LINE SMOOTH",
"896 -92 OFFCURVE",
"883 -112 OFFCURVE",
"857 -123 CURVE",
"848 -126 OFFCURVE",
"840 -128 OFFCURVE",
"832 -128 CURVE SMOOTH",
"814 -128 OFFCURVE",
"799 -122 OFFCURVE",
"787 -109 CURVE",
"531 147 LINE SMOOTH",
"518 160 OFFCURVE",
"512 175 OFFCURVE",
"512 192 CURVE SMOOTH",
"512 678 LINE",
"19 1171 LINE SMOOTH",
"-22 1210 OFFCURVE",
"8 1280 OFFCURVE",
"64 1280 CURVE SMOOTH",
"1344 1280 LINE SMOOTH",
"1372 1280 OFFCURVE",
"1392 1267 OFFCURVE",
"1403 1241 CURVE SMOOTH"
);
}
);
width = 1408;
}
);
unicode = F0B0;
},
{
glyphname = flag;
layers = (
{
layerId = "4350166A-1D95-43E0-8855-54890F69E6B2";
name = Regular;
paths = (
{
closed = 1;
nodes = (
"320 1232 OFFCURVE",
"299 1195 OFFCURVE",
"256 1170 CURVE",
"256 -96 LINE SMOOTH",
"256 -113 OFFCURVE",
"241 -128 OFFCURVE",
"224 -128 CURVE SMOOTH",
"160 -128 LINE SMOOTH",
"143 -128 OFFCURVE",
"128 -113 OFFCURVE",
"128 -96 CURVE SMOOTH",
"128 1170 LINE",
"85 1195 OFFCURVE",
"64 1232 OFFCURVE",
"64 1280 CURVE SMOOTH",
"64 1351 OFFCURVE",
"121 1408 OFFCURVE",
"192 1408 CURVE SMOOTH",
"263 1408 OFFCURVE",
"320 1351 OFFCURVE",
"320 1280 CURVE SMOOTH"
);
},
{
closed = 1;
nodes = (
"1792 453 LINE SMOOTH",
"1792 420 OFFCURVE",
"1776 406 OFFCURVE",
"1740 387 CURVE SMOOTH",
"1597 310 OFFCURVE",
"1474 271 OFFCURVE",
"1371 271 CURVE SMOOTH",
"1290 271 OFFCURVE",
"1200 306 OFFCURVE",
"1139 341 CURVE SMOOTH",
"1078 376 OFFCURVE",
"978 411 OFFCURVE",
"881 411 CURVE SMOOTH",
"753 411 OFFCURVE",
"598 362 OFFCURVE",
"417 265 CURVE SMOOTH",
"406 259 OFFCURVE",
"395 256 OFFCURVE",
"384 256 CURVE SMOOTH",
"349 256 OFFCURVE",
"320 285 OFFCURVE",
"320 320 CURVE SMOOTH",
"320 1062 LINE SMOOTH",
"320 1105 OFFCURVE",
"353 1121 OFFCURVE",
"430 1160 CURVE SMOOTH",
"587 1240 OFFCURVE",
"728 1280 OFFCURVE",
"851 1280 CURVE SMOOTH",
"994 1280 OFFCURVE",
"1102 1242 OFFCURVE",
"1270 1163 CURVE",
"1295 1150 OFFCURVE",
"1325 1144 OFFCURVE",
"1358 1144 CURVE SMOOTH",
"1430 1144 OFFCURVE",
"1524 1177 OFFCURVE",
"1586 1212 CURVE SMOOTH",
"1648 1247 OFFCURVE",
"1711 1280 OFFCURVE",
"1728 1280 CURVE SMOOTH",
"1763 1280 OFFCURVE",
"1792 1251 OFFCURVE",
"1792 1216 CURVE SMOOTH"
);
}
);
width = 1792;
}
);
unicode = F024;
},
{
glyphname = folder_close;
layers = (
{
layerId = "4350166A-1D95-43E0-8855-54890F69E6B2";
name = Regular;
paths = (
{
closed = 1;
nodes = (
"1664 224 LINE SMOOTH",
"1664 101 OFFCURVE",
"1563 0 OFFCURVE",
"1440 0 CURVE SMOOTH",
"224 0 LINE SMOOTH",
"101 0 OFFCURVE",
"0 101 OFFCURVE",
"0 224 CURVE SMOOTH",
"0 1184 LINE SMOOTH",
"0 1307 OFFCURVE",
"101 1408 OFFCURVE",
"224 1408 CURVE SMOOTH",
"544 1408 LINE SMOOTH",
"667 1408 OFFCURVE",
"768 1307 OFFCURVE",
"768 1184 CURVE SMOOTH",
"768 1152 LINE",
"1440 1152 LINE SMOOTH",
"1563 1152 OFFCURVE",
"1664 1051 OFFCURVE",
"1664 928 CURVE SMOOTH"
);
}
);
width = 1664;
}
);
unicode = F07B;
},
{
glyphname = folder_close_alt;
layers = (
{
layerId = "4350166A-1D95-43E0-8855-54890F69E6B2";
name = Regular;
paths = (
{
closed = 1;
nodes = (
"1536 928 LINE SMOOTH",
"1536 981 OFFCURVE",
"1493 1024 OFFCURVE",
"1440 1024 CURVE SMOOTH",
"736 1024 LINE SMOOTH",
"683 1024 OFFCURVE",
"640 1067 OFFCURVE",
"640 1120 CURVE SMOOTH",
"640 1184 LINE SMOOTH",
"640 1237 OFFCURVE",
"597 1280 OFFCURVE",
"544 1280 CURVE SMOOTH",
"224 1280 LINE SMOOTH",
"171 1280 OFFCURVE",
"128 1237 OFFCURVE",
"128 1184 CURVE SMOOTH",
"128 224 LINE SMOOTH",
"128 171 OFFCURVE",
"171 128 OFFCURVE",
"224 128 CURVE SMOOTH",
"1440 128 LINE SMOOTH",
"1493 128 OFFCURVE",
"1536 171 OFFCURVE",
"1536 224 CURVE SMOOTH"
);
},
{
closed = 1;
nodes = (
"1664 224 LINE SMOOTH",
"1664 101 OFFCURVE",
"1563 0 OFFCURVE",
"1440 0 CURVE SMOOTH",
"224 0 LINE SMOOTH",
"101 0 OFFCURVE",
"0 101 OFFCURVE",
"0 224 CURVE SMOOTH",
"0 1184 LINE SMOOTH",
"0 1307 OFFCURVE",
"101 1408 OFFCURVE",
"224 1408 CURVE SMOOTH",
"544 1408 LINE SMOOTH",
"667 1408 OFFCURVE",
"768 1307 OFFCURVE",
"768 1184 CURVE SMOOTH",
"768 1152 LINE",
"1440 1152 LINE SMOOTH",
"1563 1152 OFFCURVE",
"1664 1051 OFFCURVE",
"1664 928 CURVE SMOOTH"
);
}
);
width = 1664;
}
);
unicode = F114;
},
{
glyphname = folder_open;
layers = (
{
layerId = "4350166A-1D95-43E0-8855-54890F69E6B2";
name = Regular;
paths = (
{
closed = 1;
nodes = (
"1879 563 OFFCURVE",
"1869 541 OFFCURVE",
"1848 518 CURVE",
"1512 122 LINE SMOOTH",
"1455 54 OFFCURVE",
"1336 0 OFFCURVE",
"1248 0 CURVE SMOOTH",
"160 0 LINE SMOOTH",
"115 0 OFFCURVE",
"73 16 OFFCURVE",
"73 56 CURVE SMOOTH",
"73 77 OFFCURVE",
"83 99 OFFCURVE",
"104 122 CURVE",
"440 518 LINE SMOOTH",
"497 586 OFFCURVE",
"616 640 OFFCURVE",
"704 640 CURVE SMOOTH",
"1792 640 LINE SMOOTH",
"1837 640 OFFCURVE",
"1879 624 OFFCURVE",
"1879 584 CURVE SMOOTH"
);
},
{
closed = 1;
nodes = (
"1536 768 LINE",
"704 768 LINE SMOOTH",
"579 768 OFFCURVE",
"424 697 OFFCURVE",
"343 601 CURVE SMOOTH",
"6 205 LINE",
"1 199 LINE",
"1 202 OFFCURVE",
"1 206 OFFCURVE",
"1 212 CURVE",
"0 217 OFFCURVE",
"0 221 OFFCURVE",
"0 224 CURVE SMOOTH",
"0 1184 LINE SMOOTH",
"0 1307 OFFCURVE",
"101 1408 OFFCURVE",
"224 1408 CURVE SMOOTH",
"544 1408 LINE SMOOTH",
"667 1408 OFFCURVE",
"768 1307 OFFCURVE",
"768 1184 CURVE SMOOTH",
"768 1152 LINE",
"1312 1152 LINE SMOOTH",
"1435 1152 OFFCURVE",
"1536 1051 OFFCURVE",
"1536 928 CURVE SMOOTH"
);
}
);
width = 1920;
}
);
unicode = F07C;
},
{
glyphname = folder_open_alt;
layers = (
{
layerId = "4350166A-1D95-43E0-8855-54890F69E6B2";
name = Regular;
paths = (
{
closed = 1;
nodes = (
"1781 628 OFFCURVE",
"1763 640 OFFCURVE",
"1728 640 CURVE SMOOTH",
"640 640 LINE SMOOTH",
"587 640 OFFCURVE",
"518 607 OFFCURVE",
"483 566 CURVE SMOOTH",
"189 203 LINE",
"177 187 OFFCURVE",
"171 174 OFFCURVE",
"171 163 CURVE SMOOTH",
"171 140 OFFCURVE",
"189 128 OFFCURVE",
"224 128 CURVE SMOOTH",
"1312 128 LINE SMOOTH",
"1365 128 OFFCURVE",
"1436 162 OFFCURVE",
"1469 203 CURVE SMOOTH",
"1763 566 LINE SMOOTH",
"1775 581 OFFCURVE",
"1781 594 OFFCURVE",
"1781 605 CURVE SMOOTH"
);
},
{
closed = 1;
nodes = (
"1408 768 LINE",
"1408 928 LINE SMOOTH",
"1408 981 OFFCURVE",
"1365 1024 OFFCURVE",
"1312 1024 CURVE SMOOTH",
"736 1024 LINE SMOOTH",
"683 1024 OFFCURVE",
"640 1067 OFFCURVE",
"640 1120 CURVE SMOOTH",
"640 1184 LINE SMOOTH",
"640 1237 OFFCURVE",
"597 1280 OFFCURVE",
"544 1280 CURVE SMOOTH",
"224 1280 LINE SMOOTH",
"171 1280 OFFCURVE",
"128 1237 OFFCURVE",
"128 1184 CURVE SMOOTH",
"128 331 LINE",
"384 646 LINE SMOOTH",
"443 717 OFFCURVE",
"549 768 OFFCURVE",
"640 768 CURVE SMOOTH"
);
},
{
closed = 1;
nodes = (
"1909 564 OFFCURVE",
"1894 524 OFFCURVE",
"1863 485 CURVE SMOOTH",
"1568 122 LINE SMOOTH",
"1511 51 OFFCURVE",
"1401 0 OFFCURVE",
"1312 0 CURVE SMOOTH",
"224 0 LINE SMOOTH",
"101 0 OFFCURVE",
"0 101 OFFCURVE",
"0 224 CURVE SMOOTH",
"0 1184 LINE SMOOTH",
"0 1307 OFFCURVE",
"101 1408 OFFCURVE",
"224 1408 CURVE SMOOTH",
"544 1408 LINE SMOOTH",
"667 1408 OFFCURVE",
"768 1307 OFFCURVE",
"768 1184 CURVE SMOOTH",
"768 1152 LINE",
"1312 1152 LINE SMOOTH",
"1435 1152 OFFCURVE",
"1536 1051 OFFCURVE",
"1536 928 CURVE SMOOTH",
"1536 768 LINE",
"1728 768 LINE SMOOTH",
"1800 768 OFFCURVE",
"1865 734 OFFCURVE",
"1894 673 CURVE SMOOTH",
"1904 652 OFFCURVE",
"1909 629 OFFCURVE",
"1909 605 CURVE SMOOTH"
);
}
);
width = 1920;
}
);
unicode = F115;
},
